<svg width="512" height="598" viewBox="0 0 512 598" fill="none" xmlns="http://www.w3.org/2000/svg">
<g clip-path="url(#clip0_500_356)">
<path d="M197.016 288.559C196.649 288.412 195.814 287.555 195.161 286.654C194.102 285.195 193.757 284.3 192.008 278.482C190.102 272.143 190.025 271.774 189.405 266.082C188.654 259.191 188.598 255.078 189.163 248.361C189.5 244.358 189.521 242.788 189.277 239.874L188.977 236.299L190.679 234.524C193.357 231.731 193.807 231.168 195.13 228.958C196.57 226.554 199.546 219.695 200.654 216.23L201.416 213.844L203.426 212.563C205.043 211.532 205.584 211.009 206.199 209.882C207.375 207.725 209.209 206.414 211.834 205.852C214.586 205.263 215.416 205.495 215.416 206.85C215.416 207.353 214.862 209.606 214.186 211.856L212.955 215.949L213.255 218.266C213.516 220.286 213.728 220.883 214.91 222.932C216.913 226.404 217.933 227.735 220.245 229.896C221.391 230.966 222.843 232.547 223.472 233.407C225.167 235.725 228.449 240.049 229.528 241.385C230.048 242.029 230.789 243.269 231.175 244.141C232.361 246.819 235.073 248.528 245.816 253.369C248.383 254.526 251.433 255.813 252.594 256.229C253.755 256.645 254.578 257.028 254.423 257.08C254.268 257.132 252.178 256.802 249.778 256.347C246.617 255.748 244.572 255.186 242.349 254.305C240.663 253.636 237.963 252.632 236.349 252.073C229.478 249.692 226.67 248.09 224.476 245.298C223.437 243.977 222.846 243.487 221.749 243.043L220.349 242.475L218.495 243.258C216.719 244.007 216.593 244.122 215.53 245.952C214.748 247.299 214.33 248.407 214.116 249.7C213.877 251.149 213.542 251.952 212.534 253.496C211.83 254.574 210.974 256.227 210.63 257.169C209.932 259.085 207.491 262.868 205.597 264.97C203.788 266.977 201.675 269.918 201.158 271.149C200.912 271.735 200.279 273.595 199.752 275.282C198.875 278.09 198.777 278.731 198.593 282.882C198.398 287.294 198.197 288.912 197.852 288.854C197.759 288.838 197.383 288.705 197.016 288.559Z" fill="white" stroke="white" stroke-width="2.5024"/>
<path d="M261.284 595.204C260.343 592.695 260.8 573.171 261.725 555.916L262.649 538.67L272.886 537.973C289.654 536.83 297.676 533.698 301.161 526.935C302.294 524.735 302.801 513.733 303.411 478.061L304.199 432.027L300.913 430.328C298.415 429.036 294.356 428.626 283.975 428.614C264.622 428.594 265.905 429.414 266.811 417.643C267.227 412.245 268.026 385.749 268.586 358.762C269.567 311.554 270.081 304.432 273.607 289.23C274.944 283.463 274.738 281.423 279.104 276.87C283.72 272.056 285.876 270.471 287.454 263.356C291.087 246.975 294.777 240.678 304.905 233.574C315.861 225.889 325.102 212.943 326.026 203.985C326.439 199.988 325.486 197.496 326.542 197.496C329.113 197.496 341.213 208.056 344.666 213.694C346.463 216.628 349.323 220.793 351.021 222.949C352.719 225.106 353.993 227.266 353.852 227.749C353.71 228.233 354.242 232.323 355.033 236.839C357.017 248.168 356.236 254.749 352.352 259.419C350.649 261.466 348.895 263.176 348.455 263.219C348.015 263.261 347.655 261.256 347.654 258.762C347.653 251.513 342.44 241.743 336.17 237.239C333.299 235.176 328.649 230.559 325.836 226.979C323.023 223.399 320.351 220.865 319.898 221.349C319.444 221.833 318.171 223.944 317.067 226.039C315.139 229.7 308.362 236.695 301.936 241.657C300.069 243.099 297.935 246.54 296.458 250.489C295.127 254.048 292.648 258.708 290.95 260.845C288.976 263.33 288.232 265.099 288.888 265.755C290.464 267.331 294.865 261.583 298.12 253.696C299.695 249.882 301.951 245.086 303.786 243.444C305.621 241.802 309.92 238.792 312.687 236.348C315.455 233.904 318.273 230.567 318.95 228.933C319.627 227.299 320.588 223.962 321.004 223.962C321.42 223.962 323.262 228.146 325.178 230.814C327.095 233.483 330.416 236.781 332.559 238.143C340.346 243.091 344.395 250.669 344.432 260.362C344.455 266.341 344.529 266.495 347.389 266.476C350.674 266.455 355.814 261.02 358.264 254.978C359.644 251.573 358.641 239.7 356.995 232.962C356.387 230.471 357.306 232.073 360.556 235.525C363.733 238.9 368.009 241.69 394.055 257.378C398.749 260.205 404.466 263.773 406.761 265.307C409.056 266.841 414.576 269.356 419.028 270.896C438.748 277.72 440.506 278.62 451.767 287.656C459.319 293.717 463.433 297.814 464.479 300.317C465.329 302.352 467.416 305.775 469.116 307.923C474.655 314.921 476.996 322.46 478.802 339.114C479.285 343.561 480.433 348.657 481.354 350.438C482.276 352.22 483.529 356.502 484.139 359.953C484.75 363.405 486.216 371.029 487.399 376.896C490.266 391.124 492.594 412.321 492.512 423.45C492.445 432.51 494.687 452.657 497.539 468.629C502.435 496.048 505.607 520.655 505.513 530.496C505.368 545.81 505.45 547.685 506.69 557.162C509.652 579.799 509.64 577.871 506.852 583.65C505.31 586.847 504.447 590.22 504.71 592.017L505.152 595.029H476.956C450.515 595.029 448.809 594.913 449.547 593.162C449.979 592.136 450.255 589.732 450.16 587.822C450.022 585.052 450.535 584.098 452.688 583.117C456.102 581.561 456.113 580.318 452.722 579.029C449.259 577.712 449.259 574.408 452.722 569.867C455.964 565.617 456.033 563.641 453.176 556.984C451.011 551.94 451.004 551.708 452.861 546.235C454.313 541.956 454.466 540.346 453.509 539.39C452.553 538.433 452.16 538.495 451.839 539.651C451.608 540.482 450.582 543.688 449.559 546.775C447.742 552.257 447.751 552.498 449.944 557.163C452.806 563.253 452.765 564.427 449.522 569.2C446.709 573.34 446.072 577.82 448.021 579.768C448.864 580.611 448.853 581.557 447.981 583.185C447.318 584.424 446.868 586.515 446.981 587.833C447.095 589.151 447.112 591.309 447.021 592.629L446.855 595.029H354.555C281.693 595.029 261.678 596.257 261.284 595.204Z" fill="white" stroke="white" stroke-width="3.24907"/>
<path d="M44.1451 582.401C42.013 580.707 38.5833 579.005 36.5236 578.618C34.2504 578.192 32.1049 576.887 31.0641 575.299C30.1211 573.86 28.8047 572.679 28.1388 572.675C27.4729 572.67 25.8109 571.027 24.4453 569.021C22.5149 566.186 20.9723 565.216 17.512 564.659C10.6536 563.557 8.58629 561.693 6.6045 554.829C5.62832 551.448 4.40181 547.849 3.87891 546.83C2.13119 543.425 2.77483 537.021 5.06153 535.063C6.23486 534.058 7.19486 532.601 7.19486 531.825C7.19486 531.049 8.63486 529.035 10.3949 527.349C12.1549 525.662 13.6029 523.293 13.6127 522.082C13.6223 520.872 15.816 515.811 18.487 510.836C21.1581 505.86 23.785 499.461 24.3246 496.616C24.8642 493.771 26.3082 490.035 27.5336 488.314C28.872 486.435 30.3308 481.678 31.1874 476.4C32.0849 470.871 34.0305 464.662 36.4374 459.645C38.5407 455.262 40.2615 450.13 40.2615 448.242C40.2615 446.353 40.7959 444.478 41.4491 444.074C44.4779 442.202 46.9546 433.308 47.8704 421.015C48.4642 413.046 49.5934 406.337 50.9355 402.806C52.1042 399.731 53.0607 395.855 53.061 394.193C53.0613 392.531 54.4294 387.731 56.1013 383.526C57.7731 379.322 59.4622 373.821 59.8547 371.302C60.6123 366.44 62.9808 361.056 69.3844 349.641C71.5568 345.768 74.2964 338.808 75.4723 334.174C78.3418 322.866 89.4525 300.588 93.9256 297.173C95.797 295.744 98.8665 293.137 100.747 291.379C105.402 287.026 124.883 274.016 126.753 274.011C127.583 274.009 135.339 272.353 143.99 270.332L159.718 266.657L172.79 257.553L185.862 248.45L186.545 259.926C187.583 277.365 192.887 292.149 198.106 292.149C199.706 292.149 201.328 287.412 201.328 282.739C201.328 276.752 203.004 272.133 206.95 267.247C211.385 261.756 216.262 253.027 216.262 250.58C216.262 249.571 217.202 247.895 218.351 246.855C220.367 245.03 220.552 245.075 223.608 248.131C227.987 252.51 253.775 261.482 256.731 259.655C258.507 258.557 265.967 265.308 268.862 270.631C272.48 277.286 272.596 280.756 269.669 294.683C266.976 307.493 266.521 315.537 265.859 362.015C265.575 381.962 264.884 403.562 264.323 410.015C263.762 416.469 263.279 423.069 263.249 424.682L263.195 427.615H243.094C219.467 427.615 219.462 427.617 219.462 437.566V443.615L212.262 443.639C207.404 443.655 203.546 444.35 200.403 445.776L195.745 447.89L186.003 444.03C179.925 441.622 173.253 437.909 168.262 434.159L160.262 428.149L145.542 425.972C132.22 424.002 129.484 423.915 116.742 425.063C101.221 426.461 96.9571 427.486 88.2615 431.91C80.7806 435.716 75.6202 441.151 70.5651 450.549C65.8931 459.234 63.0386 463.019 54.2891 472.131C50.7776 475.788 46.3424 481.511 44.4331 484.848C42.5238 488.185 38.8841 493.466 36.3449 496.584C31.8111 502.15 30.7602 504.415 32.7117 504.415C34.2794 504.415 41.1395 495.96 45.6935 488.415C50.5628 480.348 57.1925 469.445 56.2008 472.949C51.029 491.219 51.2623 477.931 51.1515 478.454C49.7269 485.182 51.9634 501.701 54.0876 513.482C55.357 520.522 56.8316 530.122 57.3646 534.815C58.1944 542.123 58.7486 543.71 61.2236 545.863C66.4055 550.372 74.1308 547.597 86.277 536.864C89.8977 533.665 95.3539 532.486 97.5567 528.21C97.5589 528.207 93.6887 522.212 97.5471 528.227C97.7285 528.509 95.2995 532.432 95.3534 532.486C95.6458 532.778 95.1938 534.382 94.3489 536.05C93.5041 537.717 92.4672 541.002 92.0447 543.349C91.6222 545.695 89.4087 551.215 87.1258 555.615C84.8428 560.015 82.6751 565.055 82.3087 566.815C81.0133 573.037 67.236 582.164 58.9277 582.304C57.1677 582.333 54.5277 583.044 53.061 583.882C49.326 586.017 48.5281 585.885 44.1451 582.401Z" fill="white" stroke="white" stroke-width="3.56907"/>
<path d="M95.7282 588.722C95.7282 584.692 94.8921 580.294 93.4465 576.722C92.1916 573.62 90.5424 568.509 89.7818 565.363C88.4571 559.886 88.5262 559.368 91.4186 553.096C93.0796 549.495 94.926 544.629 95.5218 542.282C96.1176 539.935 97.4559 535.813 98.4959 533.122C100.359 528.3 100.353 528.181 98.0575 524.957C95.4118 521.242 95.1892 517.852 97.1057 510.463C98.435 505.338 98.4526 505.322 100.431 507.508C101.525 508.717 106.297 511.201 111.034 513.028C115.771 514.855 122.785 517.929 126.621 519.859C130.457 521.789 136.651 524.654 140.387 526.225C146.788 528.917 147.491 529.002 152.587 527.695C157.022 526.559 158.573 525.491 161.201 521.762C163.855 517.996 165.003 517.215 167.883 517.215C172.411 517.215 175.593 513.065 176.38 510.587C176.821 509.197 178.038 508.615 180.508 508.615C186.426 508.615 191.375 508.788 194.422 504.184L197.304 499.828L204.916 507.801C209.103 512.187 213.848 516.634 215.462 517.684C217.162 518.791 218.395 520.559 218.395 521.89C218.395 525.328 223.126 531.621 227.13 533.51C231.299 535.477 244.724 537.482 253.729 537.482H260.109L259.3 549.482C258.855 556.082 258.469 569.042 258.443 578.281L258.395 595.081L177.062 595.081L95.7282 595.082V588.722Z" fill="white" stroke="white" stroke-width="3.24907"/>
<path d="M214.115 496.951C210.295 494.987 199.195 484.022 199.195 482.212C199.195 481.664 200.582 480.938 202.277 480.599C208.433 479.367 212.195 467.688 208.25 462.056C206.34 459.33 207.197 458.539 211.225 459.309C214.806 459.993 218.134 463.979 218.919 468.523C219.238 470.37 219.131 477.956 218.68 485.379L217.861 498.877L214.115 496.951Z" fill="white" stroke="white" stroke-width="3.24907"/>
<path d="M182.852 479.588C181.504 478.448 181.489 478.425 182.004 478.317C182.292 478.257 182.799 478.066 183.13 477.894C183.461 477.721 183.77 477.643 183.817 477.721C183.925 477.901 184.348 480.631 184.278 480.697C184.249 480.725 183.607 480.226 182.852 479.588Z" fill="white" stroke="white" stroke-width="3.24907"/>
<path d="M178.747 475.83C177.93 475.063 176.878 474.094 176.41 473.676C175.943 473.259 175.09 472.119 174.515 471.143C173.94 470.167 172.452 467.989 171.209 466.302C169.966 464.615 168.987 463.196 169.034 463.148C169.131 463.048 174.566 466.329 175.543 467.077C176.057 467.471 176.23 467.929 176.401 469.349C176.712 471.928 177.931 474.081 179.904 475.533C181.318 476.574 181.407 476.697 180.927 476.954C180.638 477.109 180.364 477.233 180.317 477.23C180.271 477.227 179.564 476.597 178.747 475.83Z" fill="white" stroke="white" stroke-width="2.5024"/>
<path d="M181.362 474.296C179.889 473.21 179.436 472.69 178.896 471.467C178.286 470.09 178.047 468.969 178.362 468.969C178.881 468.969 181.773 470.895 182.499 471.724C183.218 472.545 183.416 473.028 183.513 474.19C183.578 474.985 183.527 475.634 183.399 475.631C183.271 475.629 182.354 475.028 181.362 474.296Z" fill="white" stroke="white" stroke-width="2.5024"/>
<path d="M177.104 466.756L177.213 469.401L177.575 470.814L178.589 473.024C178.589 473.024 179.602 474.183 179.783 474.328C179.964 474.473 182.318 476.103 182.318 476.103L183.259 476.719L184.526 476.9" stroke="black" stroke-width="1.6"/>
<path d="M179.095 477.915L181.195 477.879L182.354 477.625L183.872 476.807" stroke="black" stroke-width="1.06667"/>
<path d="M210.801 45.3539C210.738 43.439 215.682 31.4724 220.437 25.0495L225.782 17.8303L232.855 14.2838C243.74 8.82641 253.567 5.38487 263.836 3.43352C272.248 1.83516 272.811 1.79464 279.182 2.32814C291.054 3.32228 302.205 5.68324 313.486 9.59092L323.662 13.1161L327.548 17.4021C329.686 19.7593 333.101 23.1327 333.006 23.2275C332.911 23.3223 329.491 21.4526 327.537 20.7434C322.022 18.7415 309.46 15.8728 299.298 14.2947C282.443 11.6773 264.163 12.3704 248.966 16.2031C238.241 18.9082 226.337 24.1497 220.724 28.6387C218.808 30.1711 215.427 34.4555 213.901 37.2826C213.427 38.1626 210.813 45.7097 210.801 45.3539Z" fill="white" stroke="white" stroke-width="2.5024"/>
<path d="M203.083 79.5369C203.108 79.29 203.233 77.391 203.362 75.3168L203.596 71.5456L206.302 64.36C207.79 60.408 209.141 56.9416 209.162 56.9625C209.183 56.9834 209.143 57.7579 209.215 58.378C209.34 59.4552 209.396 59.6377 210.477 62.4615C211.1 64.0872 211.609 65.4548 211.609 65.5007C211.609 65.5465 211.307 66.395 210.938 67.3863C210.569 68.3775 210.104 69.6552 209.906 70.2256C209.707 70.796 209.123 72.2762 208.608 73.5148C207.68 75.746 207.665 75.7731 207.024 76.4397C206.668 76.8097 205.626 77.759 204.708 78.5491L203.038 79.9858L203.083 79.5369Z" fill="white" stroke="white" stroke-width="2.5024"/>
<path d="M347.052 96.1349C347.068 95.8232 347.13 94.2782 347.189 92.7015L347.297 89.8349L347.586 88.4015C347.745 87.6132 348.222 85.1982 348.646 83.0349C349.07 80.8715 349.433 79.0303 349.453 78.9432C349.484 78.8118 349.576 78.9366 349.992 79.6765C350.481 80.5446 350.527 80.6011 351.73 81.81L352.966 83.0517L352.504 83.3504C352.25 83.5148 351.509 84.141 350.858 84.742L349.675 85.8349L349.693 86.673L349.71 87.5112L348.697 88.984L347.683 90.4568V91.0851C347.683 92.1386 347.334 95.2519 347.086 96.4015C347.032 96.6561 347.026 96.6156 347.052 96.1349Z" fill="white" stroke="white" stroke-width="2.5024"/>
<path fill-rule="evenodd" clip-rule="evenodd" d="M219.026 149.628L219.599 153.232L220.34 157.409L220.993 163.04L225.046 170.425L227.398 173.162L232.335 177.177L236.894 182.657L245.241 188.643L252.299 191.27L258.291 192.561L264.936 193.9L274.588 195.489L281.4 196.764L288.598 197.409L298.055 195.505L305.402 192.042L313.953 185.25L319.87 176.612L323.285 169.507L325.614 163.469L328.824 156.371L330.963 151.01L332.663 144.327L335.494 132.732L337.103 126.619L338.47 123.973L342.955 113.64L344.683 105.303L345.926 102.999C347.407 101.479 348.611 92.9295 348.525 90.6945L350.563 87.7442L350.504 86.2083L352.581 84.282L354.482 83.0804L362.544 74.2569L364.763 68.0181L365.958 61.8188L365.871 56.8997L363.599 51.1421L356.848 40.8405L351.927 35.493L345.811 31.0121L335.947 25.0354L323.945 11.9864L303.294 5.01774L284.468 1.63334L272.118 0.805664L254.853 4.08379L239.137 9.91259L224.924 17.1336L214.185 31.7617L210.435 41.4772L209.098 49.3228L208.351 56.5302L202.774 71.3082L202.004 83.2338L203.548 91.3782L203.455 94.2533L199.582 94.8132L196.741 95.5384L193.84 97.884L192.669 99.4521L192.678 103.44L193.29 106.172L193.478 111.023L194.241 113.894L195.385 117.258L197.033 120.53L197.921 122.889L198.698 126.122L200.789 131.48L203.069 134.22L204.653 135.826L207.455 138.981L211.539 143.391L212.493 143.717L213.929 143.372L215.674 141.636L217.585 140.475L219.026 149.628Z" stroke="black" stroke-width="1.6"/>
<path d="M291.312 81.7339L290.69 88.1392L291.459 93.0405L293.565 102.531L294.139 106.135L294.245 108.886L294.362 111.927" stroke="black" stroke-width="1.06667"/>
<path d="M297.795 110.325C297.795 110.325 299.341 113.795 299.883 115.61C300.555 117.863 301.813 120.22 301.309 122.516C301.176 123.121 300.666 123.595 300.207 124.009C299.678 124.487 299.062 124.944 298.365 125.096C298.365 125.096 296.621 124.277 295.566 123.899C294.48 123.526 293.35 123.12 292.204 123.158C291.607 123.178 291.036 123.431 290.484 123.66C289.686 123.991 289.066 124.769 288.213 124.908C286.896 125.122 285.395 124.914 284.273 124.19C283.744 123.849 283.628 123.097 283.198 122.637C282.545 121.935 281.805 121.28 280.955 120.838C280.142 120.415 279.22 120.221 278.317 120.07C276.768 119.811 274.981 119.078 273.611 119.846C273.12 120.121 273.282 121.04 272.798 121.328C271.636 122.019 270.025 121.766 268.741 121.339C267.796 121.026 267.051 120.257 266.353 119.546C265.865 119.05 266.242 118.362 266.208 117.667C266.171 116.911 265.939 116.573 266.272 115.895C266.739 114.944 266.819 113.789 267.463 112.948C268.644 111.406 272.109 109.433 272.109 109.433" stroke="black" stroke-width="1.06667"/>
<path fill-rule="evenodd" clip-rule="evenodd" d="M303.637 93.2505L306.167 92.4348L308.202 92.0485L311.563 91.5083L313.613 91.5316L315.671 91.7596L319.06 91.9362L321.559 92.9677L323.582 94.9404L326.239 97.4015L328.074 99.7918L327.692 99.1912L327.443 99.2039L323.768 99.5511L317.081 98.8867L310.662 97.1865L308.67 96.0329L305.939 94.2926L303.637 93.2505Z" stroke="black" stroke-width="1.06667"/>
<path fill-rule="evenodd" clip-rule="evenodd" d="M311.706 91.5132L311.152 92.1869L310.983 93.4266L311.03 94.6573L311.284 95.5903L312.004 97.3757L313.914 98.0268L316.263 98.8057L318.219 98.8034L319.121 97.7527L320.206 95.8257L320.723 94.2101L320.583 92.4756L318.601 91.8268L315.334 91.6626L311.706 91.5132ZM315.849 92.3604C316.443 92.3377 316.967 92.9592 316.984 93.4258C317.002 93.8922 316.496 94.5389 315.903 94.5622C315.309 94.5855 314.813 93.9355 314.796 93.4685C314.778 93.0018 315.256 92.3832 315.849 92.3604Z" fill="black"/>
<path d="M281.49 84.98C281.896 87.5281 281.924 88.2449 281.924 88.2449C281.924 88.2449 281.751 89.0719 281.767 89.4815C281.782 89.8911 281.338 91.6517 281.338 91.6517L280.457 95.3776" stroke="black" stroke-width="1.06667"/>
<path d="M301.934 93.7782L307.075 91.6926L311.093 90.667L316.609 90.8888L321.279 91.7234L324.724 94.6358L327.642 98.8739" stroke="black" stroke-width="1.06667"/>
<path d="M267.768 87.8695L263.592 85.8774L261.167 84.1252L257.314 82.5308L254.937 82.0075L250.836 81.9609L246.999 83.4425L243.379 85.2233L240.172 87.0907L239.16 87.4374M239.16 87.4374L244.312 85.4949L246.924 84.1632L251.682 82.6461L254.449 82.6416L257.247 83.4564L260.266 84.6728L263.297 86.1964L267.146 87.6884L268.283 87.9521L266.209 87.3144L261.337 88.5283L257.783 89.3836L255.647 89.7739L252.164 89.806L249.704 89.7986C249.704 89.7986 247.85 89.5626 247.437 89.4761C247.024 89.3895 244.143 89.0907 244.143 89.0907L241.864 88.4609L240.506 87.7956L239.16 87.4374Z" stroke="black" stroke-width="1.06667"/>
<path fill-rule="evenodd" clip-rule="evenodd" d="M254.134 82.4487L251.584 82.7522L248.848 83.5753L247.035 84.3633L247.322 86.5065L247.787 87.924L248.452 89.2317L248.575 89.739L251.034 89.7469L254.21 89.7265L256.261 89.7503L257.476 89.3947L258.956 87.9025L259.42 86.6537L259.763 84.8977L259.325 84.1957L256.306 82.9797L254.134 82.4487ZM254.075 83.5787C254.401 83.5662 254.718 83.6835 254.957 83.905C255.196 84.1264 255.338 84.4338 255.35 84.7596C255.357 84.921 255.331 85.082 255.275 85.2336C255.219 85.3851 255.134 85.5242 255.025 85.6428C254.915 85.7614 254.783 85.8572 254.637 85.9248C254.49 85.9924 254.332 86.0304 254.17 86.0367C254.009 86.0429 253.848 86.0172 253.697 85.9612C253.545 85.9051 253.407 85.8198 253.288 85.71C253.17 85.6002 253.074 85.4682 253.007 85.3214C252.939 85.1747 252.901 85.0161 252.895 84.8547C252.883 84.5289 253 84.2115 253.221 83.9722C253.443 83.7329 253.75 83.5914 254.075 83.5787Z" fill="black"/>
<path d="M306.279 76.7403L308.018 74.0067L310.182 71.6669L311.276 70.8042" stroke="black" stroke-width="0.426666"/>
<path d="M307.613 76.7914L309.45 73.9515L312.708 70.7489L313.499 70.0005" stroke="black" stroke-width="0.426666"/>
<path d="M309.557 76.7162L311.607 74.0731L313.956 71.2134L315.443 69.9253" stroke="black" stroke-width="0.426666"/>
<path d="M313.036 76.5818L314.558 73.549L317.218 70.7798" stroke="black" stroke-width="0.426666"/>
<path d="M311.678 75.9164L314.204 72.332L317.277 69.6494" stroke="black" stroke-width="0.426666"/>
<path d="M314.575 76.6247L316.192 73.383L319.029 69.8892" stroke="black" stroke-width="0.426666"/>
<path d="M316.117 76.77L317.058 74.5801L318.494 71.9608L320.276 70.3536L320.87 69.8179" stroke="black" stroke-width="0.426666"/>
<path d="M317.759 76.8091L318.6 74.7256L320.06 72.7206L321.815 70.3967L322.311 69.9673" stroke="black" stroke-width="0.426666"/>
<path d="M320.297 76.1981L320.93 74.0201C320.93 74.0201 321.021 73.7089 321.414 73.2835C321.808 72.8581 322.764 71.0777 322.764 71.0777L323.547 70.1245" stroke="black" stroke-width="0.426666"/>
<path d="M321.82 75.8315L322.378 74.3742C322.378 74.3742 322.563 73.8543 322.854 73.4328C323.146 73.0114 323.814 71.7549 323.814 71.7549L325.085 70.1675" stroke="black" stroke-width="0.426666"/>
<path d="M324.059 75.4375L324.917 73.7635C324.917 73.7635 325.212 73.4445 325.503 73.023C325.794 72.6015 326.569 71.4435 326.758 71.026C326.947 70.6085 327.427 69.7695 327.427 69.7695" stroke="black" stroke-width="0.426666"/>
<path d="M326.216 75.5593L326.57 74.1099C326.57 74.1099 326.955 73.4796 327.246 73.0582C327.538 72.6367 327.632 72.428 327.923 72.0065C328.214 71.585 328.793 70.6397 328.793 70.6397L329.288 70.2103L329.891 69.8794" stroke="black" stroke-width="0.426666"/>
<path d="M327.644 75.4015C327.644 75.4015 327.916 74.468 328.301 73.8378C328.687 73.2076 328.777 72.8965 329.068 72.475C329.36 72.0535 329.659 71.8369 329.847 71.4194C330.036 71.0018 330.524 70.3677 330.524 70.3677" stroke="black" stroke-width="0.426666"/>
<path d="M329.207 76.0589L329.958 74.2865L330.541 73.4435L331.028 72.8094L332.421 71.73" stroke="black" stroke-width="0.426666"/>
<path d="M330.655 76.4132L331.816 74.625" stroke="black" stroke-width="0.426666"/>
<path d="M332.697 73.5654L331.918 74.6211" stroke="black" stroke-width="0.426666"/>
<path d="M331.293 77.0038L331.954 75.5425L333.252 74.6719" stroke="black" stroke-width="0.426666"/>
<path d="M331.934 77.6966L332.702 76.3338L333.894 75.3647" stroke="black" stroke-width="0.426666"/>
<path d="M333.08 78.1654L333.76 77.2161L335.067 76.5503" stroke="black" stroke-width="0.426666"/>
<path d="M334.024 78.7439L334.918 77.9915L335.417 77.6646" stroke="black" stroke-width="0.426666"/>
<path d="M334.871 79.4293L335.87 78.7754L336.488 78.854" stroke="black" stroke-width="0.426666"/>
<path d="M335.532 80.6341L336.921 79.4523L337.531 79.3262" stroke="black" stroke-width="0.426666"/>
<path d="M336.882 81.0946L337.787 80.6494" stroke="black" stroke-width="0.426666"/>
<path d="M307.451 77.0904L309.164 74.5477L311.292 72.37L312.368 71.5664" stroke="black" stroke-width="0.426666"/>
<path d="M308.761 77.1347L310.57 74.4931L313.774 71.5118L314.551 70.8149" stroke="black" stroke-width="0.426666"/>
<path d="M310.669 77.061L312.686 74.6018L314.997 71.9407L316.46 70.7412" stroke="black" stroke-width="0.426666"/>
<path d="M314.083 76.929L315.584 74.1088L318.2 71.5312" stroke="black" stroke-width="0.426666"/>
<path d="M312.752 76.3135L315.239 72.979L318.26 70.481" stroke="black" stroke-width="0.426666"/>
<path d="M315.594 76.9661L317.187 73.9518L319.978 70.7007" stroke="black" stroke-width="0.426666"/>
<path d="M317.107 77.0976L318.035 75.0616L319.449 72.6257L321.202 71.1292L321.786 70.6304" stroke="black" stroke-width="0.426666"/>
<path d="M318.718 77.131L319.548 75.1939L320.985 73.3287L322.712 71.1664L323.2 70.7666" stroke="black" stroke-width="0.426666"/>
<path d="M321.21 76.5583L321.836 74.5339C321.836 74.5339 321.926 74.2447 322.313 73.8488C322.7 73.4528 323.642 71.7972 323.642 71.7972L324.412 70.9102" stroke="black" stroke-width="0.426666"/>
<path d="M322.706 76.2145L323.257 74.8597C323.257 74.8597 323.439 74.3764 323.726 73.9844C324.013 73.5923 324.672 72.4238 324.672 72.4238L325.922 70.9468" stroke="black" stroke-width="0.426666"/>
<path d="M324.904 75.8439L325.749 74.2872C325.749 74.2872 326.04 73.9903 326.326 73.5982C326.613 73.2061 327.376 72.1289 327.562 71.7407C327.748 71.3525 328.221 70.5723 328.221 70.5723" stroke="black" stroke-width="0.426666"/>
<path d="M327.021 75.9527L327.371 74.6057C327.371 74.6057 327.751 74.0195 328.037 73.6275C328.324 73.2354 328.417 73.0413 328.704 72.6492C328.99 72.2571 329.56 71.3779 329.56 71.3779L330.047 70.9781L330.639 70.6694" stroke="black" stroke-width="0.426666"/>
<path d="M328.423 75.8031C328.423 75.8031 328.691 74.9355 329.071 74.3494C329.451 73.7632 329.54 73.474 329.827 73.0819C330.113 72.6899 330.407 72.488 330.593 72.0998C330.78 71.7116 331.26 71.1216 331.26 71.1216" stroke="black" stroke-width="0.426666"/>
<path d="M329.955 76.4103L330.696 74.7624L331.269 73.9783L331.75 73.3882L333.119 72.3828" stroke="black" stroke-width="0.426666"/>
<path d="M331.376 76.7366L332.519 75.0732" stroke="black" stroke-width="0.426666"/>
<path d="M333.386 74.0869L332.619 75.069" stroke="black" stroke-width="0.426666"/>
<path d="M332 77.2838L332.652 75.9251L333.928 75.1138" stroke="black" stroke-width="0.426666"/>
<path d="M332.629 77.9263L333.384 76.6589L334.557 75.7563" stroke="black" stroke-width="0.426666"/>
<path d="M333.752 78.3592L334.422 77.4761L335.705 76.855" stroke="black" stroke-width="0.426666"/>
<path d="M334.678 78.8946L335.556 78.1939L336.047 77.8892" stroke="black" stroke-width="0.426666"/>
<path d="M335.507 79.5294L336.489 78.9199L337.095 78.9917" stroke="black" stroke-width="0.426666"/>
<path d="M336.154 80.6476L337.519 79.5471L338.118 79.4287" stroke="black" stroke-width="0.426666"/>
<path d="M337.478 81.0726L338.367 80.6572" stroke="black" stroke-width="0.426666"/>
<path d="M274.023 74.9278L273.062 71.6775L271.499 68.7214L270.625 67.4746" stroke="black" stroke-width="0.426666"/>
<path d="M271.445 74.5609L270.724 72.1231L269.791 69.5103L267.677 65.6611" stroke="black" stroke-width="0.426666"/>
<path d="M267.788 72.9535L267.509 71.2302L266.087 66.8101L264.323 63.9521" stroke="black" stroke-width="0.426666"/>
<path d="M265.407 72.3968L264.915 70.4984L264.521 68.5055L262.565 65.9278L260.943 63.9771" stroke="black" stroke-width="0.426666"/>
<path d="M262.534 72.3136L262.357 70.5868L261.444 68.4292L260.235 66.5555L258.601 64.3315" stroke="black" stroke-width="0.426666"/>
<path d="M259.724 71.3154L259.248 69.7813L258.767 68.1561L257.763 66.2753L256.248 64.4121" stroke="black" stroke-width="0.426666"/>
<path d="M257.142 70.8571L256.005 68.2513C256.005 68.2513 255.56 67.4457 255.339 67.0885C255.119 66.7312 254.044 65.5825 254.044 65.5825L252.997 65.0713" stroke="black" stroke-width="0.426666"/>
<path d="M253.506 69.7053L253.041 68.4444L252.49 67.5513L251.108 66.4131L249.837 65.4536" stroke="black" stroke-width="0.426666"/>
<path d="M250.538 69.8073L249.975 68.641L249.09 67.1209L247.622 66.3506" stroke="black" stroke-width="0.426666"/>
<path d="M248.185 69.8882L247.425 68.9111L246.992 68.3787L245.709 67.146" stroke="black" stroke-width="0.426666"/>
<path d="M245.237 70.4456L244.037 68.754L243.293 68.1411" stroke="black" stroke-width="0.426666"/>
<path d="M243.341 71.6053L242.483 70.7227L241.739 70.1099L240.676 69.2344" stroke="black" stroke-width="0.426666"/>
<path d="M241.975 73.2026L241.216 72.2255L239.724 70.9087" stroke="black" stroke-width="0.426666"/>
<path d="M239.638 73.648L238.784 72.8566L237.831 72.1597" stroke="black" stroke-width="0.426666"/>
<path d="M238.127 74.2474L237.162 73.2773L236.324 72.8501" stroke="black" stroke-width="0.426666"/>
<path d="M236.703 74.7202L235.804 74.0417L234.994 73.7471" stroke="black" stroke-width="0.426666"/>
<path d="M235.645 75.4015L234.671 74.6611L234.156 74.4854" stroke="black" stroke-width="0.426666"/>
<path d="M234.446 76.1521L233.628 75.6643L232.821 75.4341" stroke="black" stroke-width="0.426666"/>
<path d="M272.599 75.4918L271.66 72.3524L270.132 69.4975L269.277 68.2935" stroke="black" stroke-width="0.426666"/>
<path d="M270.076 75.138L269.372 72.7835L268.46 70.2598L266.392 66.5425" stroke="black" stroke-width="0.426666"/>
<path d="M266.498 73.5874L266.225 71.9228L264.835 67.6535L263.111 64.8936" stroke="black" stroke-width="0.426666"/>
<path d="M264.167 73.0505L263.686 71.2169L263.302 69.2918L261.388 66.8027L259.801 64.9189" stroke="black" stroke-width="0.426666"/>
<path d="M261.355 72.9711L261.182 71.3031L260.289 69.2194L259.107 67.4098L257.509 65.2622" stroke="black" stroke-width="0.426666"/>
<path d="M258.604 72.0084L258.139 70.5266L257.669 68.9569L256.688 67.1405L255.205 65.3413" stroke="black" stroke-width="0.426666"/>
<path d="M256.077 71.5668L254.965 69.05C254.965 69.05 254.53 68.2721 254.314 67.9271C254.099 67.5821 253.047 66.4729 253.047 66.4729L252.023 65.9795" stroke="black" stroke-width="0.426666"/>
<path d="M252.518 70.4556L252.064 69.2378L251.525 68.3753L250.173 67.2765L248.929 66.3501" stroke="black" stroke-width="0.426666"/>
<path d="M249.613 70.5557L249.063 69.4293L248.196 67.9613L246.76 67.2178" stroke="black" stroke-width="0.426666"/>
<path d="M247.309 70.6352L246.566 69.6916L246.143 69.1776L244.887 67.9873" stroke="black" stroke-width="0.426666"/>
<path d="M244.424 71.175L243.249 69.5414L242.521 68.9497" stroke="black" stroke-width="0.426666"/>
<path d="M242.566 72.296L241.727 71.4438L240.999 70.8521L239.959 70.0068" stroke="black" stroke-width="0.426666"/>
<path d="M241.229 73.8394L240.486 72.8959L239.026 71.6245" stroke="black" stroke-width="0.426666"/>
<path d="M238.94 74.2709L238.105 73.5068L237.173 72.834" stroke="black" stroke-width="0.426666"/>
<path d="M237.461 74.8505L236.517 73.9138L235.697 73.5015" stroke="black" stroke-width="0.426666"/>
<path d="M236.066 75.3074L235.187 74.6524L234.394 74.3682" stroke="black" stroke-width="0.426666"/>
<path d="M235.031 75.9664L234.078 75.2516L233.574 75.082" stroke="black" stroke-width="0.426666"/>
<path d="M233.856 76.6919L233.056 76.2211L232.266 75.999" stroke="black" stroke-width="0.426666"/>
<path fill-rule="evenodd" clip-rule="evenodd" d="M282.811 143.076L285.53 141.842L287.99 141.85L291.186 142.342L294.413 143.652L297.452 145.381L299.74 146.514L302.131 147.148L305.119 147.546L309.821 147.261L311.045 147.111L306.008 149.357L302.12 149.508L296.902 149.709L288.751 148.281L282.981 147.479L280.548 148.066L278.857 146.818L271.344 145.98L263.008 145.072L256.215 144.309L251.756 142.943L257.437 142.642L264.799 141.476L270.942 140.182L276.939 140.177L279.867 141.139L282.811 143.076Z" stroke="black" stroke-width="1.08711"/>
<path d="M310.837 147.017L306.985 150.755L300.901 152.426L294.97 152.758L290.605 153.85L285.265 153.543L282.557 152.418L277.331 152.415L272.825 152.486C272.825 152.486 267.467 150.796 267.053 150.709C266.64 150.622 261.347 148.879 261.347 148.879L258.14 147.581L254.413 145.404L251.138 142.865" stroke="black" stroke-width="1.08711"/>
<path d="M265.326 146.726L265.602 148.561" stroke="black" stroke-width="0.217422"/>
<path d="M263.992 146.675L264.15 148.104" stroke="black" stroke-width="0.217422"/>
<path d="M262.449 146.529L262.501 147.86" stroke="black" stroke-width="0.217422"/>
<path d="M260.793 146.081L261.033 146.994" stroke="black" stroke-width="0.217422"/>
<path d="M259.663 146.021L259.797 146.837" stroke="black" stroke-width="0.217422"/>
<path d="M258.624 145.651L258.656 146.471" stroke="black" stroke-width="0.217422"/>
<path d="M293.659 150.655L292.982 151.706" stroke="black" stroke-width="0.217422"/>
<path d="M294.989 150.604L294.415 151.651" stroke="black" stroke-width="0.217422"/>
<path d="M296.725 150.434L296.245 151.273" stroke="black" stroke-width="0.217422"/>
<path d="M298.464 150.367L297.783 151.316" stroke="black" stroke-width="0.217422"/>
<path d="M299.59 150.323L299.007 151.166" stroke="black" stroke-width="0.217422"/>
<path d="M280.312 104.185L278.648 106.134L278.699 107.438L279.061 109.309L279.389 110.311" stroke="black" stroke-width="1.06667"/>
<path fill-rule="evenodd" clip-rule="evenodd" d="M273.641 120.561L276.329 121.175L277.852 120.808L279.58 120.434L278.124 119.875L276.467 119.426L275.026 119.277L274.318 119.509L273.622 120.049L273.641 120.561Z" fill="black" stroke="black" stroke-width="1.06667"/>
<path fill-rule="evenodd" clip-rule="evenodd" d="M291.08 123.681L293.261 124.417L294.701 124.567L296.202 124.248L295.803 123.909L294.756 123.334L293.622 123.173L292.591 123.007L291.08 123.681Z" fill="black" stroke="black" stroke-width="1.06667"/>
<path fill-rule="evenodd" clip-rule="evenodd" d="M226.824 51.9189L224.196 58.1736L222.489 61.7264L221.348 64.0266L220.018 66.7444L219.948 70.2338L219.855 78.4415L219.745 80.907L219.848 83.5693L217.558 87.965L216.835 90.4542L215.529 93.7864L214.483 98.5442L214.476 103.672L217.335 114.022L217.705 118.314L218.525 123.615L219.731 133.619L218.494 135.871L217.36 140.266L218.333 135.442L216.005 127.701L215.899 124.949L215.414 119.892L214.239 115.731L213.275 113.303L211.722 110.608L210.297 107.472L208.899 105.061L207.14 100.778L205.414 97.364L203.5 94.0977L202.893 87.6605L202.081 83.8974L202.266 80.7112L206.777 76.7937L207.711 75.7833C207.711 75.7833 208.555 73.7509 208.695 73.3866C208.835 73.0223 209.918 70.5704 209.91 70.3656C209.903 70.1608 212.648 62.9786 212.648 62.9786L214.391 60.3474L216.695 57.6433L223.032 53.2449L226.104 51.8442L226.824 51.9189Z" fill="#333333"/>
<path fill-rule="evenodd" clip-rule="evenodd" d="M211.974 64.751L209.895 59.3418L209.374 54.4996L209.641 52.9665L209.937 50.3082L211.903 43.0533L214.624 37.5095L215.819 35.6141L218.978 31.1048L222.486 28.1411L227.278 25.1867L231.65 22.9666L235.032 21.6565L242.251 18.8648L246.456 17.6254L250.816 16.4313L256.969 15.2191L262.32 14.4482L272.579 13.4362L281.182 13.3086L290.116 13.7835L299.081 15.0777L307.842 16.3797L323.667 20.1774L332.929 23.5242L335.421 24.4635L344.087 29.9675L350.934 34.7651L354.493 38.2813L356.983 41.0463L359.294 44.5731L362.068 48.8055L363.743 51.5065L365.849 56.845L365.949 61.8665L364.995 66.8125L364.422 68.9755L362.786 73.5772L362.003 74.8492L360.397 76.6073L357.891 79.349L354.376 83.6164L350.981 80.2775L348.958 76.6937L343.465 69.5459L337.503 61.5098L331.752 55.2059L321.315 46.8292L314.568 41.9625L306.217 37.9783L297.928 35.6325L290.915 34.468L279.022 34.3126L268.427 35.9529L257.046 38.444L246.728 41.9195L235.835 46.4428L226.146 51.8485L222.57 53.5658L218.673 56.2704L216.183 58.2443L214.243 60.5712L212.708 62.8885L211.974 64.751Z" fill="black" stroke="black" stroke-width="1.06667"/>
<path fill-rule="evenodd" clip-rule="evenodd" d="M338.29 62.5713L340.065 71.5629L341.791 78.7476L341.814 83.0976L340.646 86.6234L339.968 91.5807L339.19 97.702L337.917 106.018L336.738 113.025L336.851 119.692L337.799 125.272L341.359 117.318L342.828 113.934L343.981 108.689L345.035 104.65L346.812 101.12L347.287 89.7023L348.26 84.8787L349.63 77.8849L345.62 72.3504L341.215 66.5135L338.29 62.5713Z" fill="#333333"/>
<path d="M271.754 171.728L279.855 171.402L287.863 174.1L288 173.889" stroke="black" stroke-width="1.08711"/>
<path d="M199.921 99.6782L203.864 100.961L205.6 103.458L208.651 110.46L208.832 112.504L209.148 115.363L209.542 120.27L213.575 125.009L214.135 128.078L213.855 130.517L212.719 131.806L210.529 131.451L209.536 130.663" stroke="black" stroke-width="1.06667"/>
<path d="M206.744 106.398L206.083 108.159L206.197 109.795L206.211 110.154" stroke="black" stroke-width="1.06667"/>
<path d="M199.705 106.225L200.509 111.116L200.493 112.04C200.493 112.04 200.245 113.588 200.253 113.793C200.261 113.997 200.506 116.347 200.618 116.599C200.73 116.851 201.483 121.744 201.483 121.744L203.105 123.938L204.699 125.414" stroke="black" stroke-width="1.06667"/>
<path d="M448.26 596.373L447.748 593.709L447.85 592.684C447.85 592.684 448.771 590.737 449.181 590.327C449.591 589.917 448.976 589.712 448.874 589.302C448.771 588.893 448.464 586.946 448.464 586.946L448.26 586.228V585.203C448.26 585.203 449.079 583.974 449.232 583.769C449.386 583.564 449.437 583.41 449.642 583.154C449.847 582.898 450.103 582.59 450.103 582.59L450.512 582.078L451.024 581.924L452.956 581.302L454.259 581.012L452.377 580.723L450.639 579.998L449.48 578.983L448.322 577.389L448.032 576.375L448.467 573.042L451.363 568.984L453.68 566.086L454.259 562.607L452.521 559.129L450.784 555.072L449.046 552.753L450.204 549.275L452.521 543.478L453.101 539.42M261.019 536.509L260.807 555.588L259.578 571.779C259.578 571.779 258.759 577.518 258.964 578.952C259.169 580.387 259.783 589.405 259.783 589.405L260.602 596.373M273.914 280.444L271.661 291.409L269.408 302.681L268.589 310.264C268.589 310.264 267.77 319.692 267.77 321.331V341.826V354.123L267.156 377.282L267.36 389.579L266.132 403.106L264.408 429.422M273.914 280.444L273.504 279.112L272.788 275.525L271.456 272.246L269.511 268.352L266.439 264.355L263.879 261.896L261.319 259.641L257.837 257.797L255.277 256.055L249.748 254.005L243.194 250.931L240.225 249.701L235.514 247.14L232.75 244.988L231.418 242.016L228.961 238.942L226.708 235.765L224.762 233.51L223.022 230.949L220.769 228.797L219.13 227.464L217.185 224.698L214.625 220.291L214.01 216.192L214.727 213.835L215.444 211.581L216.366 208.302L216.681 205.097M273.914 280.444L277.396 278.497L278.215 276.755L280.468 274.808L282.413 273.168L283.949 270.914L285.075 267.737L285.895 263.638C285.895 263.638 286.919 259.437 287.021 259.027C287.123 258.617 287.84 255.133 288.045 254.62C288.25 254.108 289.171 251.546 289.171 251.546L290.298 248.369L292.346 243.963L296.442 238.532L299.309 235.662L307.808 229.924L310.163 227.772L313.645 223.878L316.819 220.394L319.789 215.68L323.475 209.839L324.909 204.613L325.011 199.796L323.665 196.685M196.325 496.855L199.024 499.965L203.477 504.023L207.025 508.117L211.442 512.573L213.867 514.602L216.474 516.631L219.769 518.914L219.847 520.849L220.154 524.026L221.076 525.768L222.1 527.305L223.534 528.842L225.274 530.687L227.834 532.429L230.394 533.454L234.593 534.376L243.092 535.401L253.946 536.425L262.65 536.528H272.071L278.932 536.118L285.588 535.401L290.81 533.966L294.291 532.224L296.851 530.277L299.002 527.92L300.538 525.768L301.255 522.386L302.688 433.951L301.971 432.516L301.152 431.901L298.387 430.569L292.448 430.364L283.54 430.057L268.896 429.544L250.055 429.032L232.852 429.135L224.046 429.339L222.1 430.364L220.974 431.389L220.564 432.926L220.462 441.944L220.257 444.813L219.335 445.326H215.546L211.502 445.223L206.484 445.172L202.798 445.992L198.855 447.836L197.319 448.861L196.014 450.219M184.433 472.159L184.776 476.58L185.441 481.14L186.079 483.835M204.764 458.927L207.764 457.52L211.041 457.725L214.625 458.75L216.878 461.004L218.926 463.361L220.052 465.718L220.564 470.329L219.95 498.51L218.926 500.149L217.39 500.252L215.342 499.535L212.577 497.895L209.403 495.846L205.819 492.669L203.156 489.8L199.777 485.906L197.934 483.344L196.262 479.297M57.3684 470.367L57.1063 470.564L57.9542 473.506L57.2374 474.736L55.2918 478.835L54.1655 481.704L53.3462 486.418V491.439C53.3462 491.439 53.2438 499.74 53.3462 500.252C53.4486 500.764 54.3702 506.708 54.3702 506.708L55.9062 516.443L57.2374 522.489L57.9542 527.305L58.4662 530.892L58.7734 534.888L59.2854 539.705L60.1046 542.984L62.767 545.648L65.2245 546.878L69.6277 546.263C69.6277 546.263 72.5973 545.238 73.2117 544.931C73.8261 544.623 78.1268 541.549 78.1268 541.549L82.8372 538.065L85.2948 535.811L89.0835 532.531L94.6319 530.347M97.5933 503.083L95.1251 512.344L93.8963 517.468L94.3059 527.305L94.5739 530.171L94.1851 522.441L98.837 528.535L97.0707 533.556C97.0707 533.556 94.1011 539.602 93.8963 540.627C93.6915 541.652 93.4867 545.751 92.8723 546.98C92.2579 548.21 89.1859 555.178 89.1859 555.178L85.09 562.966L82.8395 570.14M176.064 466.014L168.793 461.606L158.445 454.272L167.105 462.528L172.66 470.167L173.46 471.303L173.921 472.379L175.457 474.428L177.096 475.658L178.836 477.451L180.321 478.784L184.724 482.575L187.643 485.291L190.203 488.211L192.967 491.08L195.937 495.333L196.551 497.741L196.347 499.125L195.374 500.201L194.145 501.892C194.145 501.892 193.223 503.377 193.121 503.582C193.019 503.787 191.739 505.529 191.739 505.529L189.793 507.733L187.745 508.655L185.134 509.116C185.134 509.116 182.369 509.577 181.908 509.628C181.448 509.679 179.144 509.116 179.144 509.116L176.481 507.425L173.46 504.761L170.747 502.199C170.747 502.199 167.47 499.278 167.265 499.074C167.06 498.869 164.142 496.46 164.142 496.46C164.142 496.46 160.661 493.54 160.302 493.284C159.944 493.028 150.984 484.778 150.984 484.778L133.73 471.457L149.345 484.522L152.702 487.441L156.001 490.773L159.411 493.711L161.766 495.658L168.163 500.704L171.559 504.01L173.599 506.264L174.969 508.365L175.918 511.063L176.174 511.832V512.344L175.508 513.369L174.689 514.035L172.744 514.957L171.054 515.726L169.006 516.187L167.419 516.238C167.419 516.238 165.832 516.084 165.576 516.033C165.32 515.982 162.35 515.367 162.35 515.367L159.432 514.086L156.821 512.19L148.577 507.322L144.789 505.068L142.587 504.043C142.587 504.043 139.106 502.506 138.901 502.455C138.696 502.404 118.062 488.57 118.062 488.57L135.726 501.584L137.211 502.404L141.205 504.402L143.509 505.529L146.376 506.861L149.141 508.347L151.496 509.833L154.107 511.216L159.022 514.547L161.838 516.75L162.145 517.621L161.992 518.646L160.661 520.388L158.971 522.796L157.025 525.153L155.489 525.665L153.746 525.548L149.291 527.393L147.294 527.342L143.352 526.266L140.843 524.78L136.031 522.731L132.344 520.989L121.676 515.626L115.02 513.064L110.976 511.577L106.287 509.68L101.986 507.323L97.8899 503.429L87.9209 494.349L79.7336 481.813M32.2704 503.769L37.4837 497.683L42.1177 491.596L48.1999 481.162L56.8888 470.727L61.5228 467.249L67.3154 459.424L71.6598 451.018L76.0043 444.062L84.6931 435.077L95.699 429.86L106.705 426.961L120.028 426.092L131.323 425.222L144.357 427.251L159.417 429.28L167.796 435.733L172.14 439.211L177.064 442.109L186.622 445.588L195.311 449.645L203.131 456.022L208.344 465.297L208.944 471.307L204.599 478.263L200.255 480.002L195.331 479.133L191.856 477.104L186.063 473.916L182.298 469.858L177.085 466.96L175.842 465.895M289.026 265.664L294.674 258.563L297.28 252.187L298.439 249.578L300.611 244.361L303.363 241.607L306.114 240.158L308.866 238.854L309.734 236.825L311.327 234.506L313.644 233.637L315.817 231.898L317.12 228.854L320.596 222.478L325.519 228.999L326.533 229.869L328.995 233.492L331.891 235.955L334.208 237.26L338.842 241.028L341.594 244.506C341.594 244.506 343.766 248.419 343.911 248.998C344.055 249.578 345.793 254.36 345.793 254.36L345.938 258.708L345.793 262.186V265.229H349.848L351.296 262.621L353.758 260.157L355.641 257.694L356.365 255.955L357.958 252.187L357.813 248.998V247.259C357.813 246.535 357.958 244.651 357.958 244.651L357.378 240.448L356.509 236.535L355.641 233.347L355.826 229.257M188.414 244.148L187.796 251.956L187.592 259.129L188.923 271.836L192.916 285.363L195.579 289.052L198.139 290.281L198.855 289.769C198.855 289.769 199.47 287.207 199.572 286.695C199.675 286.182 199.777 283.825 199.777 283.211C199.777 282.596 199.675 278.599 199.982 278.189C200.289 277.78 201.62 272.758 201.62 272.758L202.644 270.504L205.409 266.815L207.969 263.945L211.041 259.232L212.372 255.645L214.83 251.956L215.444 248.267L217.39 244.885L220.359 243.655L222.612 244.578L224.762 247.549L228.756 250.316L233.569 252.263L238.381 253.903L244.833 256.465L256.059 258.666M322.622 170.886L322.246 180.019L321.837 186.27L322.861 194.775L323.68 196.722L330.746 197.234L335.353 201.333L338.323 203.895L343.238 208.404L347.846 216.397L354.4 225.21L355.526 226.542L354.912 228.694L361.158 233.306L364.742 238.019L369.555 240.581L376.211 244.885L381.331 247.652L391.24 254.204L406.451 263.072L411.284 266.761L417.121 268.515L421.293 269.698L426.24 271.73L431.439 274.172L434.613 274.889L440.041 277.041L443.215 279.091L449.564 283.599C454.384 288.409 460.064 291.813 464.616 296.921L467.229 303.239L473.373 310.896L477.469 320.528L478.083 327.497L480.69 333.994L480.038 337.473L480.183 341.748L480.762 343.849L481.197 346.458L482.283 348.776L483.948 352.472L485.252 357.906L486.048 364.138L487.714 368.703L488.003 372.978L488.8 375.08L489.017 378.703L490.175 380.876L490.031 384.644L491.406 388.775L491.696 394.861L492.275 397.397L492.71 401.093L492.846 406.897L493.767 411.663L494.638 413.968L494.33 418.016L493.614 423.396V427.085L494.33 432.209L494.689 438.05L495.533 444.207L497.126 453.772L497.706 457.685L497.416 462.322L500.218 475.043L504.314 502.711L506.158 513.574L506.977 521.567L507.591 531.199L506.362 542.267L506.772 545.341L508.41 560.712L509.829 568.231L510.207 574.19C512.517 582.469 509.31 579.127 509.151 582.466L505.946 589.35L506.614 596.373H93.8986L94.7178 584.896L92.6698 578.338L89.3203 570.182L86.9229 559.284L84.6827 563.171L83.0443 570.55L75.717 576.665L70.9381 581.302L67.1729 581.737L63.1181 584.056L56.167 583.911L49.94 587.099L46.7541 586.374L43.713 584.201L41.5408 581.592L39.6582 580.867L35.3263 579.977L33.8927 579.362L32.0495 578.85L30.8208 577.21L28.4656 574.546L27.4416 574.444L25.5984 573.624L24.6768 571.677L23.2432 570.345L21.1952 567.168L19.7616 566.246L18.6353 566.143L14.7441 565.938L12.2865 565.118L9.00975 563.684C9.00975 563.684 6.96175 561.224 6.85935 560.814C6.75695 560.405 6.04017 557.843 6.04017 557.843L3.48018 551.489L3.37779 548.415L2.66097 546.775L1.02258 545.033L1.53459 541.857L1.73941 540.627L1.22739 539.397V537.245L2.66097 535.606L5.11857 533.249L6.55215 529.15L8.39535 527.408L12.2865 523.514L12.1841 519.62L14.0273 516.34L16.9969 510.192L19.864 505.171L21.912 502.199C21.912 502.199 22.6288 499.33 22.6288 498.715C22.6288 498.1 22.936 494.821 23.1408 494.206C23.3456 493.591 24.472 490.209 24.472 490.209L26.6224 487.033L28.2608 484.266L29.3872 481.602C29.3872 481.602 29.3872 479.655 29.592 478.63C29.7968 477.605 30.0016 474.326 30.0016 474.326L30.7183 468.895L31.8448 465.513L33.2783 462.439L35.1215 459.365L36.5551 456.598C36.5551 456.598 38.2959 452.396 38.2959 451.986C38.2959 451.576 38.5007 449.937 38.5007 449.937L38.6031 446.35L39.3199 444.198L41.4703 442.251L42.4943 439.894L43.3134 437.947L44.4398 435.898L45.8734 430.672L47.2046 409.05L50.0718 401.057L51.915 395.728V390.809L53.3486 385.89L55.3966 381.791L57.6493 376.258L58.4685 370.929L59.0829 366.215L63.7933 356.378L65.6365 353.508L67.8892 349.409L70.3468 344.695L72.3948 341.416L73.0092 336.907L74.6476 331.374L75.8764 326.865L78.9483 319.692L81.6107 313.543L86.5259 305.345L88.1643 301.041L90.4171 297.557L93.6938 295.713L97.7898 292.433L99.8378 289.769L107.825 284.03L115.812 278.292L124.209 273.168L141.617 269.479L158.82 265.38L164.759 261.486L171.517 256.567L180.938 250.214L188.515 244.065L187.901 235.867L190.359 233.203L192.816 230.744L195.479 226.235L198.551 219.062L200.599 213.118L202.647 211.683L204.49 210.659L206.128 207.789L209.2 205.33L213.91 204.305L216.778 205.125L219.645 201.641L219.44 195.287L220.669 185.45L220.054 172.333L219.481 163.821L219.297 151.318L220.583 159.484L220.993 163.025L223.627 167.836L224.951 170.248L227.057 172.762L230.147 175.396L232.648 177.55L235.81 181.35L237.09 182.795L240.336 185.123L244.704 188.256L245.934 188.899L250.549 190.618L253.015 191.424L257.941 192.485L262.536 193.416L267.224 194.276L271.864 195.04L276.286 195.807L280.551 196.605L284.545 197.046L288.769 197.375L292.284 196.667L296.697 195.779L298.156 195.458L302.301 193.504L305.617 191.873L309.226 189.006L312.305 186.561L313.531 185.587L314.23 184.849L315.745 182.637L317.829 179.594L319.317 177.423L320.884 174.507L322.077 172.025L322.622 170.886Z" stroke="black" stroke-width="1.92"/>
<path d="M245.078 535.008C230.713 533.54 226.131 531.756 222.365 526.164C221.341 524.642 220.503 522.24 220.503 520.826C220.503 518.793 219.946 517.928 217.84 516.69C214.239 514.573 198.806 498.873 196.178 494.652C195.015 492.785 192.325 489.4 190.2 487.129C187.114 483.833 186.216 482.206 185.745 479.061C185.42 476.895 185.285 474.991 185.446 474.83C186.193 474.082 196.103 480.549 196.728 482.192C199.211 488.727 213.523 501.043 218.024 500.518L220.093 500.276L220.808 485.774C221.682 468.029 221.304 464.996 217.694 460.816C215.131 457.848 208.591 456.596 208.591 456.596C207.164 456.922 206.081 458.088 205.301 457.901C204.252 457.65 204.291 455.306 201.25 453.67C198.587 452.237 197.375 449.792 197.588 449.598C200.077 447.338 204.573 446.173 212.311 445.783L220.912 445.349L221.154 438.83C221.288 435.244 221.756 431.877 222.195 431.347C222.689 430.753 226.828 430.223 233.012 429.963C246.764 429.384 296.565 430.89 299.35 431.969L301.603 432.841L301.512 455.491C301.462 467.949 301.185 488.671 300.897 501.54C300.375 524.896 300.37 524.944 298.326 527.543C295.396 531.267 289.123 534.156 281.94 535.089C274.595 536.043 254.78 535.999 245.078 535.008Z" fill="black"/>
<path d="M148.708 441.701L149.887 436.973L151.935 434.923L156.54 433.574" stroke="black" stroke-width="1.28"/>
<path d="M130.924 458.964L131.948 455.07L133.996 453.02L135.634 451.381H137.682" stroke="black" stroke-width="1.28"/>
<path d="M114.437 476.18L114.745 473.516L116.383 471.056L119.25 469.007L122.424 468.904" stroke="black" stroke-width="1.28"/>
<path d="M100.818 496.47L101.637 493.191L103.276 490.731L105.938 489.399" stroke="black" stroke-width="1.28"/>
<path d="M272.864 74.9278L271.903 71.6775L270.34 68.7214L269.466 67.4746" stroke="black" stroke-width="0.426666"/>
<path d="M270.286 74.5609L269.566 72.1231L268.632 69.5103L266.518 65.6611" stroke="black" stroke-width="0.426666"/>
<path d="M266.63 72.9535L266.35 71.2302L264.929 66.8101L263.165 63.9521" stroke="black" stroke-width="0.426666"/>
<path d="M264.249 72.3968L263.757 70.4984L263.363 68.5055L261.406 65.9278L259.784 63.9771" stroke="black" stroke-width="0.426666"/>
<path d="M261.376 72.3136L261.198 70.5868L260.285 68.4292L259.076 66.5555L257.443 64.3315" stroke="black" stroke-width="0.426666"/>
<path d="M258.566 71.3154L258.089 69.7813L257.609 68.1561L256.605 66.2753L255.089 64.4121" stroke="black" stroke-width="0.426666"/>
<path d="M255.984 70.8571L254.846 68.2513C254.846 68.2513 254.401 67.4457 254.181 67.0885C253.96 66.7312 252.886 65.5825 252.886 65.5825L251.839 65.0713" stroke="black" stroke-width="0.426666"/>
<path d="M252.347 69.7053L251.883 68.4444L251.332 67.5513L249.95 66.4131L248.679 65.4536" stroke="black" stroke-width="0.426666"/>
<path d="M249.38 69.8073L248.817 68.641L247.931 67.1209L246.463 66.3506" stroke="black" stroke-width="0.426666"/>
<path d="M247.027 69.8882L246.267 68.9111L245.834 68.3787L244.551 67.146" stroke="black" stroke-width="0.426666"/>
<path d="M244.079 70.4456L242.878 68.754L242.134 68.1411" stroke="black" stroke-width="0.426666"/>
<path d="M242.182 71.6053L241.324 70.7227L240.58 70.1099L239.517 69.2344" stroke="black" stroke-width="0.426666"/>
<path d="M240.817 73.2026L240.057 72.2255L238.565 70.9087" stroke="black" stroke-width="0.426666"/>
<path d="M238.479 73.648L237.625 72.8566L236.673 72.1597" stroke="black" stroke-width="0.426666"/>
<path d="M236.968 74.2474L236.004 73.2773L235.165 72.8501" stroke="black" stroke-width="0.426666"/>
<path d="M235.544 74.7202L234.645 74.0417L233.835 73.7471" stroke="black" stroke-width="0.426666"/>
<path d="M234.487 75.4015L233.513 74.6611L232.998 74.4854" stroke="black" stroke-width="0.426666"/>
<path d="M233.287 76.1521L232.469 75.6643L231.662 75.4341" stroke="black" stroke-width="0.426666"/>
<path d="M271.441 75.4918L270.502 72.3524L268.973 69.4975L268.119 68.2935" stroke="black" stroke-width="0.426666"/>
<path d="M268.917 75.138L268.213 72.7835L267.301 70.2598L265.234 66.5425" stroke="black" stroke-width="0.426666"/>
<path d="M265.339 73.5874L265.066 71.9228L263.677 67.6535L261.952 64.8936" stroke="black" stroke-width="0.426666"/>
<path d="M263.008 73.0505L262.528 71.2169L262.143 69.2918L260.229 66.8027L258.643 64.9189" stroke="black" stroke-width="0.426666"/>
<path d="M260.196 72.9711L260.023 71.3031L259.13 69.2194L257.948 67.4098L256.35 65.2622" stroke="black" stroke-width="0.426666"/>
<path d="M257.446 72.0084L256.98 70.5266L256.511 68.9569L255.529 67.1405L254.047 65.3413" stroke="black" stroke-width="0.426666"/>
<path d="M254.919 71.5668L253.806 69.05C253.806 69.05 253.371 68.2721 253.156 67.9271C252.94 67.5821 251.889 66.4729 251.889 66.4729L250.864 65.9795" stroke="black" stroke-width="0.426666"/>
<path d="M251.359 70.4556L250.905 69.2378L250.366 68.3753L249.014 67.2765L247.77 66.3501" stroke="black" stroke-width="0.426666"/>
<path d="M248.455 70.5557L247.904 69.4293L247.038 67.9613L245.601 67.2178" stroke="black" stroke-width="0.426666"/>
<path d="M246.151 70.6352L245.408 69.6916L244.984 69.1776L243.729 67.9873" stroke="black" stroke-width="0.426666"/>
<path d="M243.265 71.175L242.091 69.5414L241.363 68.9497" stroke="black" stroke-width="0.426666"/>
<path d="M241.408 72.296L240.568 71.4438L239.84 70.8521L238.8 70.0068" stroke="black" stroke-width="0.426666"/>
<path d="M240.07 73.8394L239.327 72.8959L237.868 71.6245" stroke="black" stroke-width="0.426666"/>
<path d="M237.782 74.2709L236.946 73.5068L236.014 72.834" stroke="black" stroke-width="0.426666"/>
<path d="M236.302 74.8505L235.359 73.9138L234.538 73.5015" stroke="black" stroke-width="0.426666"/>
<path d="M234.908 75.3074L234.028 74.6524L233.236 74.3682" stroke="black" stroke-width="0.426666"/>
<path d="M233.872 75.9664L232.919 75.2516L232.415 75.082" stroke="black" stroke-width="0.426666"/>
<path d="M232.698 76.6919L231.897 76.2211L231.107 75.999" stroke="black" stroke-width="0.426666"/>
<path fill-rule="evenodd" clip-rule="evenodd" d="M200.015 99.7085L199.921 99.6777L198.597 100.017L198.293 100.667L203.345 102.014L204.421 101.761L203.833 100.951L200.015 99.7085Z" fill="black" stroke="black" stroke-width="1.06667"/>
</g>
<defs>
<clipPath id="clip0_500_356">
<rect width="512" height="597.333" fill="white"/>
</clipPath>
</defs>
</svg>
