<svg width="800" height="360" viewBox="0 0 800 360" fill="none" xmlns="http://www.w3.org/2000/svg">
<path fill-rule="evenodd" clip-rule="evenodd" d="M45 360H741C740.983 359.967 740.966 359.933 740.948 359.898C737.723 353.655 720.788 339.054 709.368 332.67C702.517 328.84 702.419 328.535 707.215 325.953C708.982 325.002 709.614 325.091 711.124 326.507C712.776 328.056 713.125 328.076 715.353 326.752C717.392 325.539 718.213 325.499 720.478 326.499C723.665 327.907 727.241 328.129 727.241 326.919C727.241 324.856 718.348 318.274 708.27 312.878C699.436 308.147 696.276 305.873 691.804 301.028C685.636 294.346 675.594 280.088 676.035 278.639C676.191 278.124 677.787 276.873 679.581 275.86C682.738 274.076 682.952 274.07 686.203 275.676C690.319 277.709 691.962 276.654 690.358 273.006C689.31 270.624 689.331 270.605 692.46 271.213C696.4 271.979 696.448 271.01 692.685 266.685C689.253 262.742 671.52 252.905 667.827 252.894C666.468 252.891 664.137 252.051 662.646 251.029C661.156 250.006 659.123 249.165 658.129 249.158C655.17 249.139 649.466 247.242 649.946 246.437C650.191 246.026 653.149 245.433 656.519 245.119C659.889 244.805 665.033 243.523 667.949 242.27C672.125 240.477 673.852 240.171 676.074 240.831C677.626 241.292 679.407 241.669 680.031 241.669C682.145 241.669 681.182 238.954 678.23 236.593C668.866 229.103 663.842 225.662 659.086 223.483C652.146 220.303 651.027 219.338 652.356 217.679C653.722 215.975 656.947 216.065 662.782 217.97C668.117 219.713 668.994 219.427 668.025 216.263C667.242 213.706 658.105 204.232 656.422 204.232C655.776 204.232 652.723 202.541 649.637 200.475C645.451 197.672 643.596 195.723 642.331 192.795C641.399 190.637 640.835 188.537 641.079 188.129C641.885 186.778 647.599 187.355 652.257 189.257C654.778 190.287 657.686 191.129 658.718 191.129C660.546 191.129 660.554 191.061 659.019 188.555C656.434 184.332 652.991 180.854 647.94 177.362C642.477 173.585 637.951 168.191 635.148 162.115C634.079 159.799 630.849 155.221 627.972 151.942C621.832 144.948 620.183 144.864 616.214 151.348C614.856 153.567 611.242 157.936 608.182 161.056L602.62 166.73L599.206 165.471C592.608 163.037 579.983 156.61 579.983 155.685C579.983 151.234 585.938 146.283 591.466 146.138C592.852 146.102 594.717 145.774 595.611 145.408C597.115 144.793 597.082 144.595 595.159 142.736C590.926 138.643 584.012 135.883 576.486 135.282C572.526 134.966 568.879 134.447 568.382 134.129C567.01 133.25 566.042 128.421 567.237 128.421C569.331 128.421 568.09 126.533 564.151 123.725C561.902 122.123 557.392 117.468 554.128 113.381C545.841 103.003 542.405 102.504 540.276 111.369C539.693 113.798 538.06 117.92 536.648 120.527C534.322 124.824 534.222 125.363 535.576 126.277C536.906 127.175 536.747 127.637 534.135 130.472C532.52 132.224 531.199 134.174 531.199 134.805C531.199 135.607 530.517 135.49 528.935 134.416C527.119 133.183 526.407 133.107 525.331 134.033C524.239 134.972 523.609 134.809 521.947 133.157C520.824 132.04 517.467 130.104 514.485 128.854C509.337 126.695 504.177 121.959 504.12 119.34C504.083 117.629 506.092 113.446 506.951 113.446C507.368 113.446 507.71 114.078 507.71 114.85C507.71 115.622 508.173 116.254 508.739 116.254C509.446 116.254 509.61 114.66 509.263 111.178C508.872 107.247 509.054 105.984 510.072 105.579C513.478 104.225 504.015 95.9757 497.91 94.9762C496.095 94.679 493.187 93.4395 491.448 92.2217C489.709 91.0038 486.66 89.5562 484.672 89.0048C480.754 87.9175 477.897 85.7676 477.897 83.9061C477.897 83.2614 474.442 79.0398 470.219 74.5249C465.996 70.01 461.219 64.2961 459.604 61.8274C455.27 55.2057 453.835 55.7908 451.217 65.2459C449.268 72.2831 446.874 77.2935 443.168 82.0927C439.137 87.3121 438.771 88.103 439.789 89.3871C440.281 90.0081 440.824 91.569 440.996 92.8559C441.173 94.1798 442.191 95.5969 443.341 96.1196C444.459 96.6278 445.374 97.5754 445.374 98.2255C445.374 98.8756 446.071 99.4075 446.922 99.4075C448.365 99.4075 448.368 99.5139 446.972 100.96C445.577 102.407 445.331 102.406 443.391 100.949C435.743 95.2086 434.492 94.5358 432.447 95.0675C430.944 95.4585 430.003 96.6968 429.261 99.2615C428.514 101.846 428.135 102.989 428.52 103.661C428.86 104.255 429.795 104.484 431.596 105.015C433.574 105.599 437.241 108.199 440.405 111.261L445.825 116.506L440.45 113.459C435.571 110.693 434.588 110.464 429.812 110.981C424.548 111.551 419.174 113.708 419.174 115.25C419.174 115.7 420.694 116.441 422.551 116.896C424.718 117.427 426.316 118.53 427.011 119.973C427.606 121.211 429.237 122.874 430.635 123.67C433.096 125.069 432.865 125.137 423.487 125.753C412.38 126.483 408.53 127.556 405.661 130.72C403.215 133.417 403.881 134.973 407.483 134.973C408.945 134.973 410.14 135.416 410.14 135.958C410.14 136.499 411.258 137.353 412.625 137.855C413.991 138.356 416.03 140.124 417.156 141.784L419.204 144.801L413.235 145.571C408.253 146.214 406.995 146.087 405.625 144.802C402.885 142.234 400.062 134.159 397.806 122.443C395.537 110.653 394.328 107.179 391.969 105.663C389.35 103.98 387.624 105.77 383.976 113.95C380.384 122.005 371.446 134.622 364.141 141.949C360.314 145.787 359.038 149.792 362.033 148.565C362.903 148.209 364.999 147.677 366.691 147.383C370.812 146.667 369.98 147.833 362.477 153.287C355.892 158.074 350.514 162.967 350.514 164.171C350.514 164.585 351.663 164.923 353.067 164.923C354.622 164.923 356.449 165.838 357.742 167.263C358.909 168.55 360.809 169.603 361.965 169.603C369.61 169.603 355.882 175.825 343.44 177.999C336.366 179.236 333.23 181.254 330.306 186.453L328.617 189.455L331.497 188.8C333.942 188.243 334.452 188.441 334.872 190.105C335.441 192.359 336.092 192.44 342.397 191.039C346.402 190.149 347.247 190.228 348.744 191.632C350.947 193.696 350.488 194.381 344.962 197.282C340.034 199.869 338.019 199.749 324.993 196.087C319.375 194.507 318.991 193.809 320.792 188.456C321.733 185.659 322.57 185.141 327.38 184.38C329.279 184.08 330.279 182.552 331.04 178.787C331.446 176.777 332.131 176.214 334.453 175.979C336.858 175.737 337.502 175.162 338.195 172.645C338.953 169.889 339.359 169.603 342.514 169.603C347.213 169.603 346.97 168.132 341.458 163.214C336.485 158.777 328.251 154.543 315.751 149.994C308.172 147.235 304.44 145.033 304.44 143.317C304.44 142.918 305.759 142.983 307.37 143.462C308.982 143.941 311.421 144.333 312.791 144.333C314.797 144.333 315.281 143.909 315.281 142.149C315.281 139.121 315.927 138.722 319.018 139.838C322.389 141.055 322.87 140.539 322.137 136.489C321.297 131.851 314.393 124.321 305.569 118.42C297.843 113.253 296.178 110.644 300.6 110.633C301.967 110.629 304.304 109.79 305.795 108.767C309.745 106.057 310.991 106.413 314.232 111.175C315.833 113.529 317.639 115.287 318.245 115.08C318.856 114.872 319.473 112.656 319.631 110.101C319.802 107.333 320.432 105.198 321.212 104.746C324.197 103.015 321.886 98.722 313.04 89.5693C305.695 81.9696 297.755 72.4479 291.009 63.1513C287.052 57.6972 284.696 55.2843 282.957 54.9062C281.605 54.6122 279.89 54.0509 279.144 53.6589C277.352 52.7166 271.751 41.8376 268.244 32.4886C266.699 28.3705 265.099 24.6369 264.687 24.1917C263.406 22.8043 260.974 29.0897 259.163 38.468C256.114 54.254 251.29 62.2046 233.521 80.7251C230.291 84.0908 227.649 87.1443 227.649 87.5106C227.649 87.8771 229.275 88.1767 231.263 88.1767C233.25 88.1767 234.877 88.5004 234.877 88.896C234.877 89.2917 231.76 92.7664 227.952 96.6175C218.94 105.729 214.39 111.754 213.069 116.32C211.751 120.877 212.434 121.691 216.165 120.012C219.35 118.579 224.879 118.3 228.832 119.373C231.348 120.056 231.313 120.107 224.767 125.318C212.946 134.727 209.309 138.159 206.774 142.301C203.332 147.925 204.096 149.491 208.975 146.81C212.2 145.038 213.684 144.812 219.275 145.246C224.318 145.637 226.249 146.209 227.741 147.755L229.674 149.758L227.532 151.13C226.354 151.886 222.138 154.477 218.163 156.89C208.007 163.054 202.455 167.412 201.241 170.173C199.793 173.464 201.487 174.348 207.911 173.652C212.22 173.185 213.457 173.413 215.728 175.088C217.212 176.182 219.25 177.397 220.258 177.786C221.962 178.445 221.685 179.133 216.287 187.645C216.287 187.645 200.547 212.015 198.74 191.486C198.74 190.775 199.553 190.193 200.547 190.193C201.731 190.193 202.353 189.569 202.353 188.382C202.353 184.517 200.4 181.65 195.602 178.47C190.657 175.193 189.346 173.347 191.964 173.347C194.119 173.347 193.63 172.449 188.344 166.709C185.608 163.737 182.593 159.428 181.643 157.134C180.694 154.839 179.477 152.68 178.939 152.336C178.401 151.991 177.961 151.265 177.961 150.721C177.961 150.169 178.944 150.4 180.188 151.244C182.963 153.128 184.645 153.159 186.092 151.352C186.71 150.58 188.183 149.948 189.365 149.948C192.322 149.948 192.185 147.015 189.097 144.197C180.815 136.642 166.959 121.204 162.756 114.851C158.843 108.935 157.072 106.222 155.401 106.287C153.98 106.342 152.631 108.406 150.099 112.219C148.112 115.211 144.022 120.817 141.009 124.678C137.996 128.539 135.524 132.062 135.516 132.509C135.507 132.955 136.517 133.118 137.759 132.872C140.7 132.29 140.609 133.1 137.373 136.312C135.918 137.756 133.836 141.086 132.745 143.713C131.654 146.34 129.388 150.352 127.71 152.629C123.91 157.786 123.829 159.307 127.355 159.307C129.035 159.307 131.124 160.3 132.897 161.942L135.743 164.576L128.62 166.747C119.437 169.546 113.764 172.529 109.783 176.653C106.204 180.361 105.678 182.706 108.426 182.706C109.436 182.706 110.501 183.353 110.794 184.143C111.229 185.317 112.342 185.468 116.864 184.966C124.112 184.16 122.941 185.35 112.334 189.567C99.5681 194.643 94.905 198.243 92.1395 205.16C90.5709 209.083 91.322 209.428 95.3183 206.618C97.185 205.306 99.4492 204.232 100.35 204.232C101.884 204.232 101.905 204.513 100.685 208.678C99.9691 211.123 99.3788 213.277 99.3734 213.465C99.361 213.896 109.175 212.647 110.764 212.015C111.412 211.758 112.18 210.771 112.471 209.823C113 208.096 113.74 207.879 118.787 207.973C120.278 208 123.08 208.018 125.015 208.011C128.422 207.999 128.484 208.055 126.971 209.787C126.111 210.771 123.715 212.742 121.646 214.167C116.123 217.969 109.301 224.976 109.301 226.846C109.301 227.914 107.365 229.44 103.655 231.299C96.5316 234.866 87.7852 242.527 85.1213 247.531C82.9269 251.655 83.4936 253.717 86.3833 252.124C89.8743 250.2 98.4544 248.777 99.5736 249.936C101.606 252.042 105.199 251.203 106.896 248.226C107.775 246.685 109.508 245.16 110.747 244.838C113.707 244.069 119.624 245.088 123.143 246.973L125.954 248.479L122.959 251.069C121.311 252.494 116.853 254.793 113.051 256.178C101.49 260.391 91.9456 265.502 86.6483 270.317C83.8783 272.835 79.1156 276.884 76.0643 279.315C70.4376 283.797 66.2488 290.199 67.2224 292.827C67.6155 293.889 68.7024 294.064 72.0284 293.604C74.3923 293.278 77.4251 292.577 78.7681 292.047C80.7678 291.258 81.6925 291.44 83.8763 293.051C85.8221 294.486 87.9094 295.018 91.5981 295.018C94.3785 295.018 96.6533 295.394 96.6533 295.854C96.6533 296.314 93.9092 297.819 90.5552 299.197C85.1508 301.419 59.1459 318.251 56.2346 321.412C52.038 325.968 48.0404 331.472 47.194 333.859C45.7382 337.964 45.7997 350.192 47.279 350.78C47.9279 351.038 50.2571 350.185 52.455 348.883C54.6528 347.581 57.6707 346.529 59.1613 346.543L61.8716 346.572L58.7096 349.374C57.192 350.719 51.3423 355.246 45 360ZM396.699 193.938C399.907 193.938 400.268 194.133 399.299 195.342C398.181 196.738 396.261 197.028 394.104 196.126C391.722 195.13 393.135 193.938 396.699 193.938ZM395.732 171.94C400.483 173.462 402.969 175.407 404.729 178.982C405.738 181.031 406.453 182.697 406.319 182.686C404.907 182.567 398.396 178.835 398.396 178.145C398.396 177.644 397.299 175.884 395.958 174.233L393.52 171.231L395.732 171.94ZM606.634 174.996L604.11 176.036C602.721 176.608 600.543 177.347 599.27 177.678C597.114 178.239 597.027 178.138 598.013 176.229C599.401 173.543 601.043 172.966 604.12 174.084L606.634 174.996ZM523.758 144.369C530.946 145.588 532.238 147.253 526.863 148.367C525.451 148.66 523.918 149.715 523.456 150.712C522.696 152.353 522.187 152.032 518.1 147.334C513.671 142.241 513.636 142.156 516.293 142.852C517.783 143.242 521.142 143.925 523.758 144.369ZM533.802 136.846C534.299 136.846 534.957 137.267 535.264 137.782C535.571 138.297 535.416 138.718 534.919 138.718C534.422 138.718 533.764 138.297 533.457 137.782C533.15 137.267 533.305 136.846 533.802 136.846Z" fill="#BFA29B"/>
</svg>
