<svg width="400" height="360" viewBox="0 0 400 360" fill="none" xmlns="http://www.w3.org/2000/svg">
<path d="M281.674 185.98C275.257 190.991 272.04 195.56 268.57 205.073H284.335C280.011 197.936 280.824 193.518 283.165 187.103C283.504 186.173 282.454 185.371 281.674 185.98Z" fill="#89482C"/>
<path d="M86.7748 210L81 224H300L295.558 210H86.7748Z" fill="#473A2D"/>
<circle cx="98" cy="341" r="19" fill="#474039"/>
<rect x="169" y="316" width="156" height="25" fill="#473A2D"/>
<path d="M169 269.84V341H181.637L186.866 316.552H221.726L226.955 341H267.045L272.274 316.552H307.134L312.363 341H325V269.84L304.084 224H189.916L169 269.84Z" fill="#7B6B5C"/>
<path d="M57 341H169V270.276L190 224H78L57 270.276V341Z" fill="#A79482"/>
<path d="M173.778 228.781H86.7624C85.2195 228.781 83.8141 229.669 83.1508 231.062L68.983 260.818C67.7192 263.472 69.6546 266.537 72.5945 266.537H159.611C161.154 266.537 162.559 265.65 163.222 264.257L177.39 234.501C178.654 231.846 176.718 228.781 173.778 228.781Z" fill="#6B5F53"/>
<path d="M297.517 228.781H197.991C196.448 228.781 195.043 229.669 194.379 231.062L180.212 260.818C178.948 263.472 180.883 266.537 183.823 266.537H310.959C313.864 266.537 315.8 263.538 314.604 260.891L301.163 231.135C300.516 229.702 299.089 228.781 297.517 228.781Z" fill="#6B5F53"/>
<path d="M122.312 299.902C122.894 317.225 107.862 326.683 93.4109 324.488C82.286 324.488 73.2676 313.48 73.2676 299.902C73.2676 286.324 82.286 275.317 93.4109 275.317C110.051 272.684 121.874 283.659 122.312 299.902Z" fill="#473A2D"/>
<ellipse cx="93.4109" cy="299.903" rx="20.1433" ry="24.5854" fill="#474039"/>
<ellipse cx="93.4112" cy="299.902" rx="14.0127" ry="16.6829" fill="#C0B7B3"/>
<rect x="54" y="332" width="275" height="9" fill="#473A2D"/>
<rect x="75.0176" y="205.073" width="241.72" height="5.26829" rx="2.63415" fill="#89482C"/>
<circle cx="204" cy="341" r="19" fill="#474039"/>
<circle cx="204" cy="341" r="13" fill="#C0B7B3"/>
<circle cx="291" cy="341" r="19" fill="#474039"/>
<circle cx="291" cy="341" r="13" fill="#C0B7B3"/>
<path d="M186.246 277.951H307.982" stroke="#474039" stroke-width="4" stroke-linecap="round" stroke-linejoin="round"/>
<path d="M186.246 297.269H307.982" stroke="#474039" stroke-width="4" stroke-linecap="round" stroke-linejoin="round"/>
<path d="M186.246 297.269H307.982" stroke="#474039" stroke-width="4" stroke-linecap="round" stroke-linejoin="round"/>
<path d="M153.84 277.951L153.84 321.854" stroke="#7B6B5C" stroke-width="4" stroke-linecap="round" stroke-linejoin="round"/>
<path d="M136.326 277.951L136.326 321.854" stroke="#7B6B5C" stroke-width="4" stroke-linecap="round" stroke-linejoin="round"/>
<path d="M66.2598 277.951L66.2598 321.854" stroke="#7B6B5C" stroke-width="4" stroke-linecap="round" stroke-linejoin="round"/>
</svg>
