<svg width="512" height="512" viewBox="0 0 512 512" fill="none" xmlns="http://www.w3.org/2000/svg">
<path d="M177.06 0H179.06C186.54 0.46 193.167 2.31333 198.94 5.56C210.22 11.9067 217.323 21.6367 220.25 34.75H203.06C202.972 34.7495 202.886 34.7695 202.808 34.8084C202.729 34.8473 202.661 34.904 202.609 34.974C202.556 35.044 202.521 35.1253 202.505 35.2115C202.49 35.2976 202.495 35.3861 202.52 35.47C204.6 42.7033 203.933 49.41 200.52 55.59C196.133 63.53 189.467 68.0467 180.52 69.14C180.493 69.1467 179.813 69.1933 178.48 69.28C176.013 69.4467 173.953 70.27 172.3 71.75C170.507 73.35 169.573 75.4733 169.5 78.12C169.413 81.4667 170.807 83.9 173.68 85.42C175.553 86.4067 178.053 86.7767 181.18 86.53C185.167 86.2167 188.837 85.4367 192.19 84.19C206.897 78.7033 216.23 68.2033 220.19 52.69C221.537 47.4033 221.557 41.4233 220.25 34.75L253.69 34.81C253.837 34.8102 253.98 34.8545 254.1 34.9367C254.22 35.019 254.311 35.1353 254.36 35.27C256.093 39.89 256.473 44.2167 255.5 48.25C252.327 61.3767 243.743 68.4767 229.75 69.55C227.277 69.7433 225.28 70.6267 223.76 72.2C222.393 73.6133 221.677 75.49 221.61 77.83C221.497 81.7367 223.103 84.3833 226.43 85.77C228.463 86.61 231.21 86.7967 234.67 86.33C249.023 84.39 259.773 77.48 266.92 65.6C269.733 60.9267 271.58 56.1233 272.46 51.19C273.367 46.0767 273.363 40.8333 272.45 35.46C272.436 35.3728 272.44 35.2834 272.464 35.1982C272.487 35.1129 272.529 35.0338 272.586 34.9663C272.643 34.8987 272.714 34.8444 272.794 34.8071C272.874 34.7697 272.962 34.7503 273.05 34.75H305.46C305.747 34.7504 306.026 34.843 306.257 35.014C306.487 35.185 306.656 35.4255 306.74 35.7C308.787 42.5667 308.113 49.1067 304.72 55.32C299.767 64.4 292.027 69.1267 281.5 69.5C279.36 69.5733 277.53 70.4067 276.01 72C274.73 73.3333 273.977 75.05 273.75 77.15C273.303 81.2167 274.767 84.03 278.14 85.59C280.22 86.55 283.01 86.8033 286.51 86.35C300.857 84.49 311.643 77.6467 318.87 65.82C321.71 61.1733 323.567 56.3867 324.44 51.46C325.327 46.46 325.383 41.23 324.61 35.77C324.593 35.6509 324.601 35.5295 324.635 35.414C324.669 35.2985 324.727 35.1916 324.806 35.1006C324.885 35.0096 324.982 34.9365 325.091 34.8864C325.201 34.8362 325.32 34.8102 325.44 34.81L357.48 34.75C357.781 34.7505 358.075 34.8489 358.318 35.0307C358.561 35.2124 358.74 35.468 358.83 35.76C359.697 38.64 360.08 41.5867 359.98 44.6C359.887 47.4467 359.22 50.2933 357.98 53.14C353.68 63.02 345.903 68.5033 334.65 69.59C332.463 69.7967 330.92 70.1367 330.02 70.61C328.46 71.43 327.297 72.5967 326.53 74.11C325.517 76.1167 325.347 78.2933 326.02 80.64C326.747 83.1667 328.327 84.93 330.76 85.93C332.38 86.5967 334.573 86.7933 337.34 86.52C349.02 85.3867 358.547 80.7267 365.92 72.54C370.5 67.4533 373.67 61.84 375.43 55.7C377.17 49.62 377.617 43 376.77 35.84C376.754 35.7112 376.767 35.5806 376.806 35.4567C376.845 35.3329 376.91 35.2185 376.997 35.1213C377.084 35.024 377.19 34.946 377.31 34.8924C377.429 34.8387 377.559 34.8106 377.69 34.81L506.83 34.75C507.074 34.75 507.308 34.8469 507.481 35.0195C507.653 35.192 507.75 35.426 507.75 35.67L507.69 511.48C507.69 511.521 507.678 511.573 507.654 511.633C507.629 511.694 507.594 511.761 507.55 511.83L507.44 512H4.69L4.49 511.74C4.33577 511.535 4.24968 511.33 4.25 511.17V35.62C4.25 35.5057 4.2725 35.3926 4.31623 35.2871C4.35995 35.1815 4.42403 35.0856 4.50482 35.0048C4.5856 34.924 4.68151 34.8599 4.78707 34.8162C4.89262 34.7725 5.00575 34.75 5.12 34.75H134.69C134.88 34.7502 135.064 34.6878 135.216 34.5722C135.367 34.4567 135.478 34.2944 135.53 34.11C141.29 13.31 155.133 1.94 177.06 0ZM194.59 23.66C189.97 19.8133 184.89 17.7567 179.35 17.49C173.923 17.2367 168.893 18.5233 164.26 21.35C159.507 24.25 156.02 28.5067 153.8 34.12C153.772 34.19 153.762 34.2657 153.77 34.3406C153.778 34.4154 153.805 34.4871 153.847 34.5493C153.89 34.6115 153.947 34.6624 154.014 34.6974C154.08 34.7323 154.155 34.7504 154.23 34.75H201.5C201.588 34.7497 201.675 34.7279 201.752 34.6865C201.83 34.6451 201.897 34.5853 201.946 34.5123C201.995 34.4394 202.026 34.3554 202.035 34.2679C202.045 34.1803 202.033 34.0918 202 34.01C200.413 29.91 197.943 26.46 194.59 23.66ZM125.75 147.99C125.75 147.926 125.737 147.862 125.713 147.802C125.688 147.743 125.652 147.689 125.606 147.644C125.561 147.598 125.507 147.562 125.448 147.537C125.388 147.513 125.324 147.5 125.26 147.5H22.24C22.1757 147.5 22.1119 147.513 22.0525 147.537C21.993 147.562 21.939 147.598 21.8935 147.644C21.848 147.689 21.8119 147.743 21.7873 147.802C21.7627 147.862 21.75 147.926 21.75 147.99V251.25C21.75 251.38 21.8016 251.505 21.8935 251.596C21.9854 251.688 22.11 251.74 22.24 251.74H125.26C125.39 251.74 125.515 251.688 125.606 251.596C125.698 251.505 125.75 251.38 125.75 251.25V147.99ZM143.31 148.07V251.05C143.31 251.236 143.385 251.414 143.518 251.545C143.651 251.676 143.832 251.75 144.02 251.75H246.23C246.364 251.75 246.497 251.724 246.62 251.672C246.744 251.621 246.857 251.546 246.951 251.451C247.046 251.357 247.121 251.244 247.172 251.12C247.224 250.997 247.25 250.864 247.25 250.73V148C247.25 147.867 247.197 147.74 247.104 147.646C247.01 147.553 246.883 147.5 246.75 147.5L143.82 147.56C143.685 147.56 143.555 147.614 143.459 147.709C143.364 147.805 143.31 147.935 143.31 148.07ZM368.75 147.91C368.75 147.801 368.707 147.697 368.63 147.62C368.553 147.543 368.449 147.5 368.34 147.5H265.16C265.051 147.5 264.947 147.543 264.87 147.62C264.793 147.697 264.75 147.801 264.75 147.91V251.33C264.75 251.439 264.793 251.543 264.87 251.62C264.947 251.697 265.051 251.74 265.16 251.74H368.34C368.449 251.74 368.553 251.697 368.63 251.62C368.707 251.543 368.75 251.439 368.75 251.33V147.91ZM490.25 147.99C490.25 147.926 490.237 147.862 490.213 147.802C490.188 147.743 490.152 147.689 490.106 147.644C490.061 147.598 490.007 147.562 489.948 147.537C489.888 147.513 489.824 147.5 489.76 147.5H386.74C386.676 147.5 386.612 147.513 386.552 147.537C386.493 147.562 386.439 147.598 386.394 147.644C386.348 147.689 386.312 147.743 386.287 147.802C386.263 147.862 386.25 147.926 386.25 147.99V251.25C386.25 251.38 386.302 251.505 386.394 251.596C386.485 251.688 386.61 251.74 386.74 251.74H489.76C489.89 251.74 490.015 251.688 490.106 251.596C490.198 251.505 490.25 251.38 490.25 251.25V147.99ZM125.75 269.6C125.75 269.441 125.687 269.288 125.574 269.176C125.462 269.063 125.309 269 125.15 269H22.35C22.2712 269 22.1932 269.016 22.1204 269.046C22.0476 269.076 21.9815 269.12 21.9257 269.176C21.87 269.231 21.8258 269.298 21.7957 269.37C21.7655 269.443 21.75 269.521 21.75 269.6V372.64C21.75 372.719 21.7655 372.797 21.7957 372.87C21.8258 372.942 21.87 373.009 21.9257 373.064C21.9815 373.12 22.0476 373.164 22.1204 373.194C22.1932 373.224 22.2712 373.24 22.35 373.24H125.15C125.309 373.24 125.462 373.177 125.574 373.064C125.687 372.952 125.75 372.799 125.75 372.64V269.6ZM247.25 269.72C247.25 269.625 247.231 269.532 247.195 269.444C247.159 269.357 247.106 269.278 247.039 269.211C246.972 269.144 246.893 269.091 246.806 269.055C246.718 269.019 246.625 269 246.53 269H143.97C143.875 269 143.782 269.019 143.694 269.055C143.607 269.091 143.528 269.144 143.461 269.211C143.394 269.278 143.341 269.357 143.305 269.444C143.269 269.532 143.25 269.625 143.25 269.72V372.52C143.25 372.615 143.269 372.708 143.305 372.796C143.341 372.883 143.394 372.962 143.461 373.029C143.528 373.096 143.607 373.149 143.694 373.185C143.782 373.221 143.875 373.24 143.97 373.24H246.53C246.625 373.24 246.718 373.221 246.806 373.185C246.893 373.149 246.972 373.096 247.039 373.029C247.106 372.962 247.159 372.883 247.195 372.796C247.231 372.708 247.25 372.615 247.25 372.52V269.72ZM368.75 269.56C368.75 269.411 368.691 269.269 368.586 269.164C368.481 269.059 368.339 269 368.19 269H265.31C265.161 269 265.019 269.059 264.914 269.164C264.809 269.269 264.75 269.411 264.75 269.56V372.68C264.75 372.829 264.809 372.971 264.914 373.076C265.019 373.181 265.161 373.24 265.31 373.24H368.19C368.339 373.24 368.481 373.181 368.586 373.076C368.691 372.971 368.75 372.829 368.75 372.68V269.56ZM490.25 269.55C490.25 269.404 490.192 269.264 490.089 269.161C489.986 269.058 489.846 269 489.7 269H386.8C386.654 269 386.514 269.058 386.411 269.161C386.308 269.264 386.25 269.404 386.25 269.55V372.69C386.25 372.836 386.308 372.976 386.411 373.079C386.514 373.182 386.654 373.24 386.8 373.24H489.7C489.846 373.24 489.986 373.182 490.089 373.079C490.192 372.976 490.25 372.836 490.25 372.69V269.55ZM125.75 390.78C125.75 390.708 125.722 390.64 125.671 390.589C125.62 390.538 125.552 390.51 125.48 390.51H22.02C21.9484 390.51 21.8797 390.538 21.8291 390.589C21.7784 390.64 21.75 390.708 21.75 390.78V494.48C21.75 494.552 21.7784 494.62 21.8291 494.671C21.8797 494.722 21.9484 494.75 22.02 494.75H125.48C125.552 494.75 125.62 494.722 125.671 494.671C125.722 494.62 125.75 494.552 125.75 494.48V390.78ZM247.25 390.76C247.25 390.691 247.223 390.625 247.174 390.576C247.125 390.527 247.059 390.5 246.99 390.5H143.51C143.441 390.5 143.375 390.527 143.326 390.576C143.277 390.625 143.25 390.691 143.25 390.76V494.48C143.25 494.549 143.277 494.615 143.326 494.664C143.375 494.713 143.441 494.74 143.51 494.74H246.99C247.059 494.74 247.125 494.713 247.174 494.664C247.223 494.615 247.25 494.549 247.25 494.48V390.76ZM368.75 390.99C368.75 390.86 368.698 390.735 368.606 390.644C368.515 390.552 368.39 390.5 368.26 390.5H265.24C265.11 390.5 264.985 390.552 264.894 390.644C264.802 390.735 264.75 390.86 264.75 390.99V494.25C264.75 494.38 264.802 494.505 264.894 494.596C264.985 494.688 265.11 494.74 265.24 494.74H368.26C368.39 494.74 368.515 494.688 368.606 494.596C368.698 494.505 368.75 494.38 368.75 494.25V390.99ZM386.31 391.07L386.25 494.38C386.25 494.429 386.26 494.477 386.278 494.522C386.297 494.566 386.324 494.607 386.358 494.642C386.393 494.676 386.434 494.703 386.478 494.722C386.523 494.74 386.571 494.75 386.62 494.75H489.16C489.449 494.75 489.726 494.635 489.931 494.431C490.135 494.226 490.25 493.949 490.25 493.66V391C490.25 390.867 490.197 390.74 490.104 390.646C490.01 390.553 489.883 390.5 489.75 390.5L386.82 390.56C386.685 390.56 386.555 390.614 386.459 390.709C386.364 390.805 386.31 390.935 386.31 391.07Z" fill="#685151"/>
<path d="M229.56 0H231.06C235.8 0.36 239.613 1.02667 242.5 2C258.28 7.31333 268.19 18.0333 272.23 34.16C272.248 34.2298 272.25 34.3029 272.235 34.3737C272.22 34.4444 272.188 34.5109 272.143 34.568C272.097 34.625 272.039 34.6711 271.973 34.7027C271.906 34.7343 271.833 34.7504 271.76 34.75H255.71C255.331 34.7505 254.96 34.6424 254.641 34.4385C254.322 34.2347 254.068 33.9437 253.91 33.6C249.603 24.2467 242.503 18.9233 232.61 17.63C232.576 17.6233 231.833 17.5667 230.38 17.46C227.086 17.2133 224.643 15.9 223.05 13.52C221.55 11.28 221.17 8.83 221.91 6.17C222.85 2.78333 225.4 0.726667 229.56 0Z" fill="#685151"/>
<path d="M281.81 0H283.31C293.637 0.606667 302.597 4.12667 310.19 10.56C317.39 16.66 322.023 24.4567 324.09 33.95C324.103 34.0116 324.103 34.0752 324.089 34.1367C324.075 34.1981 324.049 34.2559 324.011 34.3061C323.973 34.3564 323.924 34.3979 323.869 34.4279C323.814 34.4579 323.753 34.4756 323.69 34.48C318.13 34.9133 312.567 34.9333 307 34.54C306.849 34.5275 306.704 34.4744 306.581 34.3864C306.458 34.2984 306.361 34.1787 306.3 34.04C302.227 24.7067 295.19 19.26 285.19 17.7C285.157 17.6933 284.193 17.61 282.3 17.45C278.987 17.1633 276.55 15.79 274.99 13.33C273.517 11.0167 273.193 8.54 274.02 5.9C275.06 2.58667 277.657 0.62 281.81 0Z" fill="#685151"/>
<path d="M333.81 0H335.31C356.63 1.98667 370.276 13.1567 376.25 33.51C376.293 33.6536 376.303 33.8056 376.277 33.9535C376.252 34.1015 376.192 34.2414 376.102 34.362C376.013 34.4826 375.896 34.5805 375.762 34.6479C375.628 34.7153 375.48 34.7503 375.33 34.75H359.48C359.209 34.7496 358.945 34.6709 358.719 34.5235C358.494 34.376 358.317 34.1663 358.21 33.92C354.083 24.3133 346.763 18.84 336.25 17.5C333.23 17.1133 331.25 16.6467 330.31 16.1C325.703 13.4333 324.37 9.75333 326.31 5.06C327.523 2.13333 330.023 0.446667 333.81 0Z" fill="#685151"/>
<path d="M316.051 333.83C307.958 342.217 299.754 350.503 291.441 358.69C290.061 360.043 288.831 361.16 287.751 362.04C286.298 363.22 284.838 363.933 283.371 364.18C281.338 364.52 279.454 364.173 277.721 363.14C276.134 362.207 274.961 360.843 274.201 359.05C273.221 356.73 273.251 354.46 274.291 352.24C274.831 351.1 276.181 349.45 278.341 347.29C286.881 338.75 295.458 330.17 304.071 321.55C304.127 321.495 304.172 321.43 304.203 321.358C304.234 321.285 304.25 321.207 304.25 321.128C304.25 321.049 304.234 320.97 304.203 320.897C304.172 320.823 304.127 320.756 304.071 320.7C294.778 311.4 285.568 302.187 276.441 293.06C273.154 289.773 272.448 286.373 274.321 282.86C275.634 280.393 277.508 278.817 279.941 278.13C281.841 277.59 283.731 277.753 285.611 278.62C286.711 279.127 288.131 280.253 289.871 282C298.604 290.727 307.338 299.457 316.071 308.19C316.159 308.281 316.265 308.353 316.382 308.402C316.499 308.451 316.624 308.476 316.751 308.476C316.878 308.476 317.003 308.451 317.12 308.402C317.237 308.353 317.342 308.281 317.431 308.19C326.478 299.143 335.548 290.127 344.641 281.14C348.121 277.707 351.621 276.923 355.141 278.79C357.548 280.063 359.108 281.967 359.821 284.5C360.654 287.42 359.881 290.087 357.501 292.5C348.321 301.82 339.041 311.143 329.661 320.47C329.487 320.643 329.388 320.877 329.386 321.123C329.384 321.368 329.479 321.604 329.651 321.78C338.678 330.8 347.728 339.857 356.801 348.95C359.541 351.69 360.511 354.607 359.711 357.7C358.958 360.593 357.221 362.6 354.501 363.72C352.414 364.573 350.284 364.52 348.111 363.56C346.871 363.02 345.278 361.787 343.331 359.86C334.611 351.26 325.898 342.58 317.191 333.82C317.117 333.744 317.029 333.684 316.931 333.644C316.833 333.603 316.728 333.583 316.622 333.584C316.516 333.585 316.41 333.607 316.312 333.649C316.214 333.692 316.125 333.753 316.051 333.83Z" fill="#685151"/>
</svg>
