<svg width="512" height="512" viewBox="0 0 512 512" fill="none" xmlns="http://www.w3.org/2000/svg">
<path d="M512 182.06V401.81C510.967 418.13 505.04 431.737 494.22 442.63C489.38 447.51 484.003 451.387 478.09 454.26C469.21 458.587 459.347 460.75 448.5 460.75C324.08 460.75 199.663 460.75 75.25 460.75C64.01 460.75 57.3467 460.65 55.26 460.45C38.58 458.823 24.8067 451.527 13.94 438.56C5.40667 428.38 0.76 416.09 0 401.69V181.19C0.706667 169.303 3.97667 159.01 9.81 150.31C20.9767 133.663 36.38 124.477 56.02 122.75C57.9 122.583 64.56 122.5 76 122.5C88.6333 122.5 101.22 122.5 113.76 122.5C114.033 122.5 114.303 122.432 114.546 122.301C114.788 122.17 114.996 121.981 115.15 121.75C123.09 109.683 131.047 97.6467 139.02 85.64C144.107 77.98 148.107 72.6667 151.02 69.7C159.993 60.54 170.847 54.7733 183.58 52.4C187.68 51.6333 194.32 51.25 203.5 51.25C238.253 51.25 273.003 51.25 307.75 51.25C317.083 51.25 323.727 51.5933 327.68 52.28C341.04 54.6 352.34 60.62 361.58 70.34C364.313 73.2133 368.28 78.5633 373.48 86.39C381.287 98.1367 389.067 109.907 396.82 121.7C396.983 121.946 397.203 122.147 397.462 122.287C397.72 122.427 398.008 122.5 398.3 122.5C415.933 122.5 433.167 122.5 450 122.5C461.533 122.5 472.06 125.26 481.58 130.78C487.347 134.12 492.46 138.35 496.92 143.47C506.227 154.17 511.253 167.033 512 182.06ZM159.44 371.06C180.353 391.853 205.647 404.517 235.32 409.05C241.873 410.05 248.517 410.553 255.25 410.56C290.383 410.58 321.03 399.123 347.19 376.19C371.25 355.09 386.12 328.657 391.8 296.89C392.993 290.21 393.68 283.583 393.86 277.01C394.353 258.69 391.38 241.123 384.94 224.31C377.22 204.163 365.637 186.913 350.19 172.56C325.41 149.533 295.843 137.26 261.49 135.74C236.877 134.647 213.983 139.587 192.81 150.56C165.797 164.56 145.577 185.093 132.15 212.16C129.157 218.193 126.65 224.363 124.63 230.67C119.03 248.17 116.987 265.863 118.5 283.75C121.373 317.683 135.02 346.787 159.44 371.06ZM406.21 178.45C403.29 181.637 401.677 185.203 401.37 189.15C401.077 192.883 401.943 196.47 403.97 199.91C406.243 203.777 409.527 206.38 413.82 207.72C416.007 208.407 419.993 208.75 425.78 208.75C430.933 208.75 436.09 208.75 441.25 208.75C445.577 208.75 449.263 207.603 452.31 205.31C456.597 202.097 459.003 198.057 459.53 193.19C460.03 188.557 459.017 184.327 456.49 180.5C454.65 177.713 452.16 175.617 449.02 174.21C446.867 173.243 443.773 172.71 439.74 172.61C432.993 172.45 426.247 172.427 419.5 172.54C414.173 172.627 409.743 174.597 406.21 178.45Z" fill="#685151"/>
<path d="M278.985 345.901C319.353 333.173 341.783 290.202 329.083 249.924C316.383 209.645 273.363 187.311 232.995 200.039C192.627 212.767 170.198 255.738 182.897 296.016C195.597 336.295 238.617 358.629 278.985 345.901Z" fill="#685151"/>
</svg>
