<svg width="3360" height="1080" viewBox="0 0 3360 1080" fill="none" xmlns="http://www.w3.org/2000/svg">
<path fill-rule="evenodd" clip-rule="evenodd" d="M2188.66 146.052C2186.45 146.891 2173.78 147.404 2173.16 147.656C2172.53 147.907 2168.04 149.775 2164.8 150.404L2149.47 155.121L2142.07 156.379H2137.27L2130.12 158.108L2119.73 159.68L2107.66 161.096L2098.67 163.053L2086.5 164.199H2076.23L2065.82 166.49L2057.3 168.945L2041.76 172.382L2029.05 174.51L2020.67 175.819L1999.58 179.42L1988.77 181.057L1963.35 185.803L1950.92 188.422L1937.67 190.549L1930.91 191.531C1923.57 192.186 1908.72 193.561 1908.07 193.823C1907.42 194.085 1899.23 195.132 1895.22 195.623L1885.9 197.587L1869.54 199.715L1859.4 201.515L1849.94 203.806L1836.42 207.244L1821.15 210.681L1806.55 215.918L1811.17 222.758L1815.57 229.421L1821.15 237.682L1825.7 245.411L1830.98 253.939L1837.47 264.199L1843.2 275.392L1849.8 287.518L1856.84 358.117L1865.43 372.908L1870.6 382.502L1872.14 385.7L1874.34 390.763L1884.03 406.487L1889.2 415.414L1894.48 422.877L1904.83 440.466L1912.42 452.858L1917.85 466.134L1920.16 482.524L1921.49 494.117L1922.37 503.311L1923.03 510.24V513.971L1923.91 519.301L1924.68 525.83L1925.23 544.219L1924.68 599.617V607.346L1923.91 611.343L1920.85 613.264L1916.72 615.448L1911.3 616.631L1907.92 617.996L1901.08 618.724L1893.27 619.816L1885.07 620.908L1876.3 622.035L1866.2 623.023L1858.03 624.012L1850.69 625.124H1847.22L1844.15 626.73L1837.44 627.949L1831.91 628.954L1823.54 630.684L1814.76 631.796L1808.03 632.908L1799.05 633.773L1791.6 634.762L1780.98 635.257H1772.13H1766.59H1762.7H1757.03L1752.19 635.952L1747.22 636.337L1741.94 636.954H1738.75H1733.08L1727.99 637.957L1725.25 638.419L1721.3 639.268H1711.87H1702.45L1693.78 639.653L1686.65 640.27H1679.39H1676.97L1668.81 640.733L1664.55 641.273L1658.24 641.967L1651.24 642.892L1642.38 643.895L1638.37 644.975L1630.15 646.517L1625.31 647.674L1618.05 649.293L1612.38 650.142L1609.13 651.839L1602.38 653.304L1596.39 654.923L1592.06 656.543L1585.56 658.162L1580.56 659.723L1575.78 660.846L1571.34 662.131L1567.49 663.496L1564.38 664.62L1563.91 665.904L1564.38 667.59L1565.77 669.998L1569.09 674.654L1572.14 678.106L1575.38 681.719L1579.91 686.569L1584.83 693.264L1588.55 698.986L1593.38 704.22L1597.3 710.063L1604.04 717.854L1607.35 721.627L1611.27 726.618L1616 732.462L1621.23 738.791L1627.26 746.948L1628.87 749.747L1633.49 755.591L1638.52 762.772L1642.34 767.642L1647.57 775.798L1650.79 780.789L1654.91 788.214L1659.53 796.127L1662.75 801.726L1665.26 805.743L1668.48 810.978L1672.91 817.308L1675.12 821.568L1680.08 828.215L1683.29 835.115L1684.78 842.341L1682.34 850.645L1680.08 857.386L1675.12 866.461L1667.14 873.579L1659.53 878.324L1654.41 884.65L1650.79 894.501L1644.6 907.224L1638.52 924.548L1628.87 939.955L1617.83 951.596L1609.34 967.003L1605.05 991.193V1020.05L1599.92 1044.28L1591.11 1066.54L1582.29 1069.62L1570.91 1072.01L1535 1080H2640V143.003L2618.14 141.493L2591.12 140.465L2546.57 142.297L2518.46 144.593L2489.21 142.297L2462.25 141.148L2438.73 142.297L2411.2 140.574L2383.67 142.297H2359L2338.93 140L2317.94 141.144L2297.06 140.574L2275.83 141.723L2252.89 140.574L2229.37 142.297L2208.84 144.353L2188.66 146.052Z" fill="#F2DCD0"/>
<path d="M1564.38 667.59L1563.91 665.904L1564.34 669.079L1565.02 676.541V683.112L1565.73 694.532L1566.95 702.38V709.62L1566.3 714.186L1566.95 722.165V724.655V729.667L1566.3 735.793L1566.95 740.694L1567.45 753.833L1566.95 767.01V772.874V794.111V779.521V781.506L1567.21 788.567L1566.95 793.118L1567.21 800.577L1567.74 806.012L1567.47 810.31L1567.21 813.344L1567.47 818.843L1567.21 826.65C1567.39 828.155 1567.74 831.25 1567.74 831.598V836.491C1567.65 836.854 1567.47 837.633 1567.47 837.851C1567.47 838.068 1567.98 842.871 1568.23 845.245L1567.74 850.9L1567.47 852.749L1567.74 861.013L1568.23 862.753L1569.08 874.66V877.216V881.565C1569.08 881.783 1568.87 885.933 1568.77 887.981V890.047L1569.44 892.385V896.082V899.562L1569.08 902.77L1568.77 905.108V908.751L1568.85 922.009L1567.47 935.502L1568.85 952.159L1567.74 962.55L1568.23 977.495V990.848L1568.77 1015.94L1571.52 1039.83V1054.21L1570.91 1072.01L1582.29 1069.62L1591.11 1066.54L1599.92 1044.28L1605.05 1020.05V991.193L1609.34 967.003L1617.83 951.596L1628.87 939.955L1638.52 924.548L1644.6 907.224L1650.79 894.501L1654.41 884.65L1659.53 878.324L1667.14 873.579L1675.12 866.461L1680.08 857.386L1682.34 850.645L1684.78 842.341L1683.29 835.115L1680.08 828.215L1675.12 821.568L1672.91 817.308L1668.48 810.978L1665.26 805.743L1662.75 801.726L1659.53 796.127L1654.91 788.214L1650.79 780.789L1647.57 775.798L1642.34 767.642L1638.52 762.772L1633.49 755.591L1628.87 749.747L1627.26 746.948L1621.23 738.791L1616 732.462L1611.27 726.618L1607.35 721.627L1604.04 717.854L1597.3 710.063L1593.38 704.22L1588.55 698.986L1584.83 693.264L1579.91 686.569L1575.38 681.719L1572.14 678.106L1569.09 674.654L1565.77 669.998L1564.38 667.59Z" fill="#32291B"/>
<path d="M1811.17 222.758L1806.55 215.918L1807.15 223.097C1806.95 225.258 1806.61 229.942 1806.85 231.383C1807.09 232.824 1807.74 238.708 1808.04 241.47L1808.34 251.557L1809.82 268.849V275.694L1809.53 282.899L1810.42 291.546V360.639L1810.12 369.285L1813.1 382.975L1813.39 399.907L1812.2 412.876L1815.18 425.125L1819.94 435.933L1819.34 446.741L1824.1 468.356L1823.8 478.443L1824.1 487.45L1824.7 495.015L1822.32 504.382L1823.8 519.513L1824.7 528.88L1828.27 541.849L1828.86 548.333L1830.94 562.744L1830.65 569.949L1828.86 581.837L1830.35 590.123L1831.84 599.49L1834.81 608.857L1837.44 627.949L1844.15 626.73L1847.22 625.124H1850.69L1858.03 624.012L1866.2 623.023L1876.3 622.035L1885.07 620.908L1893.27 619.816L1901.08 618.724L1907.92 617.996L1911.3 616.631L1916.72 615.448L1920.85 613.264L1923.91 611.343L1924.68 607.346V599.617L1925.23 544.219L1924.68 525.83L1923.91 519.301L1923.03 513.971V510.24L1922.37 503.311L1921.49 494.117L1920.16 482.524L1917.85 466.134L1912.42 452.858L1904.83 440.466L1894.48 422.877L1889.2 415.414L1884.03 406.487L1874.34 390.763L1872.14 385.7L1870.6 382.502L1865.43 372.908L1856.84 358.117L1849.8 287.518L1843.2 275.392L1837.47 264.199L1830.98 253.939L1825.7 245.411L1821.15 237.682L1815.57 229.421L1811.17 222.758Z" fill="#32291B"/>
<rect x="2640" y="143" width="720" height="937" fill="#F2DCD0"/>
<path d="M3360 268V273C2432.4 272.352 1779.08 193.749 2029.5 514C2132.46 645.671 1966.5 686 1764 686H1659.5V681H1764C1945.4 683.21 2128.42 649.896 2023.5 514C1777.18 194.977 2407.93 266.051 3360 268Z" fill="#E7D0C4"/>
<path d="M3360 255V260C2432.4 259.352 1741.39 183.51 1993.5 504C2104.87 645.57 1923.5 675 1728 676H1663.5V671H1728C1909.4 668.21 2099.29 648.108 1987.5 504C1739.19 183.899 2407.93 253.051 3360 255Z" fill="#E7D0C4"/>
</svg>
