<svg width="512" height="512" viewBox="0 0 512 512" fill="none" xmlns="http://www.w3.org/2000/svg">
<g clip-path="url(#clip0_286_7526)">
<path d="M322.19 512H122.69L122.51 482.87C122.508 482.756 122.53 482.643 122.574 482.538C122.617 482.432 122.682 482.336 122.764 482.255C122.846 482.175 122.943 482.11 123.05 482.066C123.158 482.023 123.273 482 123.39 482L205.31 481.94C205.493 481.94 205.668 481.867 205.797 481.738C205.927 481.608 206 481.433 206 481.25V308.72C206 308.108 205.776 307.518 205.37 307.06L28.8095 109.16C28.2695 108.553 28.4062 108.25 29.2195 108.25H110.55C111.396 108.25 111.53 107.94 110.95 107.32L29.7895 21.14C29.7186 21.0642 29.6632 20.9754 29.6263 20.8786C29.5895 20.7818 29.5719 20.6789 29.5747 20.5758C29.5775 20.4727 29.6005 20.3715 29.6426 20.2778C29.6846 20.1842 29.7447 20.0999 29.8195 20.03L50.7095 0.459969C50.8332 0.345403 50.9972 0.284289 51.1657 0.289906C51.3342 0.295524 51.4937 0.367419 51.6095 0.489969L152.49 107.59C152.686 107.798 152.921 107.964 153.183 108.078C153.444 108.191 153.726 108.25 154.01 108.25H277.79C278.035 108.251 278.273 108.163 278.46 108.004C278.648 107.844 278.771 107.623 278.81 107.38C281.303 91.64 287.226 77.1933 296.58 64.04C309.093 46.44 325.23 33.9533 344.99 26.58C351.13 24.2866 357.566 22.61 364.3 21.55C389.693 17.5633 413.19 22.24 434.79 35.58C440.583 39.16 445.896 43.17 450.73 47.61C461.963 57.9233 470.47 70.1366 476.25 84.25C482.51 99.53 484.926 115.697 483.5 132.75C481.74 153.81 473.676 172.913 459.31 190.06C447.256 204.453 432.103 214.747 413.85 220.94C407.543 223.08 401.063 224.583 394.41 225.45C369.496 228.697 346.276 223.517 324.75 209.91C324.545 209.781 324.302 209.729 324.064 209.762C323.826 209.795 323.608 209.911 323.45 210.09L236.82 307.16C236.452 307.572 236.249 308.11 236.25 308.67C236.25 365.31 236.303 421.42 236.41 477C236.41 478.267 236.273 479.517 236 480.75C235.967 480.901 235.968 481.057 236.003 481.207C236.039 481.357 236.108 481.497 236.205 481.617C236.302 481.737 236.424 481.834 236.564 481.9C236.703 481.966 236.855 482.001 237.01 482L321.82 482.18C321.952 482.182 322.079 482.236 322.174 482.329C322.269 482.422 322.324 482.547 322.33 482.68C322.683 492.46 322.636 502.233 322.19 512ZM95.4395 138.72L134.61 182.56C134.805 182.777 135.045 182.951 135.314 183.07C135.583 183.189 135.874 183.25 136.17 183.25H306.27C306.553 183.25 306.833 183.191 307.091 183.075C307.35 182.96 307.581 182.791 307.77 182.58L346.5 139.13C347.026 138.543 346.893 138.25 346.1 138.25H95.6495C95.2295 138.25 95.1595 138.407 95.4395 138.72Z" fill="#685151"/>
</g>
<defs>
<clipPath id="clip0_286_7526">
<rect width="512" height="512" fill="white"/>
</clipPath>
</defs>
</svg>
