<svg width="512" height="512" viewBox="0 0 512 512" fill="none" xmlns="http://www.w3.org/2000/svg">
<g clip-path="url(#clip0_286_7528)">
<path d="M45.3114 0H63.5614C205.615 142.267 347.745 284.46 489.951 426.58C496.958 433.587 501.165 438.023 502.571 439.89C506.478 445.07 509.121 450.69 510.501 456.75C513.168 468.45 511.665 479.223 505.991 489.07C502.571 495.01 498.128 499.9 492.661 503.74C485.441 508.827 477.118 511.58 467.691 512H465.691C452.218 511.167 440.885 505.603 431.691 495.31C376.838 433.917 321.715 372.267 266.321 310.36C266.241 310.271 266.144 310.199 266.036 310.149C265.928 310.098 265.811 310.07 265.692 310.067C265.573 310.063 265.455 310.083 265.345 310.127C265.235 310.171 265.135 310.236 265.051 310.32L242.091 333.29C241.95 333.429 241.76 333.506 241.563 333.506C241.367 333.506 241.179 333.429 241.041 333.29C181.895 274.343 122.798 215.213 63.7514 155.9C57.3514 149.48 52.8514 144.57 50.2514 141.17C42.8981 131.563 37.5014 121.07 34.0614 109.69C28.8014 92.2633 27.3447 74.1133 29.6914 55.24C32.0714 36.02 37.2781 17.6067 45.3114 0Z" fill="#685151"/>
<path d="M490.831 85.97L511.131 106.13C511.171 106.171 511.204 106.219 511.226 106.272C511.248 106.325 511.26 106.381 511.26 106.438C511.26 106.495 511.248 106.551 511.226 106.603C511.204 106.655 511.171 106.701 511.131 106.74C478.824 139.053 446.534 171.343 414.261 203.61C406.727 211.143 401.921 215.757 399.841 217.45C388.114 226.977 374.411 232.497 358.731 234.01C353.957 234.477 349.101 235.54 344.161 237.2C343.917 237.281 343.656 237.294 343.406 237.236C343.155 237.177 342.925 237.051 342.741 236.87L275.051 169.18C274.874 169.001 274.749 168.779 274.688 168.536C274.626 168.294 274.631 168.039 274.701 167.8C275.927 163.547 276.824 159.393 277.391 155.34C278.451 147.807 279.041 143.777 279.161 143.25C282.507 128.943 289.767 116.173 300.941 104.94C335.514 70.1667 370.184 35.4933 404.951 0.919992C405.046 0.82473 405.176 0.77124 405.311 0.77124C405.446 0.77124 405.575 0.82473 405.671 0.919992L426.001 21C426.074 21.0734 426.133 21.1607 426.173 21.2568C426.213 21.3529 426.233 21.4559 426.233 21.56C426.233 21.6641 426.213 21.7671 426.173 21.8632C426.133 21.9593 426.074 22.0466 426.001 22.12L345.771 102.35C345.632 102.491 345.554 102.681 345.554 102.878C345.554 103.075 345.632 103.262 345.771 103.4L366.061 123.81C366.11 123.86 366.17 123.9 366.234 123.927C366.299 123.954 366.369 123.968 366.439 123.968C366.508 123.968 366.577 123.954 366.641 123.927C366.705 123.9 366.763 123.86 366.811 123.81L447.421 43.21C447.471 43.1577 447.532 43.1162 447.599 43.0878C447.667 43.0595 447.739 43.0449 447.813 43.0449C447.886 43.0449 447.959 43.0595 448.027 43.0878C448.096 43.1162 448.158 43.1577 448.211 43.21L468.441 63.45C468.522 63.5293 468.586 63.6238 468.631 63.7281C468.675 63.8324 468.699 63.9445 468.699 64.0579C468.7 64.1713 468.679 64.2838 468.636 64.3888C468.593 64.4938 468.53 64.5894 468.451 64.67L388.231 144.89C388.087 145.034 388.007 145.23 388.009 145.436C388.011 145.642 388.094 145.841 388.241 145.99L408.261 166C408.426 166.164 408.649 166.258 408.879 166.26C409.11 166.262 409.33 166.172 409.491 166.01L489.651 85.97C489.728 85.892 489.82 85.8301 489.921 85.7878C490.022 85.7455 490.131 85.7238 490.241 85.7238C490.35 85.7238 490.459 85.7455 490.56 85.7878C490.662 85.8301 490.753 85.892 490.831 85.97Z" fill="#685151"/>
<path d="M109.581 465.83C98.7873 476.617 87.9907 487.403 77.1907 498.19C68.0707 507.29 57.2307 511.69 44.6707 511.39C37.904 511.23 31.4807 509.69 25.4007 506.77C15.0007 501.777 7.70401 493.883 3.51068 483.09C1.02401 476.69 0.0406815 470.163 0.560681 463.51C1.45401 451.983 6.37068 441.75 15.3107 432.81C62.104 386.017 109.041 339.083 156.121 292.01C156.273 291.859 156.478 291.773 156.689 291.771C156.901 291.769 157.103 291.852 157.251 292L220.031 354.66C220.084 354.713 220.127 354.776 220.156 354.846C220.185 354.915 220.2 354.99 220.2 355.065C220.2 355.14 220.185 355.215 220.156 355.284C220.127 355.354 220.084 355.417 220.031 355.47C183.284 392.183 146.467 428.97 109.581 465.83Z" fill="#685151"/>
</g>
<defs>
<clipPath id="clip0_286_7528">
<rect width="512" height="512" fill="white"/>
</clipPath>
</defs>
</svg>
