<svg width="512" height="512" viewBox="0 0 512 512" fill="none" xmlns="http://www.w3.org/2000/svg">
<g clip-path="url(#clip0_286_7532)">
<path d="M251.561 0H263.061C330.381 2.87333 387.698 27.2433 435.011 73.11C439.818 77.77 444.398 82.61 448.751 87.63C488.758 133.77 509.841 187.997 512.001 250.31V260.56C510.181 323.547 488.808 378.517 447.881 425.47C447.812 425.549 447.727 425.613 447.632 425.658C447.538 425.703 447.435 425.728 447.33 425.732C447.225 425.735 447.12 425.718 447.023 425.68C446.925 425.641 446.836 425.584 446.761 425.51L363.141 341.89C363.03 341.779 362.955 341.634 362.928 341.477C362.902 341.32 362.923 341.157 362.991 341.01C368.811 328.797 372.511 315.963 374.091 302.51C375.178 293.27 375.464 284.02 374.951 274.76C374.611 268.667 373.618 264.367 371.971 261.86C369.358 257.873 365.044 255.55 359.031 254.89C358.913 254.877 358.8 254.834 358.702 254.766C358.605 254.698 358.526 254.606 358.474 254.5C358.422 254.394 358.398 254.277 358.405 254.16C358.411 254.042 358.448 253.929 358.511 253.83C363.871 245.33 367.841 236.047 370.421 225.98C375.014 208.093 376.374 190.767 374.501 174C373.854 168.207 371.268 164.18 366.741 161.92C364.234 160.667 359.938 159.907 353.851 159.64C339.984 159.04 326.031 160.24 311.991 163.24C311.902 163.259 311.809 163.256 311.721 163.231C311.633 163.207 311.553 163.161 311.487 163.097C311.421 163.034 311.371 162.956 311.342 162.869C311.313 162.783 311.306 162.69 311.321 162.6C314.641 143.687 311.721 125.717 302.561 108.69C293.221 91.3167 281.368 76.72 267.001 64.9C264.134 62.54 261.514 61.0867 259.141 60.54C255.261 59.6467 251.641 60.1933 248.281 62.18C247.088 62.88 244.408 65.1133 240.241 68.88C227.461 80.42 217.158 93.8 209.331 109.02C205.891 115.707 203.428 121.887 201.941 127.56C198.948 138.967 198.564 150.693 200.791 162.74C200.809 162.828 200.805 162.919 200.778 163.004C200.75 163.09 200.702 163.167 200.636 163.229C200.57 163.291 200.489 163.335 200.401 163.358C200.312 163.381 200.22 163.382 200.131 163.36C194.278 161.947 188.258 160.907 182.071 160.24C181.741 160.208 181.437 160.062 181.211 159.83L86.5911 65.46C86.5012 65.3705 86.4308 65.2633 86.3843 65.1453C86.3378 65.0272 86.3162 64.9009 86.3209 64.7741C86.3256 64.6473 86.3565 64.5228 86.4116 64.4086C86.4667 64.2943 86.5448 64.1926 86.6411 64.11C134.128 23.0833 189.101 1.71333 251.561 0Z" fill="#685151"/>
<path d="M259.94 512H249.69C225.337 511.213 202.357 507.463 180.75 500.75C134.19 486.29 94.8567 460.653 62.75 423.84C58.3633 418.807 54.1933 413.607 50.24 408.24C18.8267 365.587 2.08 317.32 0 263.44V251.19C1.85333 188.297 23.2467 133.387 64.18 86.46C64.2414 86.3892 64.3166 86.3317 64.4008 86.291C64.485 86.2503 64.5765 86.2273 64.6695 86.2236C64.7624 86.2198 64.8549 86.2353 64.941 86.2691C65.0272 86.303 65.1051 86.3543 65.17 86.42L141.97 163.09C142.143 163.264 142.24 163.5 142.24 163.745C142.24 163.99 142.143 164.226 141.97 164.4C140.503 165.887 139.387 167.553 138.62 169.4C138.073 170.727 137.683 172.663 137.45 175.21C135.603 195.05 137.777 214.457 143.97 233.43C146.363 240.777 149.507 247.533 153.4 253.7C153.471 253.809 153.513 253.933 153.521 254.063C153.53 254.192 153.506 254.321 153.451 254.438C153.396 254.556 153.312 254.657 153.207 254.732C153.101 254.808 152.979 254.855 152.85 254.87C146.923 255.577 142.68 257.877 140.12 261.77C138.507 264.217 137.5 268.49 137.1 274.59C136.087 290.057 137.52 305.247 141.4 320.16C143.24 327.22 145.473 333.49 148.1 338.97C158.587 360.87 176.053 375.383 200.5 382.51C213.547 386.317 226.82 388.23 240.32 388.25C240.5 388.25 240.673 388.322 240.801 388.449C240.928 388.577 241 388.75 241 388.93C241 404.977 241 421 241 437C241 440.487 242.197 443.623 244.59 446.41C249.337 451.937 254.953 453.447 261.44 450.94C265.647 449.307 268.473 446.497 269.92 442.51C270.64 440.523 271 436.81 271 431.37C271 417.257 271 403.187 271 389.16C271 388.919 271.096 388.687 271.267 388.517C271.437 388.346 271.669 388.25 271.91 388.25C287.483 388.257 302.447 385.733 316.8 380.68C321.953 378.867 326.607 376.803 330.76 374.49C335.267 371.99 339.507 369.15 343.48 365.97C343.689 365.803 343.952 365.718 344.218 365.733C344.484 365.748 344.734 365.861 344.92 366.05L425.27 446.39C425.383 446.505 425.471 446.641 425.529 446.791C425.588 446.941 425.615 447.101 425.609 447.261C425.604 447.421 425.565 447.578 425.497 447.723C425.428 447.867 425.33 447.995 425.21 448.1C378.27 489.047 323.18 510.347 259.94 512Z" fill="#685151"/>
<path d="M256.6 199.03C256.522 199.11 256.429 199.173 256.327 199.217C256.225 199.26 256.115 199.283 256.004 199.284C255.893 199.285 255.784 199.264 255.682 199.222C255.58 199.18 255.487 199.118 255.41 199.04C246.73 190.3 239.833 180.707 234.72 170.26C228.78 158.127 227.727 145.727 231.56 133.06C233.533 126.553 236.67 120.11 240.97 113.73C245.223 107.417 250.05 101.48 255.45 95.92C255.52 95.8465 255.604 95.7878 255.698 95.7474C255.791 95.707 255.891 95.6857 255.993 95.6847C256.094 95.6838 256.195 95.7033 256.289 95.742C256.383 95.7807 256.468 95.8378 256.54 95.9101C264.14 103.53 270.36 111.9 275.2 121.02C278.76 127.733 281.013 133.967 281.96 139.72C283.653 150.02 282.11 160.137 277.33 170.07C272.303 180.503 265.393 190.157 256.6 199.03Z" fill="#685151"/>
<path d="M219.289 204.72C223.642 208.287 227.245 212.5 230.099 217.36C234.845 225.467 237.895 234.597 239.249 244.75C240.175 251.69 240.615 257.627 240.569 262.56C240.566 262.695 240.513 262.825 240.42 262.921C240.327 263.018 240.201 263.075 240.069 263.08C228.282 263.367 216.929 261.59 206.009 257.75C199.642 255.51 194.379 252.893 190.219 249.9C185.119 246.233 181.065 241.83 178.059 236.69C173.792 229.383 170.839 221.573 169.199 213.26C167.672 205.52 166.875 197.777 166.809 190.03C166.809 189.889 166.863 189.755 166.961 189.655C167.058 189.556 167.191 189.5 167.329 189.5C177.975 189.487 188.359 190.927 198.479 193.82C206.179 196.02 213.115 199.653 219.289 204.72Z" fill="#685151"/>
<path d="M286.449 210.94C290.442 206.113 295.192 202.203 300.699 199.21C308.085 195.203 315.929 192.513 324.229 191.14C331.082 190.007 337.715 189.477 344.129 189.55C344.358 189.553 344.576 189.645 344.737 189.808C344.898 189.971 344.989 190.191 344.989 190.42C345.042 202.167 343.329 213.2 339.849 223.52C337.589 230.22 334.849 235.763 331.629 240.15C327.735 245.443 323.005 249.623 317.439 252.69C309.985 256.79 302.065 259.597 293.679 261.11C287.005 262.317 279.859 263.043 272.239 263.29C272.118 263.294 271.998 263.274 271.885 263.23C271.772 263.187 271.669 263.121 271.583 263.037C271.496 262.953 271.427 262.853 271.38 262.742C271.333 262.63 271.309 262.511 271.309 262.39C271.315 252.283 272.699 242.187 275.459 232.1C277.612 224.247 281.275 217.193 286.449 210.94Z" fill="#685151"/>
<path d="M344.03 284.44C344.281 284.44 344.521 284.538 344.699 284.712C344.876 284.886 344.978 285.122 344.98 285.37C345.147 296.55 343.594 307.133 340.32 317.12C338.014 324.147 335.05 330.083 331.43 334.93C325.304 343.13 317.307 348.967 307.44 352.44C296.314 356.353 284.604 358.29 272.31 358.25C272.045 358.247 271.792 358.14 271.606 357.953C271.421 357.765 271.318 357.512 271.32 357.25C271.394 348.61 272.397 339.93 274.33 331.21C278.424 312.797 288.37 299.84 304.17 292.34C309.424 289.847 315.78 287.89 323.24 286.47C330.16 285.15 337.09 284.473 344.03 284.44Z" fill="#685151"/>
<path d="M186.11 341.39C182.704 338.277 179.857 334.71 177.57 330.69C173.357 323.29 170.487 315.397 168.96 307.01C167.627 299.67 166.914 292.47 166.82 285.41C166.819 285.29 166.841 285.17 166.886 285.059C166.931 284.947 166.997 284.846 167.08 284.76C167.164 284.674 167.264 284.607 167.374 284.56C167.483 284.514 167.601 284.49 167.72 284.49C181.9 284.543 195.057 287.067 207.19 292.06C215.244 295.38 221.854 300.53 227.02 307.51C230.48 312.19 233.394 318.15 235.76 325.39C239.14 335.743 240.744 346.47 240.57 357.57C240.568 357.703 240.514 357.83 240.419 357.924C240.324 358.019 240.196 358.075 240.06 358.08C223.854 358.547 208.854 355.167 195.06 347.94C192.247 346.467 189.264 344.283 186.11 341.39Z" fill="#685151"/>
</g>
<defs>
<clipPath id="clip0_286_7532">
<rect width="512" height="512" fill="white"/>
</clipPath>
</defs>
</svg>
