<svg width="512" height="512" viewBox="0 0 512 512" fill="none" xmlns="http://www.w3.org/2000/svg">
<g clip-path="url(#clip0_286_7540)">
<path d="M149.31 0H152.81C183.556 1.65333 207.933 15.18 225.94 40.58C226.01 40.6796 226.101 40.7637 226.205 40.8271C226.31 40.8905 226.426 40.9318 226.548 40.9487C226.67 40.9655 226.794 40.9575 226.913 40.925C227.031 40.8926 227.143 40.8364 227.24 40.76C233.08 36.1467 239.37 33.0133 246.11 31.36C252.703 29.74 259.296 29.74 265.89 31.36C272.63 33.0133 278.92 36.1467 284.76 40.76C284.865 40.8438 284.986 40.9051 285.117 40.94C285.247 40.975 285.383 40.9829 285.517 40.9632C285.651 40.9435 285.779 40.8968 285.895 40.8257C286.011 40.7547 286.111 40.6609 286.19 40.55C303.956 15.0433 328.413 1.52667 359.56 0H363.06C375.853 0.673333 387.063 4.61 396.69 11.81C407.396 19.8233 414.62 30.13 418.36 42.73C420.333 49.3767 421.146 55.9633 420.8 62.49C420.306 71.5767 417.72 80.4233 413.04 89.03C412.882 89.3181 412.649 89.5589 412.366 89.7276C412.083 89.8963 411.76 89.9869 411.43 89.99C395.39 90.1167 379.746 89.9867 364.5 89.6C364.246 89.5933 364.24 89.5133 364.48 89.36C364.533 89.3267 364.593 89.31 364.66 89.31C368.313 89.1367 371.573 88.2633 374.44 86.69C385.233 80.75 390.753 71.8533 391 60C391.08 56.1267 390.246 52.2167 388.5 48.27C386.866 44.5633 384.63 41.3433 381.79 38.61C377.796 34.7633 373.116 32.2033 367.75 30.93C363.403 29.9033 358.23 29.8533 352.23 30.78C333.996 33.6067 319.836 43.1567 309.75 59.43C304.71 67.5633 301.816 77.3267 301.07 88.72C301.047 89.0514 300.901 89.3617 300.661 89.5882C300.422 89.8147 300.107 89.9405 299.78 89.94L211.77 90C211.566 90.0001 211.371 89.9206 211.225 89.7787C211.079 89.6367 210.995 89.4434 210.99 89.24C210.77 79.7333 208.546 70.88 204.32 62.68C201.266 56.7467 197.3 51.43 192.42 46.73C183.126 37.7833 171.74 32.36 158.26 30.46C154.573 29.94 150.923 29.9233 147.31 30.41C143.67 30.9033 140.246 32.0067 137.04 33.72C130.02 37.48 125.29 42.9767 122.85 50.21C120.65 56.73 120.65 63.2567 122.85 69.79C125.89 78.8167 132.46 85.1167 142.56 88.69C143.833 89.1367 145.493 89.3433 147.54 89.31C147.644 89.3101 147.741 89.3379 147.82 89.39C148.006 89.5233 147.983 89.5933 147.75 89.6C131.81 90.08 115.87 90.1533 99.9297 89.82C99.7772 89.8168 99.6278 89.7737 99.4963 89.6948C99.3649 89.6159 99.2558 89.504 99.1797 89.37C95.813 83.53 93.4864 77.3733 92.1997 70.9C90.9664 64.68 90.8264 58.1933 91.7797 51.44C94.213 34.2067 102.806 20.4967 117.56 10.31C126.78 3.95 137.363 0.513333 149.31 0Z" fill="#685151"/>
<path d="M0 240.69V120.19L240.14 120C240.352 120 240.556 120.083 240.706 120.231C240.856 120.38 240.94 120.58 240.94 120.79L241 240.31C241 240.493 240.927 240.668 240.798 240.798C240.668 240.927 240.493 241 240.31 241C160.603 241 81.0833 241 1.75 241C0.903333 241 0.32 240.897 0 240.69Z" fill="#685151"/>
<path d="M512 120.06V240.81L271.81 241C271.595 241 271.389 240.915 271.237 240.763C271.085 240.611 271 240.405 271 240.19V120.66C271 120.573 271.017 120.488 271.05 120.407C271.083 120.327 271.132 120.255 271.193 120.193C271.255 120.132 271.327 120.083 271.407 120.05C271.488 120.017 271.573 120 271.66 120L512 120.06Z" fill="#685151"/>
<path d="M240.69 512H61.19L61 271.88C61 271.764 61.0228 271.65 61.067 271.543C61.1112 271.436 61.176 271.339 61.2577 271.258C61.3395 271.176 61.4365 271.111 61.5432 271.067C61.65 271.023 61.7644 271 61.88 271H240.31C240.401 271 240.49 271.018 240.574 271.053C240.658 271.087 240.734 271.138 240.798 271.202C240.862 271.266 240.913 271.342 240.947 271.426C240.982 271.51 241 271.599 241 271.69C241 351.397 241 430.917 241 510.25C241 511.097 240.897 511.68 240.69 512Z" fill="#685151"/>
<path d="M450.69 512H271.19L271 271.88C271 271.647 271.093 271.423 271.258 271.258C271.423 271.093 271.647 271 271.88 271H450.31C450.493 271 450.669 271.073 450.798 271.202C450.927 271.331 451 271.507 451 271.69C451 351.397 451 430.917 451 510.25C451 511.097 450.897 511.68 450.69 512Z" fill="#685151"/>
</g>
<defs>
<clipPath id="clip0_286_7540">
<rect width="512" height="512" fill="white"/>
</clipPath>
</defs>
</svg>
