<svg width="3360" height="1080" viewBox="0 0 3360 1080" fill="none" xmlns="http://www.w3.org/2000/svg">
<path d="M0 0H3360V300H0V0Z" fill="#E0D6CC"/>
<path d="M1333.96 8.07963L1324.02 0H0V300H1561.24L1560.3 296.811L1554.81 285.068L1549.9 274.894L1544.98 267.808L1537.42 257.229L1532.69 251.408L1523.24 240.019L1513.97 231.11L1500.55 218.709L1494.12 211.926L1483.34 201.752L1476.16 193.755L1469.54 184.441L1461.6 174.976L1456.87 170.775L1449.12 161.411L1442.12 153.059L1429.27 136.608L1419.25 121.828L1411.3 112.16L1404.5 103.96L1393.72 91.3568L1388.99 85.6877L1383.13 75.5137L1375.76 64.3274L1372.17 59.215L1361.58 44.688L1352.12 33.7237L1346.64 22.1128L1342.18 15.1054L1333.96 8.07963Z" fill="#89482C"/>
<path d="M1033.96 8.07963L1024.02 0H0V300H1261.24L1260.3 296.811L1254.81 285.068L1249.9 274.894L1244.98 267.808L1237.42 257.229L1232.69 251.408L1223.24 240.019L1213.97 231.11L1200.55 218.709L1194.12 211.926L1183.34 201.752L1176.16 193.755L1169.54 184.441L1161.6 174.976L1156.87 170.775L1149.12 161.411L1142.12 153.059L1129.27 136.608L1119.25 121.828L1111.3 112.16L1104.5 103.96L1093.72 91.3568L1088.99 85.6877L1083.13 75.5137L1075.76 64.3274L1072.17 59.215L1061.58 44.688L1052.12 33.7237L1046.64 22.1128L1042.18 15.1054L1033.96 8.07963Z" fill="#72381F"/>
</svg>
