<svg width="512" height="512" viewBox="0 0 512 512" fill="none" xmlns="http://www.w3.org/2000/svg">
<path d="M214.06 0H445.31L445.43 31.13C445.43 31.2114 445.446 31.292 445.476 31.3673C445.507 31.4425 445.552 31.5108 445.609 31.5684C445.665 31.626 445.733 31.6716 445.807 31.7028C445.881 31.734 445.96 31.75 446.04 31.75L507.8 31.81C507.986 31.81 508.164 31.8848 508.295 32.018C508.426 32.1511 508.5 32.3317 508.5 32.52V507.5C508.5 507.566 508.487 507.631 508.462 507.691C508.437 507.752 508.4 507.807 508.354 507.854C508.307 507.9 508.252 507.937 508.191 507.962C508.131 507.987 508.066 508 508 508H347.37C347.139 508 346.918 507.908 346.755 507.745C346.592 507.582 346.5 507.361 346.5 507.13V412.49C346.5 412.161 346.369 411.846 346.137 411.613C345.904 411.381 345.589 411.25 345.26 411.25H315.69C315.507 411.25 315.331 411.323 315.202 411.452C315.073 411.581 315 411.757 315 411.94V507.13C315 507.361 314.908 507.582 314.745 507.745C314.582 507.908 314.361 508 314.13 508H150.42C150.332 508 150.245 507.983 150.164 507.95C150.082 507.917 150.008 507.868 149.946 507.807C149.884 507.745 149.835 507.673 149.801 507.593C149.767 507.512 149.75 507.427 149.75 507.34L149.81 479.57C149.81 479.242 149.896 478.922 150.06 478.64C161.44 459.307 172.197 439.637 182.33 419.63C188.737 406.99 194.59 394.1 199.89 380.96C204.063 370.627 207.35 360.64 209.75 351C210.95 346.18 211.797 341.14 212.29 335.88C212.757 330.913 212.82 325.823 212.48 320.61C211.333 303.117 206.673 286.913 198.5 272C187.133 251.26 171.08 235.03 150.34 223.31C150.179 223.219 150.046 223.087 149.952 222.929C149.859 222.771 149.81 222.592 149.81 222.41L149.75 32.41C149.75 32.235 149.821 32.0671 149.946 31.9433C150.072 31.8195 150.242 31.75 150.42 31.75H213.43C213.581 31.75 213.726 31.6899 213.833 31.5831C213.94 31.4762 214 31.3312 214 31.18L214.06 0ZM315.56 142.29C325.64 141.857 335.723 141.817 345.81 142.17C345.947 142.175 346.077 142.232 346.172 142.329C346.267 142.426 346.32 142.555 346.32 142.69L346.49 177.82C346.49 178.067 346.586 178.303 346.757 178.478C346.927 178.652 347.159 178.75 347.4 178.75L377.44 178.69C377.573 178.69 377.7 178.636 377.794 178.541C377.887 178.445 377.94 178.315 377.94 178.18L378.06 74.24C378.06 74.0464 377.984 73.8607 377.849 73.7238C377.714 73.5869 377.531 73.51 377.34 73.51L347.18 73.68C347.047 73.68 346.92 73.7327 346.826 73.8264C346.733 73.9202 346.68 74.0474 346.68 74.18L346.51 109.72C346.51 109.927 346.429 110.125 346.284 110.272C346.14 110.418 345.944 110.5 345.74 110.5L315.7 110.44C315.514 110.44 315.336 110.365 315.205 110.232C315.074 110.099 315 109.918 315 109.73V74.17C315 74.082 314.983 73.9949 314.949 73.9136C314.915 73.8323 314.866 73.7585 314.804 73.6962C314.742 73.634 314.668 73.5847 314.586 73.551C314.505 73.5173 314.418 73.5 314.33 73.5H283.93C283.75 73.5 283.577 73.5706 283.449 73.6962C283.322 73.8219 283.25 73.9923 283.25 74.17L283.31 178.04C283.31 178.133 283.329 178.226 283.365 178.312C283.401 178.398 283.454 178.476 283.521 178.542C283.588 178.608 283.667 178.66 283.754 178.696C283.842 178.732 283.935 178.75 284.03 178.75L314.44 178.82C314.589 178.82 314.731 178.761 314.836 178.656C314.941 178.551 315 178.409 315 178.26L315.06 142.8C315.06 142.668 315.112 142.541 315.205 142.446C315.299 142.351 315.426 142.295 315.56 142.29ZM283.27 221.48C283.27 221.35 283.218 221.225 283.126 221.134C283.035 221.042 282.91 220.99 282.78 220.99H252.24C252.11 220.99 251.985 221.042 251.894 221.134C251.802 221.225 251.75 221.35 251.75 221.48V252C251.75 252.13 251.802 252.255 251.894 252.346C251.985 252.438 252.11 252.49 252.24 252.49H282.78C282.91 252.49 283.035 252.438 283.126 252.346C283.218 252.255 283.27 252.13 283.27 252V221.48ZM409.724 221.652C409.724 221.56 409.705 221.469 409.67 221.385C409.635 221.3 409.583 221.223 409.518 221.158C409.453 221.093 409.375 221.041 409.29 221.006C409.205 220.971 409.114 220.953 409.022 220.954L378.682 221.007C378.591 221.007 378.5 221.025 378.415 221.06C378.33 221.096 378.253 221.147 378.188 221.212C378.123 221.277 378.072 221.355 378.037 221.44C378.001 221.525 377.984 221.616 377.984 221.708L378.036 251.828C378.036 251.92 378.055 252.011 378.09 252.095C378.125 252.18 378.177 252.257 378.242 252.322C378.307 252.387 378.385 252.439 378.47 252.474C378.555 252.509 378.646 252.527 378.737 252.527L409.078 252.473C409.169 252.473 409.26 252.455 409.345 252.42C409.43 252.384 409.507 252.333 409.572 252.268C409.637 252.203 409.688 252.125 409.723 252.04C409.759 251.955 409.776 251.864 409.776 251.772L409.724 221.652ZM346.5 221.52C346.5 221.382 346.445 221.25 346.348 221.152C346.25 221.055 346.118 221 345.98 221H315.52C315.382 221 315.25 221.055 315.152 221.152C315.055 221.25 315 221.382 315 221.52V251.98C315 252.118 315.055 252.25 315.152 252.348C315.25 252.445 315.382 252.5 315.52 252.5H345.98C346.118 252.5 346.25 252.445 346.348 252.348C346.445 252.25 346.5 252.118 346.5 251.98V221.52ZM283.29 283.28C283.29 283.076 283.209 282.88 283.064 282.736C282.92 282.591 282.724 282.51 282.52 282.51H252.52C252.316 282.51 252.12 282.591 251.976 282.736C251.831 282.88 251.75 283.076 251.75 283.28V313.48C251.75 313.684 251.831 313.88 251.976 314.024C252.12 314.169 252.316 314.25 252.52 314.25H282.52C282.724 314.25 282.92 314.169 283.064 314.024C283.209 313.88 283.29 313.684 283.29 313.48V283.28ZM346.5 283.33C346.5 283.11 346.413 282.899 346.257 282.743C346.101 282.587 345.89 282.5 345.67 282.5H315.83C315.61 282.5 315.399 282.587 315.243 282.743C315.087 282.899 315 283.11 315 283.33V313.41C315 313.63 315.087 313.841 315.243 313.997C315.399 314.153 315.61 314.24 315.83 314.24H345.67C345.89 314.24 346.101 314.153 346.257 313.997C346.413 313.841 346.5 313.63 346.5 313.41V283.33ZM409.734 283.412C409.734 283.29 409.709 283.169 409.663 283.057C409.616 282.944 409.547 282.841 409.46 282.755C409.374 282.669 409.271 282.601 409.158 282.554C409.045 282.508 408.924 282.484 408.802 282.484L378.902 282.536C378.78 282.536 378.659 282.561 378.547 282.608C378.434 282.654 378.331 282.723 378.245 282.81C378.159 282.896 378.091 282.999 378.044 283.112C377.998 283.225 377.974 283.346 377.974 283.468L378.026 313.348C378.026 313.47 378.051 313.591 378.098 313.703C378.144 313.816 378.213 313.919 378.3 314.005C378.386 314.091 378.489 314.159 378.602 314.206C378.715 314.252 378.836 314.276 378.958 314.276L408.858 314.224C408.98 314.224 409.101 314.199 409.213 314.152C409.326 314.106 409.429 314.037 409.515 313.95C409.601 313.864 409.669 313.761 409.716 313.648C409.762 313.535 409.786 313.414 409.786 313.292L409.734 283.412ZM283.287 346.207C283.287 346.093 283.242 345.984 283.161 345.903C283.081 345.822 282.972 345.777 282.858 345.777L252.217 345.723C252.103 345.723 251.994 345.768 251.913 345.849C251.832 345.929 251.787 346.038 251.787 346.152L251.733 376.812C251.733 376.927 251.778 377.036 251.859 377.117C251.939 377.197 252.048 377.243 252.163 377.243L282.802 377.297C282.917 377.297 283.026 377.252 283.107 377.171C283.187 377.091 283.233 376.982 283.233 376.867L283.287 346.207ZM346.5 346.29C346.5 346.149 346.444 346.015 346.345 345.915C346.245 345.816 346.111 345.76 345.97 345.76H315.53C315.46 345.76 315.391 345.774 315.327 345.8C315.263 345.827 315.204 345.866 315.155 345.915C315.106 345.964 315.067 346.023 315.04 346.087C315.014 346.151 315 346.22 315 346.29V376.73C315 376.871 315.056 377.005 315.155 377.105C315.255 377.204 315.389 377.26 315.53 377.26H345.97C346.111 377.26 346.245 377.204 346.345 377.105C346.444 377.005 346.5 376.871 346.5 376.73V346.29ZM409.74 346.47C409.74 346.279 409.664 346.096 409.529 345.961C409.394 345.826 409.211 345.75 409.02 345.75H378.72C378.529 345.75 378.346 345.826 378.211 345.961C378.076 346.096 378 346.279 378 346.47V376.55C378 376.741 378.076 376.924 378.211 377.059C378.346 377.194 378.529 377.27 378.72 377.27H409.02C409.211 377.27 409.394 377.194 409.529 377.059C409.664 376.924 409.74 376.741 409.74 376.55V346.47Z" fill="#685151"/>
<path d="M150.441 261.84C167.774 276.813 177.861 296.203 180.701 320.01C181.647 327.89 181.147 335.67 179.201 343.35C177.034 351.903 174.277 360.263 170.931 368.43C162.084 390.003 151.987 410.98 140.641 431.36C125.474 458.607 109.501 485.26 92.7208 511.32C92.6829 511.38 92.6305 511.429 92.5684 511.463C92.5064 511.498 92.4367 511.516 92.3658 511.516C92.2949 511.516 92.2252 511.498 92.1631 511.463C92.1011 511.429 92.0487 511.38 92.0108 511.32C75.7108 486 60.3275 460.363 45.8608 434.41C38.2008 420.677 30.9575 406.727 24.1308 392.56C17.7641 379.353 12.1175 364.937 7.19079 349.31C5.25079 343.157 4.09079 337.057 3.71079 331.01C3.35746 325.33 3.80413 319.187 5.05079 312.58C8.76413 292.847 18.1441 276.217 33.1908 262.69C47.9641 249.397 65.5675 241.917 86.0008 240.25C102.947 238.863 118.961 242.27 134.041 250.47C139.881 253.65 145.347 257.44 150.441 261.84ZM150.881 328.86C150.881 313.337 144.714 298.45 133.738 287.473C122.761 276.497 107.874 270.33 92.3508 270.33C84.6645 270.33 77.0535 271.844 69.9523 274.785C62.8511 277.727 56.3988 282.038 50.9638 287.473C45.5288 292.908 41.2175 299.36 38.2761 306.462C35.3347 313.563 33.8208 321.174 33.8208 328.86C33.8208 344.383 39.9873 359.27 50.9638 370.247C61.9403 381.223 76.8277 387.39 92.3508 387.39C107.874 387.39 122.761 381.223 133.738 370.247C144.714 359.27 150.881 344.383 150.881 328.86Z" fill="#685151"/>
<path d="M92.3492 355.76C107.206 355.76 119.249 343.716 119.249 328.86C119.249 314.003 107.206 301.96 92.3492 301.96C77.4928 301.96 65.4492 314.003 65.4492 328.86C65.4492 343.716 77.4928 355.76 92.3492 355.76Z" fill="#685151"/>
</svg>
