<svg width="512" height="512" viewBox="0 0 512 512" fill="none" xmlns="http://www.w3.org/2000/svg">
<path d="M210.85 32.42C208.324 30.44 206.004 28.6333 203.89 27C203.03 26.3333 203.144 26 204.23 26L307.81 26.06C308.664 26.06 308.754 26.3267 308.08 26.86L256.65 67.02C256.451 67.1771 256.205 67.2634 255.952 67.2652C255.698 67.267 255.451 67.1843 255.25 67.03C240.277 55.4167 225.477 43.88 210.85 32.42Z" fill="#685151"/>
<path d="M250.45 76.14C250.621 76.274 250.76 76.4463 250.855 76.6438C250.95 76.8413 251 77.0589 251 77.28V110.16C251 110.987 250.667 111.157 250 110.67L193.84 69.95C193.657 69.8164 193.508 69.6426 193.406 69.4428C193.303 69.2429 193.25 69.0227 193.25 68.8V32.4C193.25 31.7466 193.507 31.62 194.02 32.02L250.45 76.14Z" fill="#685151"/>
<path d="M260.942 110.05L261.002 77.12C261.001 76.8837 261.055 76.6506 261.16 76.4391C261.264 76.2275 261.415 76.0431 261.602 75.9L317.811 31.9C318.271 31.54 318.501 31.65 318.501 32.23V68.73C318.502 68.9841 318.442 69.2343 318.327 69.4603C318.212 69.6862 318.046 69.8815 317.841 70.03L261.952 110.57C261.272 111.057 260.935 110.883 260.942 110.05Z" fill="#685151"/>
<path d="M249.64 122.68C250.547 123.333 251 124.22 251 125.34V171.31C251 171.493 250.927 171.668 250.798 171.798C250.668 171.927 250.493 172 250.31 172C205.737 172 161.34 172 117.12 172C112.2 172 109.3 171.877 108.42 171.63C106.12 170.99 104.37 169.6 103.17 167.46C102.39 166.053 102 164.003 102 161.31C102 139.457 102 117.603 102 95.75C102 94.3633 102.52 93.1266 103.56 92.04C104.18 91.3933 105.263 90.71 106.81 89.99C131.063 78.6633 156.41 70.1166 182.85 64.35C182.89 64.3412 182.931 64.3412 182.971 64.35C183.011 64.3588 183.048 64.3762 183.08 64.401C183.113 64.4257 183.139 64.4573 183.158 64.4934C183.177 64.5295 183.188 64.5692 183.19 64.61L183.26 71.85C183.273 73.59 183.953 74.95 185.3 75.93L249.64 122.68Z" fill="#685151"/>
<path d="M328.131 73.9C328.631 72.78 328.821 71.5566 328.701 70.23C328.568 68.7433 328.501 67.1066 328.501 65.32C328.502 65.1944 328.53 65.0705 328.584 64.9573C328.638 64.8441 328.716 64.7445 328.813 64.6658C328.91 64.5872 329.023 64.5314 329.144 64.5027C329.265 64.474 329.39 64.4731 329.511 64.5C353.738 69.76 377.151 77.45 399.751 87.57C404.258 89.5833 406.621 90.6733 406.841 90.84C408.948 92.4266 409.945 94.8 409.831 97.96C409.778 99.3266 409.751 100.02 409.751 100.04C409.751 120.36 409.751 140.68 409.751 161C409.751 166.573 407.788 170.03 403.861 171.37C402.648 171.79 399.218 172 393.571 172C349.625 172 305.625 172 261.571 172C261.488 172 261.405 171.983 261.328 171.951C261.251 171.919 261.181 171.871 261.122 171.812C261.064 171.752 261.018 171.682 260.987 171.604C260.955 171.527 260.94 171.444 260.941 171.36L261.001 124.23C261.002 124.004 261.055 123.781 261.158 123.581C261.261 123.381 261.409 123.209 261.591 123.08C282.965 107.647 304.345 92.12 325.731 76.5C326.951 75.6133 327.751 74.7466 328.131 73.9Z" fill="#685151"/>
<path d="M61.9413 186.05C60.9613 185.983 59.8746 185.97 58.6813 186.01C58.5858 186.014 58.4907 185.996 58.4033 185.957C58.316 185.918 58.2389 185.859 58.1779 185.784C58.1169 185.71 58.0737 185.622 58.0518 185.527C58.0298 185.433 58.0296 185.335 58.0513 185.24C60.6513 174.68 63.6846 164.45 67.1513 154.55C72.3913 139.577 80.4379 126.077 91.2913 114.05C91.9246 113.35 92.2313 113.47 92.2113 114.41C91.8846 130.623 91.8713 146.513 92.1713 162.08C92.2379 165.46 92.6079 168.023 93.2813 169.77C94.2146 172.17 95.6479 174.41 97.5813 176.49C97.7337 176.654 97.8159 176.872 97.8103 177.096C97.8046 177.32 97.7117 177.533 97.5513 177.69C94.8913 180.317 93.2179 183.403 92.5313 186.95C92.4832 187.199 92.3473 187.423 92.1487 187.579C91.9502 187.735 91.7024 187.814 91.4513 187.8C81.2913 187.267 71.4546 186.683 61.9413 186.05Z" fill="#685151"/>
<path d="M419.7 161.42C419.76 145.84 419.777 130.123 419.75 114.27C419.75 113.603 419.973 113.517 420.42 114.01C432.54 127.323 441.21 142.41 446.43 159.27C448.963 167.463 451.41 176.053 453.77 185.04C453.797 185.141 453.801 185.247 453.782 185.35C453.763 185.453 453.721 185.551 453.66 185.636C453.599 185.721 453.519 185.792 453.428 185.842C453.336 185.893 453.234 185.923 453.13 185.93L420.26 187.76C420.066 187.771 419.874 187.714 419.717 187.599C419.56 187.484 419.448 187.318 419.4 187.13C418.46 183.243 416.8 180.09 414.42 177.67C414.235 177.485 414.129 177.235 414.125 176.972C414.121 176.709 414.22 176.454 414.4 176.26C416.38 174.12 417.823 171.81 418.73 169.33C419.363 167.583 419.687 164.947 419.7 161.42Z" fill="#685151"/>
<path d="M105.12 257.99C102.974 255.99 101.904 253.577 101.91 250.75C101.964 233.99 101.994 217.227 102 200.46C102 193.5 102.127 189.54 102.38 188.58C103.367 184.813 105.937 182.637 110.09 182.05C110.35 182.017 113.464 182 119.43 182C162.877 182 206.37 182 249.91 182C250.053 182 250.195 182.028 250.327 182.083C250.46 182.138 250.58 182.218 250.681 182.319C250.782 182.42 250.862 182.541 250.917 182.673C250.972 182.805 251 182.947 251 183.09V259.38C251 259.595 250.916 259.801 250.766 259.953C250.616 260.105 250.412 260.19 250.2 260.19C205.714 260.263 161.147 260.33 116.5 260.39C113.994 260.39 111.734 260.287 109.72 260.08C107.954 259.893 106.42 259.197 105.12 257.99Z" fill="#685151"/>
<path d="M408.5 255.78C407.453 257.653 406.02 258.943 404.2 259.65C403.167 260.05 401.343 260.25 398.73 260.25C352.99 260.25 307.247 260.25 261.5 260.25C261.434 260.25 261.369 260.237 261.309 260.212C261.248 260.187 261.193 260.15 261.146 260.104C261.1 260.057 261.063 260.002 261.038 259.941C261.013 259.881 261 259.816 261 259.75V182.78C261 182.573 261.082 182.375 261.228 182.228C261.375 182.082 261.573 182 261.78 182C305.76 182 349.44 182 392.82 182C398.9 182 402.5 182.163 403.62 182.49C406.913 183.45 408.887 185.727 409.54 189.32C409.68 190.087 409.75 192.88 409.75 197.7C409.75 214.8 409.75 231.9 409.75 249C409.75 252.033 409.333 254.293 408.5 255.78Z" fill="#685151"/>
<path d="M91.4392 197.83C91.5745 197.838 91.7018 197.897 91.7948 197.995C91.8878 198.094 91.9395 198.224 91.9392 198.36C92.0126 215.473 91.9626 232.687 91.7892 250C91.7359 255.647 93.6026 260.57 97.3892 264.77C97.5256 264.922 97.6019 265.119 97.6037 265.323C97.6056 265.527 97.5329 265.725 97.3992 265.88C94.0792 269.733 92.2692 273.777 91.9692 278.01C91.9591 278.173 91.8841 278.325 91.7605 278.434C91.637 278.542 91.4748 278.598 91.3092 278.59L43.4992 275.83C43.3996 275.825 43.302 275.8 43.2125 275.756C43.123 275.711 43.0435 275.649 42.9788 275.572C42.9142 275.495 42.8658 275.405 42.8366 275.309C42.8074 275.212 42.7981 275.11 42.8092 275.01C44.4692 260.53 46.3959 245.917 48.5892 231.17C50.3426 219.437 52.6259 207.81 55.4392 196.29C55.4734 196.155 55.5535 196.036 55.6663 195.952C55.7791 195.868 55.9178 195.825 56.0592 195.83L91.4392 197.83Z" fill="#685151"/>
<path d="M419.7 249.62C419.76 232.647 419.777 215.563 419.75 198.37C419.75 198.213 419.809 198.062 419.915 197.949C420.021 197.835 420.167 197.768 420.32 197.76L455.75 195.73C455.927 195.721 456.1 195.775 456.24 195.881C456.379 195.987 456.475 196.139 456.51 196.31C458.137 203.557 459.634 210.84 461 218.16C462.04 223.74 463.087 230.32 464.14 237.9C465.874 250.36 467.54 262.747 469.14 275.06C469.152 275.154 469.144 275.249 469.117 275.34C469.09 275.43 469.046 275.514 468.986 275.586C468.926 275.659 468.852 275.717 468.768 275.759C468.685 275.801 468.594 275.825 468.5 275.83L420.37 278.53C420.222 278.539 420.077 278.49 419.965 278.395C419.853 278.3 419.783 278.165 419.77 278.02C419.337 273.173 417.517 269.06 414.31 265.68C414.178 265.541 414.103 265.357 414.102 265.165C414.1 264.972 414.171 264.784 414.3 264.64C416.28 262.433 417.737 260.093 418.67 257.62C419.35 255.813 419.694 253.147 419.7 249.62Z" fill="#685151"/>
<path d="M104.9 346.1C103.047 344.427 102.117 342.31 102.11 339.75C102.037 320.083 102 300.417 102 280.75C102 276.457 103.447 273.417 106.34 271.63C107.827 270.71 110.193 270.25 113.44 270.25C158.88 270.25 204.43 270.25 250.09 270.25C250.331 270.25 250.563 270.346 250.733 270.517C250.904 270.687 251 270.919 251 271.16V347.57C251 347.817 250.902 348.053 250.728 348.228C250.553 348.402 250.317 348.5 250.07 348.5C205.13 348.5 160.05 348.5 114.83 348.5C111.71 348.5 109.99 348.473 109.67 348.42C107.903 348.14 106.313 347.367 104.9 346.1Z" fill="#685151"/>
<path d="M261.55 348.56C261.478 348.56 261.406 348.546 261.34 348.519C261.273 348.492 261.212 348.452 261.161 348.402C261.11 348.352 261.07 348.292 261.042 348.227C261.014 348.161 261 348.091 261 348.02V270.94C261 270.757 261.073 270.581 261.202 270.452C261.331 270.323 261.507 270.25 261.69 270.25C307.897 270.25 354.083 270.25 400.25 270.25C404.09 270.25 406.803 271.62 408.39 274.36C409.297 275.92 409.75 278.597 409.75 282.39C409.75 301.177 409.75 319.963 409.75 338.75C409.75 343.77 407.827 346.853 403.98 348C402.873 348.333 399.703 348.5 394.47 348.5C350.13 348.473 305.823 348.493 261.55 348.56Z" fill="#685151"/>
<path d="M31.4499 365.81C31.3841 365.806 31.3197 365.789 31.2607 365.76C31.2018 365.73 31.1496 365.689 31.1073 365.638C31.0651 365.587 31.0338 365.528 31.0153 365.465C30.9968 365.402 30.9916 365.335 30.9999 365.27L41.2799 286.31C41.2925 286.196 41.3482 286.091 41.4356 286.017C41.5229 285.942 41.6354 285.904 41.7499 285.91C57.7299 286.71 73.1466 287.553 88 288.44C88.0533 288.44 88.7133 288.42 89.98 288.38C91.5333 288.32 92.2466 289.093 92.12 290.7C92.04 291.693 92 292.23 92 292.31C92 307.057 92 321.803 92 336.55C92 340.69 92.2633 343.627 92.79 345.36C93.6766 348.26 95.2499 350.853 97.5099 353.14C97.637 353.267 97.7083 353.44 97.7083 353.62C97.7083 353.8 97.637 353.973 97.5099 354.1C93.7033 358 91.87 362.73 92.01 368.29C92.0144 368.415 91.9925 368.54 91.9455 368.656C91.8986 368.772 91.8277 368.877 91.7374 368.964C91.6471 369.052 91.5393 369.12 91.4209 369.164C91.3026 369.208 91.1762 369.227 91.05 369.22L31.4499 365.81Z" fill="#685151"/>
<path d="M414.239 353.21C417.886 348.943 419.712 344.207 419.719 339C419.739 322.587 419.749 306.01 419.749 289.27C419.749 289.129 419.802 288.994 419.899 288.891C419.996 288.789 420.128 288.728 420.269 288.72L469.809 285.96C469.947 285.954 470.082 286 470.188 286.089C470.293 286.178 470.361 286.303 470.379 286.44L480.649 365.13C480.659 365.206 480.653 365.283 480.631 365.357C480.61 365.43 480.574 365.499 480.525 365.558C480.477 365.617 480.416 365.665 480.348 365.7C480.28 365.735 480.205 365.755 480.129 365.76L420.319 369.17C420.254 369.173 420.19 369.162 420.129 369.139C420.069 369.115 420.013 369.08 419.967 369.034C419.92 368.988 419.883 368.933 419.857 368.872C419.832 368.811 419.819 368.746 419.819 368.68C419.832 362.94 417.979 358.057 414.259 354.03C414.156 353.919 414.098 353.775 414.094 353.624C414.09 353.473 414.142 353.326 414.239 353.21Z" fill="#685151"/>
<path d="M105.69 435.05C103.323 433.337 102.137 430.987 102.13 428C102.05 409.587 102.007 391.173 102 372.76C102 368.793 102.027 366.627 102.08 366.26C102.467 363.76 103.637 361.81 105.59 360.41C107.163 359.283 109.57 358.677 112.81 358.59C115.043 358.53 117.773 358.5 121 358.5C164.087 358.5 207.057 358.5 249.91 358.5C250.199 358.5 250.476 358.615 250.681 358.819C250.885 359.024 251 359.301 251 359.59V436.09C251 436.177 250.983 436.262 250.95 436.343C250.917 436.423 250.868 436.495 250.807 436.557C250.745 436.618 250.673 436.667 250.593 436.7C250.513 436.733 250.427 436.75 250.34 436.75C204.113 436.75 158 436.75 112 436.75C109.36 436.75 107.257 436.183 105.69 435.05Z" fill="#685151"/>
<path d="M405.8 360.21C408.473 361.963 409.807 364.477 409.8 367.75C409.767 387.75 409.75 407.75 409.75 427.75C409.75 431.237 408.46 433.777 405.88 435.37C404.393 436.29 402.047 436.75 398.84 436.75C353.4 436.723 307.657 436.747 261.61 436.82C261.448 436.82 261.293 436.756 261.179 436.641C261.064 436.527 261 436.372 261 436.21V359.08C261 358.942 261.055 358.81 261.152 358.712C261.25 358.615 261.382 358.56 261.52 358.56C307.733 358.487 353.81 358.443 399.75 358.43C401.963 358.43 403.98 359.023 405.8 360.21Z" fill="#685151"/>
<path d="M22.5508 435.82C22.4603 435.815 22.3718 435.792 22.2908 435.751C22.2097 435.71 22.1379 435.653 22.0797 435.582C22.0215 435.512 21.9783 435.43 21.9527 435.342C21.9271 435.254 21.9196 435.161 21.9308 435.07L29.5208 376.36C29.5459 376.175 29.6392 376.006 29.7821 375.887C29.9249 375.768 30.1067 375.709 30.2908 375.72L91.1808 379.23C91.4028 379.243 91.6114 379.34 91.7639 379.502C91.9164 379.664 92.0012 379.878 92.0008 380.1V417.86C92.0008 418.52 91.9175 419.117 91.7508 419.65L85.6108 438.96C85.5647 439.098 85.475 439.217 85.3557 439.298C85.2363 439.38 85.094 439.419 84.9508 439.41L22.5508 435.82Z" fill="#685151"/>
<path d="M427.16 439.39C426.891 439.405 426.625 439.329 426.402 439.176C426.18 439.022 426.014 438.798 425.93 438.54L420.14 420.15C419.88 419.323 419.75 418.46 419.75 417.56V380.01C419.75 379.82 419.822 379.638 419.952 379.5C420.083 379.363 420.261 379.28 420.45 379.27L481.6 375.74C481.746 375.731 481.89 375.779 482.003 375.874C482.116 375.968 482.19 376.103 482.21 376.25L489.8 434.86C489.815 434.978 489.807 435.098 489.774 435.212C489.741 435.326 489.686 435.432 489.611 435.523C489.535 435.614 489.442 435.688 489.337 435.741C489.232 435.794 489.117 435.824 489 435.83L427.16 439.39Z" fill="#685151"/>
<path d="M26.949 446.09L77.129 448.99C77.2032 448.994 77.2756 449.015 77.3413 449.049C77.407 449.084 77.4646 449.132 77.5101 449.191C77.5556 449.25 77.5879 449.317 77.605 449.39C77.6221 449.462 77.6234 449.537 77.609 449.61L72.559 476.64C72.5281 476.796 72.4413 476.935 72.3146 477.032C72.1879 477.129 72.0298 477.178 71.869 477.17L24.239 474.68C24.1141 474.674 23.9918 474.642 23.8793 474.588C23.7668 474.533 23.6664 474.456 23.5843 474.362C23.5021 474.268 23.4398 474.158 23.4011 474.039C23.3624 473.92 23.3481 473.795 23.359 473.67L25.619 447.25C25.6446 446.921 25.7983 446.615 26.047 446.398C26.2957 446.181 26.6196 446.071 26.949 446.09Z" fill="#685151"/>
<path d="M441.682 477.1C441.476 477.111 441.274 477.047 441.112 476.92C440.951 476.793 440.84 476.612 440.802 476.41L435.742 449.81C435.719 449.692 435.722 449.57 435.75 449.452C435.779 449.335 435.832 449.225 435.907 449.129C435.982 449.034 436.076 448.955 436.184 448.898C436.291 448.841 436.41 448.808 436.532 448.8L486.872 445.96C487.09 445.949 487.304 446.022 487.468 446.163C487.632 446.305 487.734 446.505 487.752 446.72L490.082 473.76C490.093 473.871 490.081 473.983 490.047 474.089C490.014 474.195 489.958 474.294 489.885 474.378C489.812 474.462 489.723 474.53 489.623 474.579C489.522 474.627 489.413 474.655 489.302 474.66L441.682 477.1Z" fill="#685151"/>
<path d="M397.002 485.35C397.002 485.522 396.933 485.688 396.811 485.81C396.689 485.932 396.524 486 396.352 486H115.412C115.239 486 115.074 485.932 114.952 485.81C114.83 485.688 114.762 485.522 114.762 485.35V447.41C114.762 447.238 114.83 447.072 114.952 446.95C115.074 446.828 115.239 446.76 115.412 446.76H396.352C396.524 446.76 396.689 446.828 396.811 446.95C396.933 447.072 397.002 447.238 397.002 447.41V485.35ZM139.491 460.979C139.492 460.359 139.371 459.745 139.134 459.172C138.898 458.599 138.551 458.078 138.114 457.639C137.676 457.2 137.157 456.851 136.584 456.613C136.012 456.375 135.399 456.252 134.779 456.25L134.259 456.25C133.007 456.247 131.806 456.743 130.919 457.626C130.032 458.51 129.533 459.709 129.531 460.961L129.513 471.001C129.512 471.621 129.633 472.235 129.869 472.808C130.105 473.381 130.452 473.902 130.89 474.341C131.327 474.78 131.847 475.129 132.419 475.367C132.991 475.605 133.605 475.728 134.225 475.729L134.745 475.73C135.997 475.733 137.198 475.237 138.085 474.354C138.971 473.47 139.471 472.271 139.473 471.019L139.491 460.979ZM166.448 460.976C166.451 460.359 166.333 459.747 166.1 459.176C165.866 458.604 165.523 458.084 165.089 457.646C164.655 457.207 164.138 456.858 163.569 456.619C163 456.379 162.39 456.255 161.773 456.251L161.233 456.249C159.986 456.242 158.788 456.731 157.902 457.608C157.016 458.485 156.515 459.678 156.508 460.924L156.455 471.004C156.452 471.621 156.571 472.233 156.804 472.804C157.037 473.376 157.38 473.896 157.815 474.335C158.249 474.773 158.765 475.122 159.334 475.361C159.903 475.6 160.514 475.725 161.131 475.728L161.671 475.731C162.917 475.738 164.115 475.249 165.001 474.372C165.887 473.495 166.389 472.302 166.395 471.056L166.448 460.976ZM193.449 460.967C193.451 460.35 193.332 459.739 193.098 459.168C192.864 458.596 192.519 458.077 192.084 457.639C191.649 457.201 191.132 456.853 190.563 456.615C189.994 456.377 189.383 456.253 188.766 456.251L188.206 456.249C186.959 456.245 185.762 456.736 184.878 457.614C183.993 458.492 183.494 459.686 183.489 460.933L183.454 471.013C183.452 471.63 183.571 472.241 183.806 472.812C184.04 473.384 184.384 473.903 184.819 474.341C185.254 474.779 185.771 475.127 186.34 475.365C186.91 475.603 187.521 475.727 188.138 475.729L188.698 475.731C189.944 475.735 191.141 475.244 192.026 474.366C192.91 473.488 193.41 472.294 193.414 471.047L193.449 460.967ZM220.457 460.975C220.465 459.731 219.98 458.535 219.106 457.649C218.233 456.763 217.044 456.261 215.8 456.252L215.24 456.248C213.996 456.24 212.8 456.725 211.914 457.599C211.028 458.472 210.526 459.662 210.517 460.905L210.447 471.005C210.438 472.249 210.924 473.445 211.797 474.331C212.67 475.217 213.86 475.719 215.104 475.728L215.664 475.732C216.908 475.74 218.104 475.255 218.99 474.381C219.875 473.508 220.378 472.318 220.386 471.075L220.457 460.975ZM247.432 460.96C247.432 459.713 246.937 458.518 246.055 457.637C245.174 456.755 243.978 456.26 242.732 456.26H242.192C240.945 456.26 239.75 456.755 238.868 457.637C237.987 458.518 237.492 459.713 237.492 460.96V471.04C237.492 472.287 237.987 473.482 238.868 474.363C239.75 475.245 240.945 475.74 242.192 475.74H242.732C243.978 475.74 245.174 475.245 246.055 474.363C246.937 473.482 247.432 472.287 247.432 471.04V460.96ZM274.468 460.976C274.475 459.73 273.986 458.532 273.109 457.646C272.232 456.76 271.039 456.258 269.793 456.252L269.233 456.249C267.986 456.242 266.788 456.731 265.902 457.608C265.016 458.485 264.515 459.678 264.508 460.924L264.455 471.004C264.449 472.25 264.938 473.448 265.815 474.334C266.691 475.22 267.884 475.722 269.131 475.728L269.691 475.731C270.937 475.738 272.135 475.249 273.021 474.372C273.907 473.495 274.409 472.302 274.415 471.056L274.468 460.976ZM301.459 460.977C301.464 459.728 300.972 458.529 300.091 457.642C299.211 456.756 298.015 456.255 296.766 456.251L296.226 456.249C294.977 456.245 293.777 456.737 292.89 457.617C292.004 458.497 291.504 459.693 291.499 460.943L291.464 471.003C291.46 472.252 291.952 473.451 292.832 474.338C293.712 475.224 294.909 475.725 296.158 475.729L296.698 475.731C297.947 475.735 299.147 475.243 300.033 474.363C300.919 473.483 301.42 472.287 301.424 471.037L301.459 460.977ZM328.242 460.97C328.242 460.351 328.12 459.739 327.883 459.168C327.646 458.596 327.3 458.077 326.862 457.64C326.425 457.202 325.906 456.855 325.334 456.619C324.763 456.382 324.15 456.26 323.532 456.26H323.012C322.393 456.26 321.781 456.382 321.209 456.619C320.638 456.855 320.119 457.202 319.681 457.64C319.244 458.077 318.897 458.596 318.66 459.168C318.424 459.739 318.302 460.351 318.302 460.97V471.03C318.302 471.649 318.424 472.261 318.66 472.832C318.897 473.404 319.244 473.923 319.681 474.36C320.119 474.798 320.638 475.145 321.209 475.381C321.781 475.618 322.393 475.74 323.012 475.74H323.532C324.15 475.74 324.763 475.618 325.334 475.381C325.906 475.145 326.425 474.798 326.862 474.36C327.3 473.923 327.646 473.404 327.883 472.832C328.12 472.261 328.242 471.649 328.242 471.03V460.97ZM355.242 460.97C355.242 460.351 355.12 459.739 354.883 459.168C354.646 458.596 354.3 458.077 353.862 457.64C353.425 457.202 352.906 456.855 352.334 456.619C351.763 456.382 351.15 456.26 350.532 456.26H349.992C349.373 456.26 348.761 456.382 348.189 456.619C347.618 456.855 347.099 457.202 346.661 457.64C346.224 458.077 345.877 458.596 345.64 459.168C345.404 459.739 345.282 460.351 345.282 460.97V471.03C345.282 471.649 345.404 472.261 345.64 472.832C345.877 473.404 346.224 473.923 346.661 474.36C347.099 474.798 347.618 475.145 348.189 475.381C348.761 475.618 349.373 475.74 349.992 475.74H350.532C351.15 475.74 351.763 475.618 352.334 475.381C352.906 475.145 353.425 474.798 353.862 474.36C354.3 473.923 354.646 473.404 354.883 472.832C355.12 472.261 355.242 471.649 355.242 471.03V460.97ZM382.242 460.97C382.242 460.351 382.12 459.739 381.883 459.168C381.646 458.596 381.3 458.077 380.862 457.64C380.425 457.202 379.906 456.855 379.334 456.619C378.763 456.382 378.15 456.26 377.532 456.26H376.992C376.373 456.26 375.761 456.382 375.189 456.619C374.618 456.855 374.099 457.202 373.661 457.64C373.224 458.077 372.877 458.596 372.64 459.168C372.404 459.739 372.282 460.351 372.282 460.97V471.03C372.282 471.649 372.404 472.261 372.64 472.832C372.877 473.404 373.224 473.923 373.661 474.36C374.099 474.798 374.618 475.145 375.189 475.381C375.761 475.618 376.373 475.74 376.992 475.74H377.532C378.15 475.74 378.763 475.618 379.334 475.381C379.906 475.145 380.425 474.798 380.862 474.36C381.3 473.923 381.646 473.404 381.883 472.832C382.12 472.261 382.242 471.649 382.242 471.03V460.97Z" fill="#685151"/>
</svg>
