<svg width="800" height="360" viewBox="0 0 800 360" fill="none" xmlns="http://www.w3.org/2000/svg">
<g clip-path="url(#clip0_234_6612)">
<path fill-rule="evenodd" clip-rule="evenodd" d="M308.191 43.8447C284.828 61.3448 269.928 86.7938 263.491 120.192C263.442 120.461 263.334 120.716 263.177 120.934C263.019 121.153 262.817 121.329 262.586 121.448C262.355 121.568 262.102 121.627 261.848 121.622C261.593 121.616 261.345 121.546 261.122 121.417C242.318 110.955 223.679 108.677 205.202 114.583C181.243 122.249 165.345 139.451 157.508 166.188C157.31 166.854 156.931 167.441 156.42 167.87C155.909 168.3 155.29 168.551 154.647 168.592C114.625 170.602 84.9146 188.338 65.5148 221.799C47.9626 252.118 44.4015 283.316 54.8315 315.394C60.4559 332.642 69.2258 347.511 81.1413 360H739.123C746.466 348.603 750.407 335.997 750.945 322.181C751.452 308.859 748.427 295.884 741.871 283.253C727.061 254.6 702.103 241.797 666.999 244.844C666.369 244.901 665.738 244.733 665.204 244.366C664.67 244 664.264 243.455 664.049 242.818C647.39 193.177 614.446 176.022 565.217 191.354C564.594 191.547 563.932 191.542 563.312 191.341C562.692 191.14 562.142 190.751 561.73 190.223C543.612 166.031 519.861 152.568 490.478 149.835C489.875 149.775 489.315 149.477 488.916 149.004C488.517 148.53 488.308 147.917 488.333 147.29C489.614 114.74 480.912 86.9508 462.228 63.9211C441.04 37.8124 415.516 23.627 385.657 21.3648C356.9 19.197 331.078 26.6903 308.191 43.8447Z" fill="#BFA29B"/>
</g>
<defs>
<clipPath id="clip0_234_6612">
<rect width="800" height="360" fill="white"/>
</clipPath>
</defs>
</svg>
