<svg width="512" height="512" viewBox="0 0 512 512" fill="none" xmlns="http://www.w3.org/2000/svg">
<path d="M235.45 381.09C234.17 378.99 233.86 376.79 234.52 374.49C235.16 372.263 236.893 370.073 239.72 367.92C241.98 366.193 244.413 364.687 247.02 363.4C247.164 363.329 247.29 363.225 247.387 363.097C247.484 362.969 247.55 362.82 247.581 362.662C247.611 362.504 247.604 362.341 247.56 362.187C247.517 362.032 247.438 361.889 247.33 361.77C233.97 346.843 222.05 331.147 211.57 314.68C182.457 268.927 162.393 219.457 151.38 166.27C148.313 151.443 146.89 136.457 147.11 121.31C147.317 107.677 149.243 94.2967 152.89 81.17C155.53 71.7033 159.37 62.8267 164.41 54.54C167.95 48.72 172.003 43.45 176.57 38.73C186.343 28.6367 197.673 21.4133 210.56 17.06C229.653 10.62 250.05 8.26666 271.75 10C287.857 11.2867 302.393 15.0267 315.36 21.22C329.513 27.9733 340.913 37.7133 349.56 50.44C355.053 58.5133 359.293 67.4733 362.28 77.32C369.64 101.587 371.38 126.563 367.5 152.25C366.14 161.237 364.73 168.94 363.27 175.36C350.823 229.953 328.777 280.3 297.13 326.4C288.55 338.9 279.07 350.927 268.69 362.48C268.485 362.707 268.329 362.974 268.233 363.263C268.137 363.552 268.101 363.858 268.13 364.16C268.423 367.407 267.91 370.08 266.59 372.18C265.837 373.38 263.833 374.933 260.58 376.84C257.42 378.693 253.58 381.1 249.06 384.06C246.087 386.013 243.123 386.377 240.17 385.15C238.157 384.317 236.583 382.963 235.45 381.09ZM326.56 117.06C326.56 98.9563 319.368 81.5941 306.567 68.7929C293.766 55.9917 276.404 48.8 258.3 48.8C240.196 48.8 222.834 55.9917 210.033 68.7929C197.232 81.5941 190.04 98.9563 190.04 117.06C190.04 135.164 197.232 152.526 210.033 165.327C222.834 178.128 240.196 185.32 258.3 185.32C276.404 185.32 293.766 178.128 306.567 165.327C319.368 152.526 326.56 135.164 326.56 117.06Z" fill="#685151"/>
<path d="M512 501.56V502.56L0.61 502.69C0.541463 502.69 0.470513 502.665 0.405142 502.617C0.339771 502.57 0.282576 502.501 0.24 502.42C0.186667 502.32 0.106667 502.243 0 502.19V501.69L36.2 215.24C36.2341 214.967 36.3667 214.716 36.5729 214.533C36.7791 214.351 37.0448 214.25 37.32 214.25C70.1067 214.25 102.417 214.25 134.25 214.25C136.157 214.25 137.803 214.363 139.19 214.59C140.877 214.87 142.35 215.517 143.61 216.53C146.497 218.837 147.46 221.91 146.5 225.75C145.707 228.917 143.883 231.013 141.03 232.04C139.71 232.513 137.157 232.75 133.37 232.75C106.677 232.75 80.0867 232.75 53.6 232.75C53.373 232.751 53.1541 232.833 52.9847 232.982C52.8152 233.132 52.7069 233.337 52.68 233.56L21.17 483.41C21.16 483.484 21.1659 483.559 21.1875 483.631C21.2091 483.702 21.2458 483.768 21.2952 483.824C21.3445 483.88 21.4053 483.925 21.4734 483.955C21.5415 483.985 21.6154 484.001 21.69 484L490.72 483.94C490.784 483.941 490.846 483.927 490.905 483.901C490.963 483.875 491.015 483.837 491.057 483.789C491.1 483.74 491.132 483.683 491.151 483.622C491.171 483.56 491.177 483.495 491.17 483.43L464.34 233.55C464.318 233.331 464.215 233.129 464.05 232.981C463.886 232.833 463.672 232.751 463.45 232.75C435.483 232.75 407.75 232.723 380.25 232.67C377.637 232.663 375.45 231.917 373.69 230.43C372.103 229.083 371.113 227.19 370.72 224.75C370.053 220.583 371.493 217.55 375.04 215.65C376.707 214.763 379.14 214.317 382.34 214.31C414.827 214.237 447.513 214.217 480.4 214.25C480.556 214.249 480.706 214.307 480.822 214.412C480.939 214.518 481.013 214.663 481.03 214.82L512 501.56Z" fill="#685151"/>
<path d="M390.929 276.81C388.083 274.73 386.923 271.887 387.45 268.28C388.103 263.88 390.606 261.147 394.959 260.08C401.473 258.493 408.073 258.03 414.76 258.69C417.72 258.983 420.026 260.123 421.679 262.11C423.253 263.997 423.939 266.253 423.739 268.88C423.519 271.84 422.143 274.127 419.609 275.74C418.296 276.567 416.593 277.047 414.5 277.18C412.7 277.293 410.896 277.303 409.089 277.21C407.229 277.11 405.519 277.2 403.959 277.48C402.246 277.793 400.529 278.07 398.809 278.31C395.556 278.777 392.929 278.277 390.929 276.81Z" fill="#685151"/>
<path d="M435.519 312.04C434.093 309.453 433.899 306.42 434.939 302.94C435.713 300.347 435.556 297.41 434.469 294.13C433.043 289.837 433.503 286.343 435.849 283.65C438.043 281.137 440.829 280.06 444.209 280.42C447.903 280.807 450.476 283.173 451.929 287.52C454.389 294.887 454.579 302.213 452.499 309.5C452.079 310.96 451.373 312.29 450.379 313.49C449.406 314.657 448.229 315.53 446.849 316.11C444.576 317.07 442.346 317.097 440.159 316.19C438.126 315.343 436.579 313.96 435.519 312.04Z" fill="#685151"/>
<path d="M400.22 352.52C397.2 350.353 396.02 347.357 396.68 343.53C397.206 340.463 398.873 338.26 401.68 336.92C403.533 336.033 405.453 335.317 407.44 334.77C409.666 334.163 413.29 332.593 418.31 330.06C420.41 329.007 422.536 328.817 424.69 329.49C426.643 330.103 428.286 331.25 429.62 332.93C431.9 335.81 432.09 339.23 430.19 343.19C429.71 344.19 428.133 345.52 425.46 347.18C420.22 350.44 414.42 352.733 408.06 354.06C405.126 354.673 402.513 354.16 400.22 352.52Z" fill="#685151"/>
<path d="M368.368 339.241L349.246 340.076C344.407 340.287 340.656 344.381 340.867 349.22L340.907 350.14C341.118 354.978 345.212 358.73 350.051 358.519L369.173 357.684C374.012 357.472 377.763 353.378 377.552 348.54L377.512 347.62C377.301 342.782 373.207 339.03 368.368 339.241Z" fill="#685151"/>
<path d="M311.429 342.795L292.621 346.009C287.831 346.828 284.611 351.376 285.43 356.166L285.575 357.014C286.394 361.805 290.941 365.024 295.732 364.206L314.539 360.991C319.33 360.172 322.549 355.625 321.73 350.834L321.586 349.986C320.767 345.196 316.219 341.976 311.429 342.795Z" fill="#685151"/>
<path d="M88.4602 378.7C87.6069 377.98 86.9735 377.097 86.5602 376.05C85.1135 372.377 85.4735 369.25 87.6402 366.67C89.0202 365.023 91.4202 363.52 94.8402 362.16C99.6735 360.24 104.7 359.237 109.92 359.15C113.054 359.097 115.524 359.57 117.33 360.57C119.984 362.03 121.474 364.323 121.8 367.45C122.054 369.883 121.587 371.987 120.4 373.76C119.494 375.12 118.267 376.137 116.72 376.81C115.814 377.203 114.294 377.433 112.16 377.5C108.107 377.627 104.2 378.403 100.44 379.83C97.4869 380.95 95.4969 381.473 94.4702 381.4C92.4235 381.253 90.4202 380.353 88.4602 378.7Z" fill="#685151"/>
<path d="M190.721 414.19C189.641 411.923 189.637 409.6 190.711 407.22C191.397 405.7 192.824 404.077 194.991 402.35C199.457 398.797 204.144 395.563 209.051 392.65C211.297 391.317 213.267 390.71 214.961 390.83C216.747 390.957 218.371 391.55 219.831 392.61C221.151 393.57 222.137 394.89 222.791 396.57C224.551 401.11 223.241 404.967 218.861 408.14C212.441 412.787 207.634 416.137 204.441 418.19C201.594 420.017 198.837 420.4 196.171 419.34C193.717 418.367 191.901 416.65 190.721 414.19Z" fill="#685151"/>
<path d="M66.1906 427.06C64.4106 425.687 63.2739 423.92 62.7806 421.76C62.5673 420.833 62.4339 418.82 62.3806 415.72C62.2739 409.373 63.0639 403.717 64.7506 398.75C66.0039 395.043 68.3173 392.94 71.6906 392.44C74.7306 391.993 77.3606 392.75 79.5806 394.71C81.3339 396.257 82.3306 398.273 82.5706 400.76C82.6573 401.627 82.4306 403.77 81.8906 407.19C81.2973 410.97 81.0006 415.407 81.0006 420.5C81.0006 422.98 79.8206 425.123 77.4606 426.93C73.6273 429.857 69.8706 429.9 66.1906 427.06Z" fill="#685151"/>
<path d="M144.689 443.81C142.703 442.657 141.379 440.98 140.719 438.78C140.119 436.767 140.209 434.77 140.989 432.79C141.763 430.837 143.036 429.297 144.809 428.17C145.063 428.01 146.813 427.193 150.059 425.72C153.819 424.007 157.629 422.42 161.489 420.96C164.223 419.92 166.469 419.533 168.229 419.8C170.956 420.207 172.996 421.577 174.349 423.91C175.636 426.117 176.029 428.473 175.529 430.98C174.969 433.793 173.313 435.82 170.559 437.06C165.013 439.567 159.436 442.003 153.829 444.37C150.663 445.703 147.616 445.517 144.689 443.81Z" fill="#685151"/>
<path d="M90.1905 453.06C87.9305 451.687 86.6171 449.703 86.2505 447.11C85.9171 444.77 86.3705 442.623 87.6105 440.67C88.6438 439.037 90.0705 437.827 91.8905 437.04C93.1838 436.48 94.9538 436.347 97.2005 436.64C102.054 437.28 106.927 437.53 111.82 437.39C114.574 437.317 116.64 437.613 118.02 438.28C120.674 439.573 122.247 441.643 122.74 444.49C123.274 447.583 122.537 450.21 120.53 452.37C118.53 454.523 115.687 455.65 112 455.75C106.314 455.903 102.644 455.947 100.99 455.88C96.5571 455.687 92.9571 454.747 90.1905 453.06Z" fill="#685151"/>
</svg>
