<svg width="512" height="512" viewBox="0 0 512 512" fill="none" xmlns="http://www.w3.org/2000/svg">
<path d="M407.19 440.06L280.67 440C280.582 440 280.495 440.017 280.414 440.051C280.332 440.085 280.258 440.134 280.196 440.196C280.134 440.258 280.085 440.332 280.051 440.414C280.017 440.495 280 440.582 280 440.67C280 448.39 279.96 455.917 279.88 463.25C279.84 466.79 278.577 469.29 276.09 470.75C274.657 471.59 272.19 472.003 268.69 471.99C264.71 471.983 260.73 471.957 256.75 471.91C253.19 471.877 250.683 470.603 249.23 468.09C248.41 466.67 248 464.197 248 460.67C248 454.023 248 447.357 248 440.67C248 440.492 247.929 440.322 247.804 440.196C247.678 440.071 247.508 440 247.33 440H216.69C216.507 440 216.332 439.927 216.202 439.798C216.073 439.669 216 439.493 216 439.31C216 416.803 216 394.45 216 372.25C216 366.457 216.45 362.003 217.35 358.89C220.63 347.577 228.377 340.18 240.59 336.7C240.733 336.659 240.862 336.577 240.961 336.466C241.06 336.354 241.126 336.217 241.15 336.07L247.89 296.63C247.903 296.553 247.899 296.474 247.878 296.398C247.857 296.323 247.819 296.253 247.768 296.193C247.716 296.133 247.652 296.085 247.58 296.051C247.508 296.018 247.43 296.001 247.35 296H184.69C184.507 296 184.332 296.073 184.202 296.202C184.073 296.331 184 296.507 184 296.69V471.33C184 471.418 183.983 471.505 183.949 471.586C183.915 471.668 183.866 471.742 183.804 471.804C183.742 471.866 183.668 471.915 183.586 471.949C183.505 471.983 183.418 472 183.33 472H152.69C152.507 472 152.332 471.927 152.202 471.798C152.073 471.669 152 471.493 152 471.31V296.69C152 296.507 151.927 296.331 151.798 296.202C151.668 296.073 151.493 296 151.31 296H40.69C40.507 296 40.3315 295.927 40.2021 295.798C40.0727 295.669 40 295.493 40 295.31V40.69C40 40.507 40.0727 40.3315 40.2021 40.2021C40.3315 40.0727 40.507 40 40.69 40H295.63C295.728 40 295.822 40.039 295.892 40.1084C295.961 40.1778 296 40.2719 296 40.37V247.23C296 247.332 296.02 247.433 296.06 247.527C296.099 247.621 296.157 247.706 296.229 247.778C296.302 247.85 296.388 247.906 296.482 247.944C296.577 247.982 296.678 248.001 296.78 248C327.52 247.887 357.9 247.953 387.92 248.2C392.933 248.24 397.11 248.683 400.45 249.53C417.117 253.757 428.713 263.57 435.24 278.97C436.913 282.923 438.46 288.9 439.88 296.9C442.2 309.947 444.47 323.01 446.69 336.09C446.717 336.249 446.79 336.397 446.899 336.518C447.009 336.638 447.152 336.725 447.31 336.77C459.197 339.963 466.897 347.053 470.41 358.04C471.297 360.82 471.763 364.517 471.81 369.13C472.05 391.923 472.11 415.25 471.99 439.11C471.99 439.33 471.903 439.541 471.747 439.697C471.591 439.853 471.38 439.94 471.16 439.94L440.78 440C440.589 440 440.406 440.075 440.271 440.208C440.136 440.341 440.06 440.522 440.06 440.71C439.987 447.677 440.003 454.773 440.11 462C440.203 468.833 436.833 472.193 430 472.08C427.027 472.033 424.05 472.007 421.07 472C421.003 472 420.127 472.023 418.44 472.07C410.693 472.297 407.213 468.273 408 460C408.327 456.573 408.23 450.093 407.71 440.56C407.705 440.426 407.648 440.298 407.551 440.205C407.454 440.112 407.325 440.06 407.19 440.06ZM213.59 86.66C206.637 80.3533 198.757 76.0667 189.95 73.8C185.977 72.78 180.123 72.2233 172.39 72.13C149.823 71.87 127.257 71.8867 104.69 72.18C104.557 72.1826 104.429 72.2365 104.336 72.3299C104.242 72.4234 104.19 72.5491 104.19 72.68L104.18 263.31C104.18 263.448 104.234 263.58 104.329 263.678C104.425 263.775 104.555 263.83 104.69 263.83H135.32C135.451 263.83 135.577 263.775 135.67 263.678C135.764 263.581 135.817 263.449 135.82 263.31L136 184.96C136 184.832 136.025 184.705 136.074 184.586C136.123 184.468 136.195 184.361 136.285 184.271C136.375 184.18 136.482 184.109 136.6 184.061C136.717 184.013 136.843 183.989 136.97 183.99C149.203 184.09 161.213 184.057 173 183.89C180.187 183.79 185.803 183.23 189.85 182.21C202.89 178.91 213.377 171.777 221.31 160.81C229.317 149.75 232.807 137.52 231.78 124.12C231.247 117.2 229.63 110.773 226.93 104.84C223.81 97.9667 219.363 91.9067 213.59 86.66ZM383.92 375.83C383.92 373.761 383.098 371.777 381.635 370.315C380.173 368.852 378.189 368.03 376.12 368.03H311.88C309.811 368.03 307.827 368.852 306.365 370.315C304.902 371.777 304.08 373.761 304.08 375.83V376.17C304.08 378.239 304.902 380.223 306.365 381.685C307.827 383.148 309.811 383.97 311.88 383.97H376.12C378.189 383.97 380.173 383.148 381.635 381.685C383.098 380.223 383.92 378.239 383.92 376.17V375.83ZM279.94 392C279.94 387.772 278.261 383.718 275.271 380.729C272.282 377.739 268.228 376.06 264 376.06C259.772 376.06 255.718 377.739 252.729 380.729C249.739 383.718 248.06 387.772 248.06 392C248.06 396.228 249.739 400.282 252.729 403.271C255.718 406.261 259.772 407.94 264 407.94C268.228 407.94 272.282 406.261 275.271 403.271C278.261 400.282 279.94 396.228 279.94 392ZM439.94 392C439.94 387.772 438.261 383.718 435.271 380.729C432.282 377.739 428.228 376.06 424 376.06C419.772 376.06 415.718 377.739 412.729 380.729C409.739 383.718 408.06 387.772 408.06 392C408.06 396.228 409.739 400.282 412.729 403.271C415.718 406.261 419.772 407.94 424 407.94C428.228 407.94 432.282 406.261 435.271 403.271C438.261 400.282 439.94 396.228 439.94 392ZM367.9 407.73C367.9 405.693 367.091 403.74 365.651 402.299C364.21 400.859 362.257 400.05 360.22 400.05H327.78C325.743 400.05 323.79 400.859 322.349 402.299C320.909 403.74 320.1 405.693 320.1 407.73V408.27C320.1 410.307 320.909 412.26 322.349 413.701C323.79 415.141 325.743 415.95 327.78 415.95H360.22C362.257 415.95 364.21 415.141 365.651 413.701C367.091 412.26 367.9 410.307 367.9 408.27V407.73Z" fill="#685151"/>
<path d="M191.25 109.76C196.11 113.927 198.923 118.887 199.69 124.64C200.423 130.153 199.357 135.37 196.49 140.29C193.763 144.97 189.763 148.313 184.49 150.32C182.01 151.267 178.617 151.777 174.31 151.85C162.057 152.057 149.577 152.103 136.87 151.99C136.638 151.987 136.417 151.893 136.254 151.729C136.091 151.564 136 151.342 136 151.11V104.66C136 104.485 136.07 104.317 136.193 104.193C136.317 104.07 136.485 104 136.66 104C149.807 104 162.837 104.013 175.75 104.04C181.65 104.053 186.817 105.96 191.25 109.76Z" fill="#685151"/>
</svg>
