<svg width="512" height="512" viewBox="0 0 512 512" fill="none" xmlns="http://www.w3.org/2000/svg">
<g clip-path="url(#clip0_286_7423)">
<path d="M253.06 0H259.31C272.143 0.333333 284.207 1.33333 295.5 3C323.353 7.11333 349.923 15.87 375.21 29.27C409.477 47.43 438.22 72.0267 461.44 103.06C494.26 146.933 511.113 197.017 512 253.31V258.81C511.167 312.737 495.197 361.503 464.09 405.11C444.543 432.517 420.347 455.23 391.5 473.25C352.1 497.87 309.183 510.703 262.75 511.75C260.723 511.797 259.453 511.88 258.94 512H253.19C199.257 511.173 150.48 495.217 106.86 464.13C87.68 450.463 70.9133 434.65 56.56 416.69C20.0533 371.003 1.2 318.587 0 259.44V252.69C0.813333 201.903 15.0833 155.693 42.81 114.06C65.83 79.5 95.7467 52 132.56 31.56C169.507 11.0533 209.673 0.533333 253.06 0ZM145.88 173.46C155.673 180.98 165.52 188.43 175.42 195.81C176.727 196.79 178.697 198.337 181.33 200.45C184.37 202.903 186.447 204.317 187.56 204.69C193.287 206.603 197.997 205.02 201.69 199.94C206.797 192.913 213.153 185.74 220.76 178.42C225.96 173.407 230.507 169.96 234.4 168.08C239.44 165.647 245.057 164.12 251.25 163.5C265.823 162.047 278.493 165.63 289.26 174.25C297.547 180.89 300.373 189.51 297.74 200.11C296.067 206.837 292.59 212.153 287.31 216.06C282.797 219.407 277.8 222.497 272.32 225.33C263.413 229.937 258.66 232.423 258.06 232.79C246.553 239.843 236.557 248.607 228.07 259.08C223.877 264.253 220.753 269.153 218.7 273.78C216.313 279.153 214.743 284.82 213.99 290.78C213.557 294.253 213.31 299.493 213.25 306.5C213.19 313.52 215.72 317.81 220.84 319.37C222.193 319.783 226.49 319.993 233.73 320C250.403 320.02 267.077 320.093 283.75 320.22C286.657 320.24 289.073 320 291 319.5C293.68 318.8 295.69 317.323 297.03 315.07C297.597 314.117 298.103 312.157 298.55 309.19C299.037 305.99 300.03 302.943 301.53 300.05C306.483 290.477 313.547 282.87 322.72 277.23C325.887 275.29 329.087 273.407 332.32 271.58C342.933 265.587 352.607 258.343 361.34 249.85C368.327 243.057 373.777 234.587 377.69 224.44C382.657 211.547 384.647 198.737 383.66 186.01C382.213 167.35 375.723 150.7 364.19 136.06C346.25 113.273 323.57 97.99 296.15 90.21C289.61 88.3567 283.077 87.07 276.55 86.35C266.697 85.27 256.513 85.2367 246 86.25C211.58 89.57 182.85 103.673 159.81 128.56C151.817 137.2 145.08 146.283 139.6 155.81C138.28 158.11 137.55 160.053 137.41 161.64C137.21 164.04 137.807 166.147 139.2 167.96C139.667 168.567 141.893 170.4 145.88 173.46ZM294.25 343.43C293.27 342.63 292.157 342.107 290.91 341.86C287.983 341.273 284.68 340.997 281 341.03C265 341.177 249 341.193 233 341.08C228 341.047 224.167 341.27 221.5 341.75C218.74 342.243 216.607 343.687 215.1 346.08C214.347 347.267 213.847 348.787 213.6 350.64C213.387 352.253 213.28 353.873 213.28 355.5C213.26 375 213.273 394.5 213.32 414C213.347 422.607 217.657 426.893 226.25 426.86C246.163 426.787 266.08 426.747 286 426.74C294.493 426.74 298.74 422.493 298.74 414C298.747 393.587 298.757 373.17 298.77 352.75C298.77 348.997 297.263 345.89 294.25 343.43Z" fill="#685151"/>
</g>
<defs>
<clipPath id="clip0_286_7423">
<rect width="512" height="512" fill="white"/>
</clipPath>
</defs>
</svg>
