<svg width="512" height="512" viewBox="0 0 512 512" fill="none" xmlns="http://www.w3.org/2000/svg">
<path d="M257.31 0H283.06C283.28 8.24667 283.343 16.4967 283.25 24.75C283.203 28.7433 284.693 31.4633 287.72 32.91C290.44 34.21 293.123 34.2167 295.77 32.93C298.883 31.41 300.377 28.4333 300.25 24C300.05 17.0333 300.153 9.03333 300.56 0H317.31C317.67 11.7067 317.733 18.8733 317.5 21.5C317.173 25.1467 317.443 27.71 318.31 29.19C320.077 32.2033 322.443 33.7833 325.41 33.93C328.163 34.0633 330.42 33.1133 332.18 31.08C333.9 29.0933 334.673 26.4833 334.5 23.25C334.22 18.09 334.323 10.34 334.81 0H351.56C351.473 7.19333 351.46 14.39 351.52 21.59C351.553 25.11 351.9 27.6233 352.56 29.13C353.853 32.0967 356.167 33.65 359.5 33.79C362.133 33.9033 364.273 33.1633 365.92 31.57C367.707 29.8433 368.567 27.4867 368.5 24.5C368.367 18.6067 368.423 11.1233 368.67 2.05C368.67 2.02333 368.62 1.70333 368.52 1.09C368.453 0.663333 368.633 0.3 369.06 0H385.56C385.747 7.24 385.82 14.4767 385.78 21.71C385.76 25.1767 386.07 27.6567 386.71 29.15C387.963 32.0967 390.217 33.6567 393.47 33.83C396.297 33.9767 398.57 33.1167 400.29 31.25C402.077 29.31 402.897 26.7267 402.75 23.5C402.49 17.9 402.593 10.0667 403.06 0H428.81C433.11 0.9 435.683 3.12667 436.53 6.68C436.677 7.28667 436.753 10.34 436.76 15.84C436.773 27.5067 436.75 39.0767 436.69 50.55C436.69 50.6419 436.672 50.733 436.636 50.8179C436.6 50.9028 436.548 50.98 436.482 51.045C436.416 51.11 436.338 51.1615 436.252 51.1967C436.166 51.2319 436.073 51.25 435.98 51.25H250C249.819 51.25 249.645 51.1787 249.516 51.0515C249.386 50.9242 249.313 50.7513 249.31 50.57C249.237 37.25 249.217 23.81 249.25 10.25C249.263 4.44333 251.95 1.02667 257.31 0Z" fill="#685151"/>
<path d="M436.72 68.25H249.52C249.371 68.25 249.25 68.3709 249.25 68.52V84.98C249.25 85.1291 249.371 85.25 249.52 85.25H436.72C436.869 85.25 436.99 85.1291 436.99 84.98V68.52C436.99 68.3709 436.869 68.25 436.72 68.25Z" fill="#685151"/>
<path d="M249.8 102.44L435.65 102.25C435.827 102.25 436.003 102.285 436.167 102.353C436.33 102.421 436.479 102.52 436.605 102.645C436.73 102.771 436.829 102.92 436.897 103.083C436.965 103.247 437 103.423 437 103.6L436.94 139.82C436.94 139.904 436.919 139.987 436.879 140.062C436.84 140.136 436.782 140.2 436.712 140.246C436.641 140.293 436.56 140.321 436.476 140.329C436.392 140.336 436.308 140.323 436.23 140.29C422.463 134.463 408.867 128.663 395.44 122.89C391.1 121.023 388.847 120.07 388.68 120.03C386.967 119.597 385.23 119.583 383.47 119.99C382.337 120.257 380.8 120.97 378.86 122.13C367.08 129.163 355.307 136.23 343.54 143.33C343.389 143.421 343.216 143.469 343.04 143.469C342.864 143.469 342.691 143.421 342.54 143.33C331.107 136.457 319.723 129.637 308.39 122.87C305.163 120.943 302.727 119.89 301.08 119.71C298.78 119.457 296.557 119.953 294.41 121.2C292.423 122.36 291.403 122.953 291.35 122.98C277.63 129.807 263.807 136.707 249.88 143.68C249.815 143.714 249.742 143.73 249.668 143.728C249.595 143.725 249.523 143.703 249.46 143.664C249.397 143.624 249.344 143.57 249.308 143.504C249.271 143.439 249.251 143.365 249.25 143.29V102.99C249.25 102.844 249.308 102.704 249.411 102.601C249.514 102.498 249.654 102.44 249.8 102.44Z" fill="#685151"/>
<path d="M325.6 153.11C325.689 153.164 325.762 153.24 325.812 153.331C325.862 153.422 325.888 153.524 325.887 153.628C325.886 153.732 325.858 153.833 325.806 153.923C325.754 154.013 325.68 154.088 325.59 154.14L300.61 169.03C300.402 169.156 300.167 169.227 299.925 169.238C299.684 169.248 299.445 169.197 299.23 169.09L269.38 154.1C268.607 153.707 268.61 153.317 269.39 152.93L299.2 138.06C299.421 137.949 299.664 137.895 299.907 137.902C300.149 137.909 300.385 137.977 300.59 138.1L325.6 153.11Z" fill="#685151"/>
<path d="M422.91 153.23C423.417 153.443 423.417 153.66 422.91 153.88L386.96 169.3C386.814 169.362 386.657 169.39 386.501 169.381C386.345 169.373 386.194 169.328 386.06 169.25L360.23 153.94C360.167 153.903 360.115 153.85 360.08 153.786C360.045 153.723 360.026 153.651 360.027 153.577C360.028 153.503 360.049 153.431 360.086 153.367C360.123 153.302 360.176 153.248 360.24 153.21L385.66 138.01C385.886 137.876 386.141 137.798 386.403 137.78C386.665 137.763 386.928 137.807 387.17 137.91L422.91 153.23Z" fill="#685151"/>
<path d="M255.81 166.44C267.65 172.34 279.487 178.237 291.32 184.13C294.993 185.963 296.907 186.903 297.06 186.95C298.5 187.417 299.99 187.563 301.53 187.39C302.683 187.257 304.037 186.737 305.59 185.83C323.563 175.343 335.303 168.337 340.81 164.81C342.363 163.823 343.713 163.74 344.86 164.56C345.46 164.987 345.777 165.21 345.81 165.23C357.303 172.03 368.753 178.907 380.16 185.86C383.54 187.92 386.94 188.123 390.36 186.47C391.947 185.703 392.77 185.307 392.83 185.28C407.33 179.187 421.7 173.053 435.94 166.88C436.056 166.83 436.182 166.81 436.307 166.821C436.433 166.832 436.554 166.875 436.659 166.944C436.764 167.013 436.85 167.108 436.91 167.219C436.969 167.33 437 167.454 437 167.58C437 179.86 436.92 192.083 436.76 204.25C436.687 209.643 437.36 215.247 438.78 221.06C438.8 221.145 438.8 221.234 438.78 221.319C438.76 221.405 438.722 221.485 438.667 221.553C438.612 221.621 438.542 221.676 438.463 221.714C438.384 221.752 438.298 221.771 438.21 221.77C429.383 221.637 420.807 221.677 412.48 221.89C404.453 222.103 397.843 222.8 392.65 223.98C371.303 228.833 354.253 240.257 341.5 258.25C329.473 275.217 324.437 294.553 326.39 316.26C328.523 339.947 338.48 359.53 356.26 375.01C356.767 375.45 356.7 375.773 356.06 375.98C348.413 378.38 341.29 381.937 334.69 386.65C287.937 420.07 241.173 453.48 194.4 486.88C193.047 487.853 191.9 488.857 190.96 489.89C189.94 491.01 189.45 490.817 189.49 489.31C189.637 483.077 189.503 476.94 189.09 470.9C188.643 464.32 187.763 458.267 186.45 452.74C181.223 430.767 170.41 412.13 154.01 396.83C149.037 392.19 143.787 388.1 138.26 384.56C120.467 373.173 100.27 367.29 77.6699 366.91C76.3766 366.89 76.2532 366.497 77.2999 365.73C121.147 333.697 165.333 301.477 209.86 269.07C217.34 263.623 222.543 259.477 225.47 256.63C241.35 241.203 249.27 221.743 249.23 198.25C249.21 186.77 249.237 175.29 249.31 163.81C249.31 163.756 249.324 163.702 249.351 163.655C249.377 163.607 249.414 163.567 249.46 163.537C249.505 163.507 249.557 163.489 249.611 163.485C249.666 163.48 249.72 163.489 249.77 163.51C250.823 163.977 252.837 164.953 255.81 166.44Z" fill="#685151"/>
<path d="M363.181 357.95C354.868 349.903 349.121 339.94 345.941 328.06C341.554 311.687 342.314 296.187 348.221 281.56C350.781 275.22 354.124 269.483 358.251 264.35C363.898 257.33 370.791 251.607 378.931 247.18C388.904 241.753 399.594 239.033 411.001 239.02C422.914 239.007 434.524 239 445.831 239C446.254 239 446.67 239.107 447.04 239.309C447.411 239.512 447.724 239.805 447.951 240.16C456.491 253.513 461.234 267.63 462.181 282.51C462.601 289.137 462.214 295.773 461.021 302.42C459.128 312.993 455.391 322.85 449.811 331.99C449.734 332.115 449.631 332.22 449.507 332.299C449.384 332.378 449.245 332.428 449.099 332.445C448.954 332.462 448.807 332.447 448.669 332.399C448.53 332.351 448.405 332.273 448.301 332.17C438.641 322.517 429.144 313.023 419.811 303.69C418.738 302.617 417.791 301.727 416.971 301.02C415.904 300.107 414.788 299.467 413.621 299.1C409.908 297.947 406.888 298.933 404.561 302.06C402.668 304.613 402.251 307.237 403.311 309.93C403.858 311.317 405.351 313.227 407.791 315.66C417.964 325.787 427.961 335.827 437.781 345.78C437.87 345.87 437.941 345.978 437.989 346.095C438.037 346.213 438.061 346.339 438.06 346.465C438.059 346.592 438.033 346.716 437.984 346.832C437.934 346.948 437.862 347.053 437.771 347.14C421.924 362.427 402.691 370.93 380.071 372.65C378.884 372.737 377.864 372.367 377.011 371.54C373.911 368.547 370.611 365.283 367.111 361.75C367.058 361.703 365.748 360.437 363.181 357.95Z" fill="#685151"/>
<path d="M135.689 512H131.939C116.339 511.407 102.296 507.22 89.8092 499.44C73.7425 489.427 62.2792 475.687 55.4192 458.22C52.9392 451.913 51.2725 445.477 50.4192 438.91C48.0258 420.423 51.6158 402.513 61.1892 385.18C61.3859 384.823 61.6752 384.525 62.0269 384.318C62.3786 384.11 62.78 384 63.1892 384C66.3092 384 69.7458 383.957 73.4992 383.87C103.433 383.15 128.203 393.423 147.809 414.69C159.696 427.577 167.293 442.717 170.599 460.11C171.566 465.163 172.159 471.793 172.379 480C172.573 487.147 172.609 494.427 172.489 501.84C172.483 502.096 172.407 502.345 172.269 502.56C172.132 502.775 171.938 502.948 171.709 503.06C160.243 508.56 148.236 511.54 135.689 512Z" fill="#685151"/>
</svg>
