<svg width="512" height="512" viewBox="0 0 512 512" fill="none" xmlns="http://www.w3.org/2000/svg">
<path d="M512 249.81V390.31C510.46 401.543 504.543 408.47 494.25 411.09C492.63 411.503 490.44 411.74 487.68 411.8C485.473 411.847 483.267 411.927 481.06 412.04C480.926 412.045 480.798 412.102 480.705 412.199C480.612 412.296 480.56 412.425 480.56 412.56C480.5 424.3 480.477 436.037 480.49 447.77C480.497 454.063 480.027 458.66 479.08 461.56C476.773 468.627 472.113 473.353 465.1 475.74C462.153 476.747 457.523 477.263 451.21 477.29C435.603 477.343 420 477.27 404.4 477.07C400.413 477.017 397.21 476.543 394.79 475.65C387.963 473.137 383.41 468.64 381.13 462.16C380.037 459.053 379.49 453.217 379.49 444.65C379.483 434.05 379.507 423.333 379.56 412.5C379.561 412.427 379.548 412.354 379.52 412.286C379.493 412.219 379.452 412.157 379.4 412.105C379.347 412.053 379.285 412.011 379.217 411.983C379.148 411.955 379.074 411.94 379 411.94L133.06 412.06C132.927 412.06 132.8 412.112 132.706 412.204C132.613 412.295 132.56 412.42 132.56 412.55C132.493 422.857 132.47 433.16 132.49 443.46C132.49 443.507 132.527 445.533 132.6 449.54C132.68 454.327 132.377 457.793 131.69 459.94C129.123 467.947 124.377 473.187 117.45 475.66C114.483 476.72 108.963 477.25 100.89 477.25C87.2433 477.25 73.6 477.25 59.96 477.25C54.2867 477.25 50.0367 476.783 47.21 475.85C40.0633 473.49 35.3233 468.803 32.99 461.79C31.9967 458.81 31.5 453.893 31.5 447.04C31.5 435.607 31.5 424.173 31.5 412.74C31.5004 412.616 31.475 412.493 31.4255 412.379C31.3759 412.265 31.3033 412.162 31.2121 412.078C31.121 411.993 31.0134 411.928 30.8959 411.887C30.7785 411.846 30.6539 411.83 30.53 411.84C28.4233 411.993 26.25 412.03 24.01 411.95C21.6033 411.863 19.4533 411.567 17.56 411.06C7.24 408.313 1.38667 401.273 0 389.94V249.44C1.97333 235.76 9.91667 228.467 23.83 227.56C23.9687 227.551 24.102 227.504 24.215 227.425C24.3281 227.345 24.4163 227.236 24.47 227.11C40.7433 189.07 57.1233 151.047 73.61 113.04C73.6367 112.98 74.1833 111.603 75.25 108.91C79.59 97.97 88.1733 92.5 101 92.5C120.587 92.5 140.197 92.5 159.83 92.5C160.008 92.5 160.178 92.4294 160.304 92.3038C160.429 92.1781 160.5 92.0077 160.5 91.83C160.5 82.6967 160.5 73.68 160.5 64.78C160.5 58.1733 160.987 53.38 161.96 50.4C164.267 43.3133 168.9 38.6133 175.86 36.3C178.973 35.2667 184.457 34.75 192.31 34.75C237.123 34.75 281.937 34.7467 326.75 34.74C329.017 34.74 331.247 34.9733 333.44 35.44C335.66 35.9133 337.737 36.71 339.67 37.83C347.47 42.3433 351.39 49.4833 351.43 59.25C351.477 69.9167 351.5 80.8133 351.5 91.94C351.5 92.0885 351.559 92.231 351.664 92.336C351.769 92.441 351.911 92.5 352.06 92.5C370.653 92.4733 389.197 92.4867 407.69 92.54C414.737 92.56 419.673 93.09 422.5 94.13C426.473 95.5967 429.78 98.01 432.42 101.37C433.827 103.157 435.667 106.673 437.94 111.92C465.027 174.5 481.317 212.34 486.81 225.44C487.483 227.033 488.507 227.847 489.88 227.88C491.3 227.913 492.047 227.937 492.12 227.95C503.967 230.217 510.593 237.503 512 249.81ZM117.69 227.31C224.357 227.31 330.907 227.437 437.34 227.69C437.412 227.691 437.482 227.674 437.546 227.64C437.609 227.607 437.663 227.558 437.703 227.499C437.743 227.439 437.767 227.37 437.773 227.299C437.78 227.228 437.768 227.156 437.74 227.09L399.84 139.04C399.739 138.806 399.571 138.606 399.358 138.466C399.145 138.325 398.895 138.25 398.64 138.25H113.4C113.17 138.25 112.946 138.318 112.754 138.444C112.562 138.57 112.411 138.749 112.32 138.96L74.39 227.02C74.358 227.092 74.3448 227.172 74.3516 227.25C74.3583 227.329 74.3849 227.405 74.4288 227.471C74.4726 227.537 74.5324 227.59 74.6026 227.627C74.6727 227.663 74.7509 227.682 74.83 227.68C89.0233 227.433 103.31 227.31 117.69 227.31ZM143.95 319.77C143.95 307.92 139.243 296.556 130.864 288.176C122.484 279.797 111.12 275.09 99.27 275.09C87.4201 275.09 76.0556 279.797 67.6765 288.176C59.2973 296.556 54.59 307.92 54.59 319.77C54.59 331.62 59.2973 342.984 67.6765 351.364C76.0556 359.743 87.4201 364.45 99.27 364.45C111.12 364.45 122.484 359.743 130.864 351.364C139.243 342.984 143.95 331.62 143.95 319.77ZM456.11 319.77C456.11 307.923 451.404 296.561 443.026 288.184C434.649 279.806 423.287 275.1 411.44 275.1C399.593 275.1 388.231 279.806 379.854 288.184C371.476 296.561 366.77 307.923 366.77 319.77C366.77 325.636 367.925 331.445 370.17 336.864C372.415 342.284 375.706 347.208 379.854 351.356C384.002 355.504 388.926 358.795 394.346 361.04C399.765 363.285 405.574 364.44 411.44 364.44C417.306 364.44 423.115 363.285 428.534 361.04C433.954 358.795 438.878 355.504 443.026 351.356C447.174 347.208 450.465 342.284 452.71 336.864C454.955 331.445 456.11 325.636 456.11 319.77Z" fill="#685151"/>
</svg>
