<svg width="400" height="360" viewBox="0 0 400 360" fill="none" xmlns="http://www.w3.org/2000/svg">
<path fill-rule="evenodd" clip-rule="evenodd" d="M94.8358 223L152.993 360H35L94.8358 223Z" fill="#A79482"/>
<path d="M335.002 360L276.845 223H94.8358L152.993 360H335.002Z" fill="#635447"/>
<path d="M59.0859 344.423L69.2018 360H111.409L128.327 350.577L94.4915 260L59.0859 344.423Z" fill="#89482C"/>
<path d="M94.7771 260L70.125 360H111.268L94.7771 260Z" fill="#473A2D"/>
<path d="M276.845 194V223H274.838V194H276.845Z" fill="#C0B7B3"/>
<path d="M303.432 204.668L276.846 215.763V194L303.432 204.668Z" fill="#89482C"/>
<path d="M152.344 320.585L118.49 238.585H270.601L305.141 320.585H152.344Z" fill="#473A2D"/>
<path d="M167.107 328.361L160.537 312.275H169.16L175.729 328.361H167.107Z" fill="#968A84"/>
<path d="M207.396 328.361L200.416 312.275H209.578L216.558 328.361H207.396Z" fill="#968A84"/>
<path d="M247.275 328.361L240.295 312.275H249.456L256.437 328.361H247.275Z" fill="#968A84"/>
<path d="M287.565 328.361L280.174 312.275H289.874L297.265 328.361H287.565Z" fill="#968A84"/>
<path d="M158.639 297.136H280.176" stroke="#2F2822" stroke-width="6" stroke-linecap="round" stroke-linejoin="round"/>
<path d="M149.09 276.514H271.577" stroke="#2F2822" stroke-width="6" stroke-linecap="round" stroke-linejoin="round"/>
<path d="M140.541 253.72H263.028" stroke="#2F2822" stroke-width="6" stroke-linecap="round" stroke-linejoin="round"/>
<path d="M152.92 359.999L94.7363 223L98.7258 223L156.927 360L152.92 359.999Z" fill="#7B6B5C"/>
<path d="M39.012 360L98.2219 224.5L94.7097 223L35.002 360H39.012Z" fill="#7B6B5C"/>
<path d="M105.342 263.378L111.467 279.585" stroke="#7B6B5C" stroke-width="3" stroke-linecap="round" stroke-linejoin="round"/>
<path d="M90.8926 253.72L83.8102 269.535" stroke="#7B6B5C" stroke-width="3" stroke-linecap="round" stroke-linejoin="round"/>
<path d="M77.4043 289.77L70.322 305.585" stroke="#7B6B5C" stroke-width="3" stroke-linecap="round" stroke-linejoin="round"/>
<path d="M61.123 324.104L50.016 349.177" stroke="#7B6B5C" stroke-width="3" stroke-linecap="round" stroke-linejoin="round"/>
<path d="M115.426 296.068L123.462 317.158" stroke="#7B6B5C" stroke-width="3" stroke-linecap="round" stroke-linejoin="round"/>
<path d="M132.506 329.729L140.542 350.818" stroke="#7B6B5C" stroke-width="3" stroke-linecap="round" stroke-linejoin="round"/>
</svg>
