<svg width="512" height="512" viewBox="0 0 512 512" fill="none" xmlns="http://www.w3.org/2000/svg">
<path d="M512 467.81V501.06L0.52 501.19C0.47921 501.19 0.427011 501.178 0.366743 501.154C0.306475 501.129 0.239465 501.094 0.17 501.05L0 500.94V467.94L0.26 467.74C0.465269 467.586 0.669747 467.5 0.83 467.5H26.84C27.0656 467.5 27.287 467.443 27.4831 467.335C27.6792 467.226 27.8434 467.07 27.96 466.88L235.85 128.93C235.953 128.765 236.007 128.574 236.007 128.378C236.007 128.182 235.953 127.989 235.85 127.82L175.2 29.1801C175.078 28.9811 175.04 28.7419 175.094 28.515C175.149 28.2881 175.291 28.0921 175.49 27.9701L202.81 11.1601C202.893 11.1087 202.985 11.0742 203.081 11.0585C203.177 11.0428 203.275 11.0461 203.37 11.0684C203.465 11.0907 203.554 11.1315 203.633 11.1884C203.712 11.2453 203.779 11.3172 203.83 11.4001L255.38 95.2101C255.444 95.3113 255.533 95.3946 255.638 95.4524C255.742 95.5102 255.86 95.5405 255.98 95.5405C256.1 95.5405 256.218 95.5102 256.322 95.4524C256.427 95.3946 256.516 95.3113 256.58 95.2101L308.26 11.2301C308.343 11.0978 308.474 11.0036 308.626 10.968C308.778 10.9324 308.937 10.9583 309.07 11.0401L336.67 28.0701C336.746 28.1171 336.813 28.1788 336.865 28.2516C336.918 28.3244 336.955 28.4069 336.976 28.4942C336.996 28.5816 336.999 28.6722 336.984 28.7607C336.97 28.8493 336.938 28.934 336.89 29.0101L276.12 127.97C276.045 128.094 276.005 128.235 276.005 128.38C276.005 128.525 276.045 128.666 276.12 128.79L483.91 466.76C484.054 466.993 484.258 467.186 484.505 467.321C484.752 467.455 485.032 467.527 485.32 467.53L512 467.81ZM256.71 332.63L321.2 466.95C321.278 467.115 321.402 467.254 321.558 467.351C321.713 467.448 321.895 467.5 322.08 467.5H358.05C358.135 467.5 358.219 467.479 358.293 467.438C358.367 467.397 358.43 467.337 358.475 467.265C358.52 467.193 358.546 467.111 358.55 467.026C358.555 466.941 358.537 466.856 358.5 466.78L256.5 254.47C256.307 254.063 256.11 254.063 255.91 254.47L153.44 466.86C153.408 466.927 153.394 467 153.397 467.074C153.401 467.147 153.424 467.219 153.463 467.282C153.502 467.344 153.556 467.396 153.62 467.433C153.684 467.469 153.756 467.489 153.83 467.49L190.06 467.32C190.21 467.32 190.357 467.278 190.485 467.198C190.612 467.119 190.714 467.005 190.78 466.87L255.65 332.63C256.003 331.897 256.357 331.897 256.71 332.63Z" fill="#685151"/>
</svg>
