<svg width="3360" height="1080" viewBox="0 0 3360 1080" fill="none" xmlns="http://www.w3.org/2000/svg">
<path d="M1657.46 667.754L1661.87 661.17L1669.16 659.784L1676.37 661.17L1677.01 661.929L1680.49 666.108L1682.5 672.565L1681.7 677.63L1677.95 682.822L1675.8 685.354L1669.78 687L1661.87 685.354L1657.46 681.049L1655.97 674.401L1657.46 667.754Z" fill="#685151"/>
<path d="M1663.16 674.351L1664.51 677.172L1667.89 679.542L1672.74 678.3L1675.22 675.818L1674.54 670.627L1672.74 667.242H1667.89L1665.3 668.709L1663.16 671.981V674.351Z" fill="#2C2C2C"/>
<path d="M1761.21 663.693L1765.32 661.286L1767.77 659.758H1773.73L1778.63 662.643L1782.14 666.716L1783.01 674.014V680.293L1778.63 685.089L1771.82 686.36L1763.66 684.365L1761.21 681.65L1758.93 676.898L1758.06 673.165L1758.93 668.074L1761.21 663.693Z" fill="#685151"/>
<path d="M1764.61 673.295L1766.22 676.765L1768.43 679.464H1772.24L1775.66 678.115L1776.46 675.03L1775.66 670.211L1773.05 667.319H1768.43L1765.41 670.789L1764.61 673.295Z" fill="#2C2C2C"/>
<path fill-rule="evenodd" clip-rule="evenodd" d="M1798.4 621.907C1798.07 620.309 1797.51 618.306 1797 617H1699.22C1695.61 618.581 1693.43 619.742 1688.16 624.283C1685.87 626.244 1675.78 636.065 1673.87 638.192C1673.05 639.113 1672.25 639.93 1671.44 640.763C1670.6 641.625 1669.75 642.502 1668.83 643.526C1668.31 644.097 1666.11 646.517 1665.01 646.517C1664.63 646.517 1654.64 647.597 1651.6 648.777C1648.84 649.874 1643.37 652.533 1642.54 653.181C1641.73 653.846 1640.89 654.942 1640.99 655.225C1641.03 655.324 1640.89 656.355 1640.65 657.485C1640.43 658.631 1640.17 660.36 1640.12 661.357C1640.05 662.337 1639.84 663.234 1639.84 663.234L1639.69 664.248C1639.69 664.564 1639.69 664.805 1639.7 664.999C1639.71 665.296 1639.71 665.486 1639.69 665.679C1639.69 665.679 1639.69 670.753 1639.93 672.789C1640.17 673.305 1640.37 673.903 1640.37 674.135C1640.37 674.368 1640.55 674.8 1640.77 675.116C1641.1 675.598 1641.37 675.731 1642.53 676.063C1643.25 676.262 1644.48 676.859 1645.65 677.429C1646.93 678.053 1650.21 678.694 1650.62 678.694C1651.24 676.204 1655.17 667.956 1659.06 665.677C1666.94 661.065 1682.1 660.1 1686.86 677.429C1739.74 677.679 1744.4 678.938 1744.54 678.738C1744.61 678.639 1744.74 678.606 1744.87 678.672C1745.12 678.822 1749.91 678.506 1752.03 678.672C1753.23 678.755 1753.13 678.672 1753.46 678.522C1753.76 678.245 1754.12 678.051 1754.2 677.575C1754.37 676.778 1754.34 674.75 1755.22 673.471C1756.31 670.812 1759.71 664.396 1762.17 663.914C1764.14 662.252 1769.7 660.283 1771.3 660.798C1773.02 661.346 1780 663.835 1781.4 665.264C1782.81 666.71 1785.5 674.252 1786.26 676.196L1786.82 677.642C1790.16 677.642 1789.88 677.792 1794.22 677.343C1794.79 677.276 1795.41 677.043 1795.85 676.744C1796.94 676.03 1799.12 674.301 1799.12 674.301C1799.12 674.301 1801.04 671.395 1801.09 671.128C1801.16 670.712 1801.31 670.164 1801.43 669.915C1801.76 669.3 1801.78 665.494 1801.45 665.228C1801.26 665.079 1801.24 664.68 1801.36 663.301C1801.43 662.337 1801.48 660.06 1801.47 658.233C1801.43 654.062 1801.43 653.63 1801.5 652.5C1801.82 647.294 1801.27 642.708 1800.75 638.381C1800.55 636.771 1800.36 635.196 1800.23 633.639C1800 631.312 1798.95 624.566 1798.4 621.907Z" fill="#312D2D"/>
<path d="M1795.77 613.938C1794.39 613.057 1790.46 612.791 1779.3 612.592C1766.92 612.375 1744.67 612.342 1733.31 612.592C1733.31 612.592 1709.04 613.489 1706.4 613.921C1704.78 614.175 1701.01 616.214 1699.22 617H1797C1796.43 615.535 1796.23 614.236 1795.77 613.938Z" fill="#2C2C2C"/>
<path d="M1713.07 643.498H1675.22C1675.22 643.498 1689.28 628.288 1694.53 624.451H1713.07V643.498Z" fill="#685151"/>
<path d="M1721.25 624.059H1789.02L1791.27 644.2H1721.25V624.059Z" fill="#685151"/>
<path d="M1742.11 579.193L1739.71 583.075L1757.99 586.653L1757.13 583.734L1751.2 578.018L1742.11 579.193Z" fill="#281E16"/>
<path d="M1747.01 580.959L1744.36 581.258L1740.56 580.251L1739.71 578.611L1739.84 577.045V575.592L1741.35 573.03L1742.87 571.542L1744.36 570.708L1745.86 570L1747.6 570.396L1748.72 571.081L1749.23 573.28L1750.09 572.385H1752.86L1755.08 572.684L1757 574.026L1758.97 576.337C1759.46 579.207 1759.55 580.747 1759.4 583.382V585.768L1758.97 586.961H1757.86L1754.7 586.364L1752.86 585.768L1751.79 581.258L1749.45 579.99V578.611L1748.25 579.319L1747.01 580.959Z" fill="#5F412A"/>
<path d="M1764.32 589.841H1760.96L1756.87 587.461L1750.01 586.961V601.142L1749.62 612.586L1750.01 613.558L1751 614.877C1752.61 615.003 1753.85 615.061 1756.56 615.178C1759 615.294 1760.19 615.31 1762.21 615.178C1762.79 614.888 1763.28 614.614 1763.66 614.02L1764.32 612.586V589.841Z" fill="#784115"/>
<path d="M1732.41 612.752L1734.51 613.968L1736.92 614.357H1746.79L1747.6 613.579L1749.2 612.752C1749.45 612.659 1749.58 612.565 1749.74 612.297L1750.62 598.011V587.649H1752.49L1757.39 588.038L1761.57 590.295C1763.03 590.697 1763.84 590.747 1765.31 590.295C1766.02 590.149 1766.43 589.877 1767.18 588.894C1766.96 587.486 1766.64 587.043 1766.02 586.327C1764.54 585.41 1763.53 584.92 1761.57 584.07L1757.39 583.604L1750 582.903L1745.1 581.581H1739.5L1736.92 582.511C1736.92 582.511 1734.96 582.564 1732.41 584.07C1729.87 585.577 1727.05 595.274 1727.05 595.274L1725.4 602.783L1725.87 610.354L1726.82 612.876L1730.75 612.716V611.236L1731.55 602.523L1732.41 598.011V612.752Z" fill="#462318"/>
</svg>
