<svg width="3360" height="1080" viewBox="0 0 3360 1080" fill="none" xmlns="http://www.w3.org/2000/svg">
<path d="M1666 691.018V686.926L1666.66 684.803L1669.85 684L1673.39 685.446L1680.54 690.352L1691.39 699.423L1700.38 707.12L1710.88 715.725L1793.54 716.38H1799.34L1805.27 715.817L1792.84 707.784L1778.69 697.897L1772.19 693.64L1770.78 692.756V688.418L1771.41 685.446L1774.62 684.08L1778.69 685.446L1786.73 690.513L1797.55 697.834L1809.67 705.753L1824.82 716.46L1838.72 717.022L1841.47 717.826L1844.12 719.701L1851.16 724.671C1862.74 734.194 1878.02 747.29 1888.62 759.76C1888.62 759.76 1889.02 760.889 1889 761.26C1888.98 761.631 1888.21 762.003 1888.24 762.01L1819.51 762.82C1819.51 762.82 1747.57 764.32 1740 761.32C1732.43 758.32 1727.51 754.495 1727.51 754.495L1716.91 747.822L1709.71 743.707L1696.81 741.823L1686.24 739.198L1677.97 731.27L1673.39 724.084V720.418L1675.11 717.192L1677.97 715.725H1696.42L1682.9 705.753L1672.68 697.834L1666 691.018Z" fill="#C7B19E"/>
<path d="M1809.73 770.733L1800.86 763.825L1789.81 755.868H1826.98L1834.51 761.577L1846.01 770.733L1849.58 777.641C1850.23 779.563 1850.44 780.792 1849.16 784.723C1851.38 787.528 1850.36 788.202 1849.82 789.893C1849.08 790.514 1848.47 790.688 1847.24 790.819C1844.93 791.751 1839.98 788.893 1836.4 786.707C1832.82 784.522 1828.55 783.685 1828.55 783.685L1819.52 777.641L1809.73 770.733Z" fill="#C7B19E"/>
</svg>
