<svg width="24" height="24" viewBox="0 0 24 24" fill="none" xmlns="http://www.w3.org/2000/svg">
<g clip-path="url(#clip0_818_4)">
<path d="M6.62069 10.7586C7.53481 10.7586 8.27586 10.0175 8.27586 9.10341C8.27586 8.18929 7.53481 7.44824 6.62069 7.44824C5.70656 7.44824 4.96552 8.18929 4.96552 9.10341C4.96552 10.0175 5.70656 10.7586 6.62069 10.7586Z" fill="black"/>
<path d="M11.5862 8.27568C12.5003 8.27568 13.2414 7.53463 13.2414 6.6205C13.2414 5.70638 12.5003 4.96533 11.5862 4.96533C10.6721 4.96533 9.93103 5.70638 9.93103 6.6205C9.93103 7.53463 10.6721 8.27568 11.5862 8.27568Z" fill="black"/>
<path d="M16.5517 10.7586C17.4658 10.7586 18.2069 10.0175 18.2069 9.10341C18.2069 8.18929 17.4658 7.44824 16.5517 7.44824C15.6376 7.44824 14.8965 8.18929 14.8965 9.10341C14.8965 10.0175 15.6376 10.7586 16.5517 10.7586Z" fill="black"/>
<path d="M17.3793 15.7239C18.2934 15.7239 19.0345 14.9829 19.0345 14.0687C19.0345 13.1546 18.2934 12.4136 17.3793 12.4136C16.4652 12.4136 15.7241 13.1546 15.7241 14.0687C15.7241 14.9829 16.4652 15.7239 17.3793 15.7239Z" fill="black"/>
<path d="M14.069 19.8621C14.9831 19.8621 15.7242 19.1211 15.7242 18.2069C15.7242 17.2928 14.9831 16.5518 14.069 16.5518C13.1549 16.5518 12.4138 17.2928 12.4138 18.2069C12.4138 19.1211 13.1549 19.8621 14.069 19.8621Z" fill="black"/>
<path d="M12.0331 0.82747C10.4744 0.767303 8.91959 1.0225 7.46189 1.57776C6.0042 2.13303 4.67363 2.97692 3.54997 4.05885C2.42631 5.14078 1.53269 6.43847 0.92268 7.87412C0.312673 9.30976 -0.00115759 10.8538 3.20844e-06 12.4137C-3.78527e-05 13.0272 0.141435 13.6324 0.41342 14.1824C0.685405 14.7323 1.08057 15.2121 1.56819 15.5844C2.05581 15.9567 2.62274 16.2115 3.22488 16.329C3.82703 16.4466 4.44817 16.4236 5.04 16.262L5.9669 16.0054C6.33563 15.9047 6.72261 15.8906 7.09771 15.964C7.4728 16.0375 7.82588 16.1965 8.12943 16.4288C8.43298 16.661 8.6788 16.9603 8.84775 17.3031C9.01669 17.646 9.1042 18.0232 9.10345 18.4054V21.5171C9.10345 22.1756 9.36503 22.8071 9.83063 23.2727C10.2962 23.7383 10.9277 23.9999 11.5862 23.9999C13.1461 24.001 14.6901 23.6872 16.1258 23.0772C17.5614 22.4672 18.8591 21.5736 19.941 20.4499C21.023 19.3263 21.8669 17.9957 22.4221 16.538C22.9774 15.0803 23.2326 13.5255 23.1724 11.9668C23.0523 9.05092 21.8402 6.28683 19.7766 4.22326C17.7131 2.1597 14.949 0.947548 12.0331 0.82747ZM18.7448 19.2909C17.8208 20.2584 16.7097 21.028 15.4791 21.5529C14.2485 22.0779 12.9241 22.3473 11.5862 22.3447C11.3667 22.3447 11.1562 22.2575 11.001 22.1023C10.8458 21.9471 10.7586 21.7366 10.7586 21.5171V18.4054C10.7586 17.308 10.3227 16.2555 9.54665 15.4794C8.77064 14.7034 7.71814 14.2675 6.62069 14.2675C6.24882 14.2681 5.87868 14.3182 5.52 14.4164L4.59311 14.673C4.24691 14.7658 3.884 14.7776 3.53251 14.7075C3.18101 14.6374 2.85039 14.4872 2.56628 14.2688C2.28216 14.0503 2.05218 13.7693 1.89418 13.4476C1.73618 13.1259 1.6544 12.7721 1.65518 12.4137C1.65415 11.0761 1.92332 9.75216 2.44655 8.52119C2.96978 7.29023 3.73628 6.17765 4.70005 5.2502C5.66383 4.32274 6.80503 3.59954 8.05517 3.12396C9.30532 2.64839 10.6387 2.43025 11.9752 2.48264C14.4639 2.61226 16.8164 3.65919 18.5785 5.42136C20.3407 7.18353 21.3876 9.536 21.5172 12.0247C21.5742 13.3621 21.3577 14.697 20.881 15.9478C20.4043 17.1986 19.6774 18.339 18.7448 19.2992V19.2909Z" fill="black"/>
</g>
<defs>
<clipPath id="clip0_818_4">
<rect width="24" height="24" fill="white"/>
</clipPath>
</defs>
</svg>
