<svg width="24" height="24" viewBox="0 0 24 24" fill="none" xmlns="http://www.w3.org/2000/svg">
<g clip-path="url(#clip0_586_2)">
<path d="M24 1.99861C23.9996 1.48723 23.8044 0.975958 23.4142 0.585786C23.0238 0.19535 22.5121 8.80654e-05 22.0003 0V0C21.4886 8.80654e-05 20.9762 0.19535 20.5858 0.585786L20.553 0.618574C19.7719 1.39962 19.7719 2.66595 20.553 3.447C21.334 4.22805 22.6004 4.22805 23.3814 3.447L23.4142 3.41421C23.8044 3.02404 23.9996 2.51277 24 2.00139V1.99861Z" fill="black"/>
<path d="M2.00139 24C2.51277 23.9996 3.02404 23.8044 3.41421 23.4142L3.447 23.3814C4.22805 22.6004 4.22805 21.334 3.447 20.553C2.66595 19.772 1.39962 19.772 0.618573 20.553L0.585786 20.5858C0.19535 20.9762 8.80654e-05 21.4879 0 21.9997V21.9997C8.80654e-05 22.5114 0.19535 23.0238 0.585786 23.4142C0.975958 23.8044 1.48723 23.9996 1.99861 24H2.00139Z" fill="black"/>
<path d="M19.447 7.38143C20.228 6.60038 20.228 5.33405 19.447 4.553C18.666 3.77195 17.3996 3.77195 16.6186 4.553L16.553 4.61857C15.772 5.39962 15.772 6.66595 16.553 7.447C17.334 8.22805 18.6004 8.22805 19.3814 7.447L19.447 7.38143Z" fill="black"/>
<path d="M15.447 11.3814C16.228 10.6004 16.228 9.33405 15.447 8.553C14.666 7.77195 13.3996 7.77195 12.6186 8.553L12.553 8.61857C11.772 9.39962 11.772 10.666 12.553 11.447C13.334 12.228 14.6004 12.228 15.3814 11.447L15.447 11.3814Z" fill="black"/>
<path d="M11.447 15.3814C12.228 14.6004 12.228 13.334 11.447 12.553C10.666 11.772 9.39962 11.772 8.61857 12.553L8.553 12.6186C7.77195 13.3996 7.77195 14.666 8.553 15.447C9.33405 16.2281 10.6004 16.2281 11.3814 15.447L11.447 15.3814Z" fill="black"/>
<path d="M7.447 19.3814C8.22805 18.6004 8.22805 17.334 7.447 16.553C6.66595 15.772 5.39962 15.772 4.61857 16.553L4.553 16.6186C3.77195 17.3996 3.77195 18.666 4.553 19.447C5.33405 20.228 6.60038 20.228 7.38143 19.447L7.447 19.3814Z" fill="black"/>
</g>
<defs>
<clipPath id="clip0_586_2">
<rect width="24" height="24" fill="white"/>
</clipPath>
</defs>
</svg>
