<svg width="24" height="24" viewBox="0 0 24 24" fill="none" xmlns="http://www.w3.org/2000/svg">
<g clip-path="url(#clip0_733_2)">
<path fill-rule="evenodd" clip-rule="evenodd" d="M24 13.8828C23.9993 14.9218 23.7277 15.9667 23.1737 16.91C22.3095 18.4078 20.8326 19.4645 19.1216 19.8103C18.3023 22.3131 15.9384 24.0066 13.2735 23.9999C11.5276 24.0111 9.86145 23.2784 8.70307 21.9898C6.09747 22.5418 3.42955 21.3688 2.10243 19.0888C1.21996 17.6022 1.02994 15.8119 1.58177 14.1777C0.537925 13.0381 0 11.5855 0 10.1211C0 9.07961 0.272081 8.03214 0.827755 7.08701C1.69198 5.58923 3.16884 4.53246 4.8798 4.1867C5.69918 1.68615 8.06231 -0.00588881 10.7257 0.00011132C10.738 3.70845e-05 10.7504 0 10.7627 0C12.4951 0 14.1452 0.731486 15.2961 2.0109C17.9017 1.45889 20.5696 2.63192 21.8967 4.91197C22.7792 6.3985 22.9692 8.18878 22.4174 9.82307L22.4182 9.82157C23.461 10.9605 23.999 12.4114 24 13.8743C24 13.8771 24 13.8799 24 13.8828ZM10.357 21.3906C11.1756 22.0648 12.2086 22.4331 13.275 22.4316C15.7894 22.4263 17.8257 20.4148 17.8287 17.9337V12.3544C17.8257 12.3304 17.8112 12.3094 17.7892 12.2989L15.7423 11.1326V17.87C15.7438 18.1512 15.5918 18.4115 15.344 18.5503L10.5007 21.3103C10.4589 21.3358 10.3943 21.3711 10.357 21.3906ZM2.93853 15.2907C2.75535 16.3265 2.94765 17.3937 3.482 18.3042C4.74299 20.453 7.52872 21.1896 9.70943 19.9505L14.6052 17.1612C14.6242 17.1462 14.6356 17.123 14.6341 17.099V14.7664L8.72131 18.1355C8.47504 18.2772 8.171 18.2772 7.92549 18.1355L3.08219 15.3754C3.05223 15.3584 3.01412 15.3357 2.98148 15.3162C2.96526 15.3065 2.95039 15.2977 2.93853 15.2907ZM4.57957 5.90049C3.57929 6.26274 2.73939 6.96026 2.20732 7.87228C0.95317 10.0233 1.69882 12.7714 3.87496 14.0149L8.77147 16.8065C8.79428 16.8162 8.82012 16.814 8.84064 16.8005L10.8876 15.6342L4.97482 12.2659C4.72779 12.1271 4.57577 11.8669 4.57729 11.5864V6.06549C4.57729 6.03864 4.57792 6.00576 4.57852 5.97462C4.57906 5.94661 4.57957 5.92002 4.57957 5.90049ZM13.1124 8.36504L19.0251 11.7341C19.2714 11.8736 19.4234 12.1331 19.4211 12.4136V18.0995C20.4206 17.7365 21.2598 17.039 21.7926 16.1285C23.0521 13.9774 22.3049 11.2256 20.125 9.98282L15.2285 7.19351C15.2057 7.18376 15.1798 7.18601 15.1593 7.19951L13.1124 8.36504ZM21.0608 8.70771C21.0248 8.68584 20.9628 8.64897 20.9185 8.6238L16.0752 5.86374C15.8297 5.72198 15.5256 5.72198 15.2794 5.86374L9.36662 9.23281V6.90026C9.3651 6.87626 9.37651 6.85301 9.39551 6.83801L14.2913 4.05095C16.472 2.80967 19.26 3.54844 20.5172 5.70098C21.0483 6.60976 21.2407 7.6737 21.0608 8.70771ZM6.20616 11.6996L8.25385 12.8659L8.25689 6.12999C8.25537 5.84874 8.40739 5.58923 8.65518 5.45048L13.4985 2.69042C13.541 2.66492 13.6049 2.62967 13.6421 2.61017C12.8235 1.93815 11.7928 1.56914 10.728 1.56914C8.21053 1.56764 6.16816 3.58069 6.16664 6.06474V11.6441C6.16968 11.6681 6.18412 11.6891 6.20616 11.6996ZM11.9996 8.99955L9.36587 10.5003V13.5004L11.9996 15.0004L14.6333 13.5004V10.4996L11.9996 8.99955Z" fill="black"/>
</g>
<defs>
<clipPath id="clip0_733_2">
<rect width="24" height="24" fill="white"/>
</clipPath>
</defs>
</svg>
