<svg width="24" height="24" viewBox="0 0 24 24" fill="none" xmlns="http://www.w3.org/2000/svg">
<g clip-path="url(#clip0_764_7)">
<path d="M5.15557 22.8427C5.18265 23.4896 5.71496 24.0001 6.36231 24.0001H17.6378C18.2852 24.0001 18.8175 23.4896 18.8446 22.8427L19.6498 5.84424H4.35034L5.15557 22.8427ZM14.5507 10.0664C14.5507 9.7955 14.7704 9.57582 15.0413 9.57582H15.826C16.0968 9.57582 16.3166 9.79544 16.3166 10.0664V19.778C16.3166 20.0489 16.097 20.2685 15.826 20.2685H15.0413C14.7705 20.2685 14.5507 20.049 14.5507 19.778V10.0664ZM11.1172 10.0664C11.1172 9.7955 11.3368 9.57582 11.6078 9.57582H12.3924C12.6632 9.57582 12.8829 9.79544 12.8829 10.0664V19.778C12.8829 20.0489 12.6634 20.2685 12.3924 20.2685H11.6078C11.3369 20.2685 11.1172 20.049 11.1172 19.778V10.0664ZM7.68357 10.0664C7.68357 9.7955 7.90319 9.57582 8.17411 9.57582H8.95883C9.22968 9.57582 9.44936 9.79544 9.44936 10.0664V19.778C9.44936 20.0489 9.22974 20.2685 8.95883 20.2685H8.17411C7.90325 20.2685 7.68357 20.049 7.68357 19.778V10.0664Z" fill="black"/>
<path d="M20.1859 1.23636H14.9841V0.252936C14.9841 0.113278 14.8709 0 14.7312 0H9.2688C9.12914 0 9.01592 0.113278 9.01592 0.252936V1.2363H3.81408C3.39546 1.2363 3.05615 1.57566 3.05615 1.99429V4.37541H20.9439V1.99434C20.9439 1.57572 20.6046 1.23636 20.1859 1.23636Z" fill="black"/>
</g>
<defs>
<clipPath id="clip0_764_7">
<rect width="24" height="24" fill="white"/>
</clipPath>
</defs>
</svg>
