<svg width="600" height="180" viewBox="0 0 600 180" fill="none" xmlns="http://www.w3.org/2000/svg">
<path d="M135.227 86.813C135.227 79.0737 128.953 72.7998 121.213 72.7998H89.6838C81.9446 72.7998 75.6706 79.0737 75.6706 86.813V86.813H135.227V86.813Z" fill="#473A2D"/>
<path d="M129.621 86.8131C129.621 80.6217 124.602 75.6025 118.411 75.6025H92.4862C86.2948 75.6025 81.2757 80.6217 81.2757 86.8131V86.8131H129.621V86.8131Z" fill="#2F2822"/>
<path d="M178.668 86.1123H81.2767C42.5805 86.1123 11.2109 117.482 11.2109 156.178V171C11.2109 175.971 15.2404 180 20.2109 180H178.668V86.1123Z" fill="#7B6B5C"/>
<path d="M111.404 112.737H110.385C99.3389 112.737 90.3846 121.692 90.3846 132.737V134.777C90.3846 145.822 99.3389 154.777 110.385 154.777H111.404V112.737Z" fill="#473A2D"/>
<path d="M111.404 116.24V116.24C101.73 116.24 93.8879 124.083 93.8879 133.757V133.757C93.8879 143.431 101.73 151.273 111.404 151.273V151.273V116.24Z" fill="#2F2822"/>
<path d="M21.0195 120.444H19.9998C8.9541 120.444 -0.000206649 129.399 -0.000206649 140.444V160C-0.000206649 171.046 8.9541 180 19.9998 180H21.0195V120.444Z" fill="#473A2D"/>
<path d="M21.0195 123.948V123.948C11.7324 123.948 4.20374 131.477 4.20374 140.764V159.682C4.20374 168.969 11.7324 176.498 21.0195 176.498V176.498V123.948Z" fill="#2F2822"/>
<path d="M131.591 126.75L135.227 117.642H130.455L126.819 126.75H131.591Z" fill="#968A84"/>
<path d="M116.177 99.425L119.812 90.3164H115.04L111.405 99.425H116.177Z" fill="#968A84"/>
<path d="M86.0477 112.737L89.6836 103.629H84.9115L81.2757 112.737H86.0477Z" fill="#968A84"/>
<path d="M65.7294 131.655L69.3652 122.547H64.5932L60.9573 131.655H65.7294Z" fill="#968A84"/>
<path d="M49.6142 114.839L53.25 105.73H48.478L44.8421 114.839H49.6142Z" fill="#968A84"/>
<path d="M43.3075 146.369L46.9434 155.478H42.1713L38.5355 146.369H43.3075Z" fill="#968A84"/>
<path d="M67.831 156.879L71.4668 165.987H66.6947L63.0589 156.879H67.831Z" fill="#968A84"/>
<path d="M100.763 165.987L104.398 175.096H99.6264L95.9905 165.987H100.763Z" fill="#968A84"/>
<path d="M125.985 144.266L129.621 153.375H124.849L121.213 144.266H125.985Z" fill="#968A84"/>
<path d="M144.903 161.783L148.539 170.892H143.767L140.131 161.783H144.903Z" fill="#968A84"/>
<path d="M206.855 153.341C215.048 142.138 215.048 123.974 206.855 112.771L193.503 94.5147C185.31 83.3115 172.026 83.3115 163.832 94.5147L150.481 112.771C142.287 123.974 142.287 142.138 150.481 153.341L163.832 171.598C172.026 182.801 185.31 182.801 193.503 171.598L206.855 153.341Z" fill="#A79482"/>
<path d="M204.554 151.827C212.078 141.46 212.078 124.652 204.554 114.285L192.292 97.3906C184.767 87.0235 172.568 87.0235 165.043 97.3906L152.781 114.285C145.257 124.652 145.257 141.46 152.781 151.827L165.043 168.721C172.568 179.089 184.767 179.089 192.292 168.721L204.554 151.827Z" fill="#A79482"/>
<ellipse cx="3.85362" cy="7.00658" rx="3.85362" ry="7.00658" transform="matrix(-1 0 0 1 156.947 124.648)" fill="#7B6B5C"/>
<ellipse cx="3.50329" cy="6.65625" rx="3.50329" ry="6.65625" transform="matrix(-1 0 0 1 156.246 125.349)" fill="#C7B19E"/>
<ellipse cx="2.10197" cy="2.4523" rx="2.10197" ry="2.4523" transform="matrix(-1 0 0 1 154.145 132.355)" fill="#473A2D"/>
<ellipse cx="204.24" cy="131.655" rx="3.85362" ry="7.00658" fill="#7B6B5C"/>
<ellipse cx="204.591" cy="132.005" rx="3.50329" ry="6.65625" fill="#C7B19E"/>
<ellipse cx="205.291" cy="134.808" rx="2.10197" ry="2.4523" fill="#473A2D"/>
<path d="M198.986 146.719C198.986 151.364 196.168 155.659 191.703 156.943C187.677 158.1 184.083 158.638 179.018 158.98C174.007 158.439 170.415 157.906 166.375 156.813C161.905 155.603 159.049 151.35 159.049 146.719V146.719C163.89 146.988 166.008 147.494 169.033 149.267C172.251 151.412 174.516 153.688 179.018 153.726C183.514 153.581 185.817 151.256 189.002 149.267C192.026 147.209 194.392 146.812 198.986 146.719V146.719Z" fill="#89482C"/>
<path d="M178.668 86.1123C173.298 86.1123 167.929 88.9136 163.833 94.5147L150.481 112.772C142.288 123.975 142.288 142.138 150.481 153.341L163.833 171.598C167.929 177.199 173.298 180 178.668 180L183.223 133.407L178.668 86.1123Z" fill="black" fill-opacity="0.1"/>
<path d="M184.975 116.24L184.975 123.947" stroke="#978575" stroke-width="3" stroke-linecap="round" stroke-linejoin="round"/>
<path d="M189.178 103.629L189.178 107.132" stroke="#978575" stroke-width="3" stroke-linecap="round" stroke-linejoin="round"/>
<path d="M173.062 99.4248L173.062 109.935" stroke="#A79482" stroke-width="3" stroke-linecap="round" stroke-linejoin="round"/>
<path d="M187.775 136.56L187.775 140.764" stroke="#978575" stroke-width="3" stroke-linecap="round" stroke-linejoin="round"/>
<path d="M200.389 142.165L200.389 146.369" stroke="#978575" stroke-width="3" stroke-linecap="round" stroke-linejoin="round"/>
<path d="M194.783 124.648L194.783 131.655" stroke="#978575" stroke-width="3" stroke-linecap="round" stroke-linejoin="round"/>
<path d="M184.975 163.185L184.975 168.089" stroke="#978575" stroke-width="3" stroke-linecap="round" stroke-linejoin="round"/>
<path d="M173.062 159.682L173.063 165.988" stroke="#A79482" stroke-width="3" stroke-linecap="round" stroke-linejoin="round"/>
<path d="M170.961 126.05V133.757" stroke="#A79482" stroke-width="3" stroke-linecap="round" stroke-linejoin="round"/>
<path d="M163.953 114.139L163.953 121.145" stroke="#A79482" stroke-width="3" stroke-linecap="round" stroke-linejoin="round"/>
<path d="M165.355 139.362L165.355 143.566" stroke="#A79482" stroke-width="3" stroke-linecap="round" stroke-linejoin="round"/>
</svg>
